ScienceGothic-BlkExpCtr.ufo
<glyph name="exclam" format="2">
  <advance width="1336"/>
  <unicode hex="0021"/>
  <outline>
    <contour>
      <point x="383" y="135" type="line" smooth="yes"/>
      <point x="383" y="44.448"/>
      <point x="433.448" y="-6"/>
      <point x="524" y="-6" type="qcurve" smooth="yes"/>
      <point x="812" y="-6" type="line" smooth="yes"/>
      <point x="902" y="-6"/>
      <point x="953" y="45"/>
      <point x="953" y="135" type="qcurve" smooth="yes"/>
      <point x="953" y="224" type="line" smooth="yes"/>
      <point x="953" y="313.797"/>
      <point x="901.552" y="364"/>
      <point x="811" y="364" type="qcurve" smooth="yes"/>
      <point x="524" y="364" type="line" smooth="yes"/>
      <point x="434" y="364"/>
      <point x="383" y="313.75"/>
      <point x="383" y="226" type="qcurve" smooth="yes"/>
    </contour>
    <contour>
      <point x="650" y="462" type="line"/>
      <point x="686" y="462" type="line"/>
      <point x="976" y="1400" type="line"/>
      <point x="360" y="1400" type="line"/>
    </contour>
  </outline>
</glyph>
<glyph name="dollar" format="2">
  <advance width="3094"/>
  <unicode hex="0024"/>
  <outline>
    <contour>
      <point x="1371" y="-150" type="line"/>
      <point x="1713" y="-150" type="line"/>
      <point x="1713" y="20" type="line"/>
      <point x="2362" y="20" type="line" smooth="yes"/>
      <point x="2458" y="20"/>
      <point x="2610.75" y="47.625"/>
      <point x="2717.25" y="123.375"/>
      <point x="2774" y="257.5"/>
      <point x="2774" y="364" type="qcurve" smooth="yes"/>
      <point x="2774" y="398" type="line" smooth="yes"/>
      <point x="2774" y="501.5"/>
      <point x="2713.88" y="629.875"/>
      <point x="2605.12" y="701.125"/>
      <point x="2453.5" y="726"/>
      <point x="2362" y="726" type="qcurve" smooth="yes"/>
      <point x="1713" y="726" type="line"/>
      <point x="1713" y="1344" type="line"/>
      <point x="2208" y="1344" type="line"/>
      <point x="2208" y="1344"/>
      <point x="2208" y="1344"/>
      <point x="2208" y="1344" type="qcurve"/>
      <point x="2208" y="958" type="line"/>
      <point x="2754" y="1008" type="line"/>
      <point x="2754" y="1052" type="line" smooth="yes"/>
      <point x="2754" y="1154.75"/>
      <point x="2694.5" y="1282.94"/>
      <point x="2586.5" y="1354.56"/>
      <point x="2435.5" y="1380"/>
      <point x="2344" y="1380" type="qcurve" smooth="yes"/>
      <point x="1713" y="1380" type="line"/>
      <point x="1713" y="1550" type="line"/>
      <point x="1371" y="1550" type="line"/>
      <point x="1371" y="1380" type="line"/>
      <point x="756" y="1380" type="line" smooth="yes"/>
      <point x="664.5" y="1380"/>
      <point x="511.625" y="1353.88"/>
      <point x="401.375" y="1281.12"/>
      <point x="340" y="1151.5"/>
      <point x="340" y="1048" type="qcurve" smooth="yes"/>
      <point x="340" y="1034" type="line" smooth="yes"/>
      <point x="340" y="928.25"/>
      <point x="396.062" y="794.312"/>
      <point x="501.438" y="718.188"/>
      <point x="652.75" y="690"/>
      <point x="748" y="690" type="qcurve" smooth="yes"/>
      <point x="1371" y="690" type="line"/>
      <point x="1371" y="56" type="line"/>
      <point x="856" y="56" type="line"/>
      <point x="856" y="56"/>
      <point x="856" y="56"/>
      <point x="856" y="56" type="qcurve"/>
      <point x="856" y="462" type="line"/>
      <point x="310" y="410" type="line"/>
      <point x="310" y="362" type="line" smooth="yes"/>
      <point x="310" y="256.25"/>
      <point x="366.688" y="122.938"/>
      <point x="472.812" y="47.5625"/>
      <point x="624.75" y="20"/>
      <point x="720" y="20" type="qcurve" smooth="yes"/>
      <point x="1371" y="20" type="line"/>
    </contour>
    <contour>
      <point x="1371" y="726" type="line"/>
      <point x="886" y="726" type="line"/>
      <point x="886" y="726"/>
      <point x="886" y="726"/>
      <point x="886" y="726" type="qcurve"/>
      <point x="886" y="1344" type="line"/>
      <point x="886" y="1344"/>
      <point x="886" y="1344"/>
      <point x="886" y="1344" type="qcurve"/>
      <point x="1371" y="1344" type="line"/>
    </contour>
    <contour>
      <point x="1713" y="56" type="line"/>
      <point x="1713" y="690" type="line"/>
      <point x="2228" y="690" type="line"/>
      <point x="2228" y="690"/>
      <point x="2228" y="690"/>
      <point x="2228" y="690" type="qcurve"/>
      <point x="2228" y="56" type="line"/>
      <point x="2228" y="56"/>
      <point x="2228" y="56"/>
      <point x="2228" y="56" type="qcurve"/>
    </contour>
  </outline>
</glyph>
<glyph name="percent" format="2">
  <advance width="3983"/>
  <unicode hex="0025"/>
  <outline>
    <contour>
      <point x="550" y="614" type="qcurve" smooth="yes"/>
      <point x="1388" y="614" type="line" smooth="yes"/>
      <point x="1498.93" y="614"/>
      <point x="1620" y="692.037"/>
      <point x="1620" y="809" type="qcurve" smooth="yes"/>
      <point x="1620" y="1212" type="line" smooth="yes"/>
      <point x="1620" y="1325.19"/>
      <point x="1493.64" y="1399"/>
      <point x="1388" y="1399" type="qcurve" smooth="yes"/>
      <point x="550" y="1399" type="line" smooth="yes"/>
      <point x="444.356" y="1399"/>
      <point x="320" y="1325.19"/>
      <point x="320" y="1212" type="qcurve" smooth="yes"/>
      <point x="320" y="809" type="line" smooth="yes"/>
      <point x="320" y="692.792"/>
      <point x="439.074" y="614"/>
    </contour>
    <contour>
      <point x="614" y="644" type="line"/>
      <point x="614" y="644"/>
      <point x="614" y="644"/>
      <point x="614" y="644" type="qcurve"/>
      <point x="614" y="1369" type="line"/>
      <point x="614" y="1369"/>
      <point x="614" y="1369"/>
      <point x="614" y="1369" type="qcurve"/>
      <point x="1326" y="1369" type="line"/>
      <point x="1326" y="1369"/>
      <point x="1326" y="1369"/>
      <point x="1326" y="1369" type="qcurve"/>
      <point x="1326" y="644" type="line"/>
      <point x="1326" y="644"/>
      <point x="1326" y="644"/>
      <point x="1326" y="644" type="qcurve"/>
    </contour>
    <contour>
      <point x="2670" y="1400" type="line"/>
      <point x="1270" y="0" type="line"/>
      <point x="1313" y="0" type="line"/>
      <point x="2713" y="1400" type="line"/>
    </contour>
    <contour>
      <point x="2593" y="0" type="qcurve" smooth="yes"/>
      <point x="3431" y="0" type="line" smooth="yes"/>
      <point x="3541.93" y="0"/>
      <point x="3663" y="78.037"/>
      <point x="3663" y="195" type="qcurve" smooth="yes"/>
      <point x="3663" y="598" type="line" smooth="yes"/>
      <point x="3663" y="711.19"/>
      <point x="3536.64" y="785"/>
      <point x="3431" y="785" type="qcurve" smooth="yes"/>
      <point x="2593" y="785" type="line" smooth="yes"/>
      <point x="2487.36" y="785"/>
      <point x="2363" y="711.19"/>
      <point x="2363" y="598" type="qcurve" smooth="yes"/>
      <point x="2363" y="195" type="line" smooth="yes"/>
      <point x="2363" y="78.7916"/>
      <point x="2482.07" y="0"/>
    </contour>
    <contour>
      <point x="2657" y="30" type="line"/>
      <point x="2657" y="30"/>
      <point x="2657" y="30"/>
      <point x="2657" y="30" type="qcurve"/>
      <point x="2657" y="755" type="line"/>
      <point x="2657" y="755"/>
      <point x="2657" y="755"/>
      <point x="2657" y="755" type="qcurve"/>
      <point x="3369" y="755" type="line"/>
      <point x="3369" y="755"/>
      <point x="3369" y="755"/>
      <point x="3369" y="755" type="qcurve"/>
      <point x="3369" y="30" type="line"/>
      <point x="3369" y="30"/>
      <point x="3369" y="30"/>
      <point x="3369" y="30" type="qcurve"/>
    </contour>
  </outline>
</glyph>
<glyph name="parenright" format="2">
  <advance width="1000"/>
  <unicode hex="0029"/>
  <outline>
    <contour>
      <point x="120" y="1500" type="line"/>
      <point x="187.875" y="1449.75"/>
      <point x="261.406" y="1369.25"/>
      <point x="295.344" y="1202.75"/>
      <point x="301" y="897.25"/>
      <point x="301" y="622" type="qcurve" smooth="yes"/>
      <point x="301" y="346.75"/>
      <point x="295.344" y="41.25"/>
      <point x="261.406" y="-125.25"/>
      <point x="187.875" y="-205.75"/>
      <point x="120" y="-256" type="qcurve"/>
      <point x="168" y="-256" type="line"/>
      <point x="292.875" y="-182.125"/>
      <point x="497.531" y="2.4375"/>
      <point x="643.219" y="222.562"/>
      <point x="723" y="477.625"/>
      <point x="723" y="622" type="qcurve" smooth="yes"/>
      <point x="723" y="912.521"/>
      <point x="419.282" y="1350.59"/>
      <point x="168" y="1500" type="qcurve"/>
    </contour>
  </outline>
</glyph>
<glyph name="plus" format="2">
  <advance width="2086"/>
  <unicode hex="002B"/>
  <outline>
    <contour>
      <point x="1826" y="605" type="line"/>
      <point x="1063" y="605" type="line"/>
      <point x="1063" y="1168" type="line"/>
      <point x="1023" y="1168" type="line"/>
      <point x="1023" y="605" type="line"/>
      <point x="260" y="605" type="line"/>
      <point x="260" y="569" type="line"/>
      <point x="1023" y="569" type="line"/>
      <point x="1023" y="0" type="line"/>
      <point x="1063" y="0" type="line"/>
      <point x="1063" y="569" type="line"/>
      <point x="1826" y="569" type="line"/>
    </contour>
  </outline>
</glyph>
<glyph name="less" format="2">
  <advance width="2086"/>
  <unicode hex="003C"/>
  <outline>
    <contour>
      <point x="1850" y="0" type="line"/>
      <point x="1850" y="40" type="line"/>
      <point x="296" y="585" type="line"/>
      <point x="1850" y="1129" type="line"/>
      <point x="1850" y="1168" type="line"/>
      <point x="236" y="602" type="line"/>
      <point x="236" y="566" type="line"/>
    </contour>
  </outline>
</glyph>
<glyph name="J" format="2">
  <advance width="2966"/>
  <unicode hex="004A"/>
  <anchor x="2295" y="1550" name="top"/>
  <anchor x="1423" y="-150" name="bottom"/>
  <outline>
    <contour>
      <point x="2581" y="1400" type="line"/>
      <point x="2009" y="1400" type="line"/>
      <point x="2009" y="36" type="line"/>
      <point x="2009" y="36"/>
      <point x="2009" y="36"/>
      <point x="2009" y="36" type="qcurve"/>
      <point x="757" y="36" type="line"/>
      <point x="757" y="36"/>
      <point x="757" y="36"/>
      <point x="757" y="36" type="qcurve"/>
      <point x="757" y="740" type="line"/>
      <point x="185" y="634" type="line"/>
      <point x="185" y="334" type="line" smooth="yes"/>
      <point x="185" y="133"/>
      <point x="410" y="0"/>
      <point x="599" y="0" type="qcurve" smooth="yes"/>
      <point x="2169" y="0" type="line" smooth="yes"/>
      <point x="2358" y="0"/>
      <point x="2581" y="133"/>
      <point x="2581" y="334" type="qcurve" smooth="yes"/>
    </contour>
  </outline>
</glyph>
<glyph name="N" format="2">
  <advance width="3148"/>
  <unicode hex="004E"/>
  <anchor x="1574" y="1550" name="top"/>
  <anchor x="1574" y="-150" name="bottom"/>
  <outline>
    <contour>
      <point x="400" y="0" type="line"/>
      <point x="436" y="0" type="line"/>
      <point x="436" y="843" type="line"/>
      <point x="2572" y="0" type="line"/>
      <point x="2748" y="0" type="line"/>
      <point x="2748" y="1400" type="line"/>
      <point x="2712" y="1400" type="line"/>
      <point x="2712" y="557" type="line"/>
      <point x="576" y="1400" type="line"/>
      <point x="400" y="1400" type="line"/>
    </contour>
  </outline>
</glyph>
<glyph name="R" format="2">
  <advance width="3418"/>
  <unicode hex="0052"/>
  <anchor x="1709" y="-150" name="bottom"/>
  <anchor x="1709" y="1550" name="top"/>
  <outline>
    <contour>
      <point x="400" y="0" type="line"/>
      <point x="972" y="0" type="line"/>
      <point x="972" y="498" type="line"/>
      <point x="1559" y="498" type="line"/>
      <point x="2304" y="0" type="line"/>
      <point x="3168" y="0" type="line"/>
      <point x="2336" y="498" type="line"/>
      <point x="2702" y="498" type="line" smooth="yes"/>
      <point x="2891" y="498"/>
      <point x="3116" y="631"/>
      <point x="3116" y="832" type="qcurve" smooth="yes"/>
      <point x="3116" y="1066" type="line" smooth="yes"/>
      <point x="3116" y="1267"/>
      <point x="2891" y="1400"/>
      <point x="2702" y="1400" type="qcurve" smooth="yes"/>
      <point x="400" y="1400" type="line"/>
    </contour>
    <contour>
      <point x="972" y="534" type="line"/>
      <point x="972" y="1364" type="line"/>
      <point x="2312" y="1364" type="line" smooth="yes"/>
      <point x="2426.7" y="1364"/>
      <point x="2544" y="1254.55"/>
      <point x="2544" y="1164" type="qcurve" smooth="yes"/>
      <point x="2544" y="734" type="line" smooth="yes"/>
      <point x="2544" y="643.448"/>
      <point x="2426.7" y="534"/>
      <point x="2312" y="534" type="qcurve" smooth="yes"/>
    </contour>
  </outline>
</glyph>
<glyph name="Y" format="2">
  <advance width="2706"/>
  <unicode hex="0059"/>
  <anchor x="1473" y="1550" name="top"/>
  <anchor x="1460" y="-150" name="bottom"/>
  <outline>
    <contour>
      <point x="1174" y="0" type="line"/>
      <point x="1746" y="0" type="line"/>
      <point x="1746" y="641" type="line"/>
      <point x="2700" y="1400" type="line"/>
      <point x="2642" y="1400" type="line"/>
      <point x="1730" y="674" type="line"/>
      <point x="835" y="1400" type="line"/>
      <point x="6" y="1400" type="line"/>
      <point x="1174" y="472" type="line"/>
    </contour>
  </outline>
  <guideline angle="90" color="1,0,0,1" x="1356" y="0"/>
</glyph>
<glyph name="bracketleft" format="2">
  <advance width="1492"/>
  <unicode hex="005B"/>
  <outline>
    <contour>
      <point x="400" y="-256" type="line"/>
      <point x="1292" y="-256" type="line"/>
      <point x="1292" y="-224" type="line"/>
      <point x="840" y="-224" type="line"/>
      <point x="840" y="1416" type="line"/>
      <point x="1292" y="1416" type="line"/>
      <point x="1292" y="1448" type="line"/>
      <point x="400" y="1448" type="line"/>
    </contour>
  </outline>
</glyph>
<glyph name="bracketright" format="2">
  <advance width="1492"/>
  <unicode hex="005D"/>
  <outline>
    <contour>
      <point x="1092" y="1448" type="line"/>
      <point x="200" y="1448" type="line"/>
      <point x="200" y="1416" type="line"/>
      <point x="652" y="1416" type="line"/>
      <point x="652" y="-224" type="line"/>
      <point x="200" y="-224" type="line"/>
      <point x="200" y="-256" type="line"/>
      <point x="1092" y="-256" type="line"/>
    </contour>
  </outline>
</glyph>
<glyph name="j" format="2">
  <advance width="1164"/>
  <unicode hex="006A"/>
  <anchor x="596" y="1174" name="top"/>
  <outline>
    <contour>
      <point x="-658" y="-396" type="line"/>
      <point x="-648" y="-428" type="line"/>
      <point x="598" y="-428" type="line" smooth="yes"/>
      <point x="656.5" y="-428"/>
      <point x="752.375" y="-381.25"/>
      <point x="820.625" y="-295.75"/>
      <point x="858" y="-175.5"/>
      <point x="858" y="-102" type="qcurve" smooth="yes"/>
      <point x="858" y="1024" type="line"/>
      <point x="334" y="1024" type="line"/>
      <point x="334" y="-396" type="line"/>
      <point x="334" y="-396"/>
      <point x="334" y="-396"/>
      <point x="334" y="-396" type="qcurve"/>
    </contour>
    <contour>
      <point x="320" y="1232" type="line" smooth="yes"/>
      <point x="320" y="1150.5"/>
      <point x="348.503" y="1122"/>
      <point x="430" y="1122" type="qcurve" smooth="yes"/>
      <point x="762" y="1122" type="line" smooth="yes"/>
      <point x="843.497" y="1122"/>
      <point x="872" y="1150.5"/>
      <point x="872" y="1232" type="qcurve" smooth="yes"/>
      <point x="872" y="1364" type="line" smooth="yes"/>
      <point x="872" y="1443.99"/>
      <point x="843.497" y="1472"/>
      <point x="762" y="1472" type="qcurve" smooth="yes"/>
      <point x="430" y="1472" type="line" smooth="yes"/>
      <point x="348.503" y="1472"/>
      <point x="320" y="1443.99"/>
      <point x="320" y="1364" type="qcurve" smooth="yes"/>
    </contour>
  </outline>
</glyph>
<glyph name="m" format="2">
  <advance width="3408"/>
  <unicode hex="006D"/>
  <anchor x="1704" y="1174" name="top"/>
  <anchor x="1704" y="-150" name="bottom"/>
  <outline>
    <contour>
      <point x="320" y="0" type="line"/>
      <point x="844" y="0" type="line"/>
      <point x="844" y="992" type="line"/>
      <point x="1448" y="992" type="line"/>
      <point x="1448" y="0" type="line"/>
      <point x="1972" y="0" type="line"/>
      <point x="1972" y="992" type="line"/>
      <point x="2576" y="992" type="line"/>
      <point x="2576" y="992"/>
      <point x="2576" y="992"/>
      <point x="2576" y="992" type="qcurve"/>
      <point x="2576" y="0" type="line"/>
      <point x="3100" y="0" type="line"/>
      <point x="3100" y="724" type="line" smooth="yes"/>
      <point x="3100" y="878.5"/>
      <point x="2929" y="1024"/>
      <point x="2734" y="1024" type="qcurve" smooth="yes"/>
      <point x="1964" y="1024" type="line" smooth="yes"/>
      <point x="1937.59" y="1024"/>
      <point x="1899.56" y="1009.83"/>
      <point x="1889" y="997" type="qcurve"/>
      <point x="1849.01" y="1010.58"/>
      <point x="1750.37" y="1024"/>
      <point x="1690" y="1024" type="qcurve" smooth="yes"/>
      <point x="920" y="1024" type="line" smooth="yes"/>
      <point x="892.834" y="1024"/>
      <point x="854.564" y="1009.58"/>
      <point x="844" y="996" type="qcurve"/>
      <point x="844" y="1024" type="line"/>
      <point x="320" y="1024" type="line"/>
    </contour>
  </outline>
</glyph>
<glyph name="v" format="2">
  <advance width="1870"/>
  <unicode hex="0076"/>
  <anchor x="935" y="1174" name="top"/>
  <anchor x="935" y="-150" name="bottom"/>
  <outline>
    <contour>
      <point x="830" y="0" type="line"/>
      <point x="1060" y="0" type="line"/>
      <point x="1870" y="1024" type="line"/>
      <point x="1829" y="1024" type="line"/>
      <point x="1237" y="275" type="line"/>
      <point x="644" y="1024" type="line"/>
      <point x="0" y="1024" type="line"/>
    </contour>
  </outline>
</glyph>
<glyph name="z" format="2">
  <advance width="2051"/>
  <unicode hex="007A"/>
  <anchor x="1026" y="1174" name="top"/>
  <anchor x="1026" y="-150" name="bottom"/>
  <outline>
    <contour>
      <point x="148" y="0" type="line"/>
      <point x="1903" y="0" type="line"/>
      <point x="1903" y="32" type="line"/>
      <point x="845" y="32" type="line"/>
      <point x="848" y="24" type="line"/>
      <point x="1877" y="998" type="line"/>
      <point x="1877" y="1024" type="line"/>
      <point x="209" y="1024" type="line"/>
      <point x="209" y="992" type="line"/>
      <point x="1180" y="992" type="line"/>
      <point x="1177" y="1000" type="line"/>
      <point x="148" y="26" type="line"/>
    </contour>
  </outline>
</glyph>
<glyph name="exclamdown" format="2">
  <advance width="1336"/>
  <unicode hex="00A1"/>
  <outline>
    <contour>
      <point x="953" y="883" type="line" smooth="yes"/>
      <point x="953" y="973.552"/>
      <point x="902.552" y="1024"/>
      <point x="812" y="1024" type="qcurve" smooth="yes"/>
      <point x="524" y="1024" type="line" smooth="yes"/>
      <point x="434" y="1024"/>
      <point x="383" y="973"/>
      <point x="383" y="883" type="qcurve" smooth="yes"/>
      <point x="383" y="794" type="line" smooth="yes"/>
      <point x="383" y="704.203"/>
      <point x="434.448" y="654"/>
      <point x="525" y="654" type="qcurve" smooth="yes"/>
      <point x="812" y="654" type="line" smooth="yes"/>
      <point x="902" y="654"/>
      <point x="953" y="704.25"/>
      <point x="953" y="792" type="qcurve" smooth="yes"/>
    </contour>
    <contour>
      <point x="686" y="556" type="line"/>
      <point x="650" y="556" type="line"/>
      <point x="360" y="-382" type="line"/>
      <point x="976" y="-382" type="line"/>
    </contour>
  </outline>
</glyph>
<glyph name="currency" format="2">
  <advance width="2894"/>
  <unicode hex="00A4"/>
  <outline>
    <contour>
      <point x="218" y="67" type="line"/>
      <point x="434" y="230" type="line"/>
      <point x="470.975" y="208.871"/>
      <point x="571.595" y="188"/>
      <point x="638" y="188" type="qcurve" smooth="yes"/>
      <point x="2262" y="188" type="line" smooth="yes"/>
      <point x="2326.9" y="188"/>
      <point x="2426.78" y="207.626"/>
      <point x="2463" y="228" type="qcurve"/>
      <point x="2676" y="67" type="line"/>
      <point x="2698" y="94" type="line"/>
      <point x="2493" y="249" type="line"/>
      <point x="2532.24" y="280.693"/>
      <point x="2568" y="381.068"/>
      <point x="2568" y="452" type="qcurve" smooth="yes"/>
      <point x="2568" y="958" type="line" smooth="yes"/>
      <point x="2568" y="1024.4"/>
      <point x="2531.48" y="1120.06"/>
      <point x="2493" y="1151" type="qcurve"/>
      <point x="2698" y="1305" type="line"/>
      <point x="2676" y="1333" type="line"/>
      <point x="2462" y="1172" type="line"/>
      <point x="2425.78" y="1192.37"/>
      <point x="2326.14" y="1212"/>
      <point x="2262" y="1212" type="qcurve" smooth="yes"/>
      <point x="638" y="1212" type="line" smooth="yes"/>
      <point x="572.35" y="1212"/>
      <point x="470.975" y="1191.13"/>
      <point x="434" y="1170" type="qcurve"/>
      <point x="218" y="1333" type="line"/>
      <point x="196" y="1305" type="line"/>
      <point x="404" y="1149" type="line"/>
      <point x="367.025" y="1117.31"/>
      <point x="332" y="1022.9"/>
      <point x="332" y="958" type="qcurve" smooth="yes"/>
      <point x="332" y="452" type="line" smooth="yes"/>
      <point x="332" y="382.577"/>
      <point x="367.025" y="283.448"/>
      <point x="404" y="251" type="qcurve"/>
      <point x="196" y="94" type="line"/>
    </contour>
    <contour>
      <point x="856" y="220" type="line"/>
      <point x="856" y="220"/>
      <point x="856" y="220"/>
      <point x="856" y="220" type="qcurve"/>
      <point x="856" y="1180" type="line"/>
      <point x="856" y="1180"/>
      <point x="856" y="1180"/>
      <point x="856" y="1180" type="qcurve"/>
      <point x="2044" y="1180" type="line"/>
      <point x="2044" y="1180"/>
      <point x="2044" y="1180"/>
      <point x="2044" y="1180" type="qcurve"/>
      <point x="2044" y="220" type="line"/>
      <point x="2044" y="220"/>
      <point x="2044" y="220"/>
      <point x="2044" y="220" type="qcurve"/>
    </contour>
  </outline>
</glyph>
<glyph name="yen" format="2">
  <advance width="2706"/>
  <unicode hex="00A5"/>
  <outline>
    <contour>
      <point x="1067" y="0" type="line"/>
      <point x="1639" y="0" type="line"/>
      <point x="1639" y="434" type="line"/>
      <point x="2257" y="434" type="line"/>
      <point x="2257" y="470" type="line"/>
      <point x="1639" y="470" type="line"/>
      <point x="1639" y="644" type="line"/>
      <point x="2257" y="644" type="line"/>
      <point x="2257" y="680" type="line"/>
      <point x="1666" y="680" type="line"/>
      <point x="2700" y="1400" type="line"/>
      <point x="2642" y="1400" type="line"/>
      <point x="1624" y="694" type="line"/>
      <point x="795" y="1400" type="line"/>
      <point x="6" y="1400" type="line"/>
      <point x="847" y="680" type="line"/>
      <point x="448" y="680" type="line"/>
      <point x="448" y="644" type="line"/>
      <point x="889" y="644" type="line"/>
      <point x="1067" y="492" type="line"/>
      <point x="1067" y="470" type="line"/>
      <point x="448" y="470" type="line"/>
      <point x="448" y="434" type="line"/>
      <point x="1067" y="434" type="line"/>
    </contour>
  </outline>
</glyph>
<glyph name="brokenbar" format="2">
  <advance width="1200"/>
  <unicode hex="00A6"/>
  <outline>
    <contour>
      <point x="400" y="1520" type="line"/>
      <point x="400" y="720" type="line"/>
      <point x="800" y="720" type="line"/>
      <point x="800" y="1520" type="line"/>
    </contour>
    <contour>
      <point x="400" y="320" type="line"/>
      <point x="400" y="-480" type="line"/>
      <point x="800" y="-480" type="line"/>
      <point x="800" y="320" type="line"/>
    </contour>
  </outline>
</glyph>
<glyph name="registered" format="2">
  <advance width="1265"/>
  <unicode hex="00AE"/>
  <outline>
    <contour>
      <point x="148" y="1057" type="line" smooth="yes"/>
      <point x="148" y="987.577"/>
      <point x="223.331" y="914"/>
      <point x="292" y="914" type="qcurve" smooth="yes"/>
      <point x="972" y="914" type="line" smooth="yes"/>
      <point x="1041.42" y="914"/>
      <point x="1117" y="987.577"/>
      <point x="1117" y="1057" type="qcurve" smooth="yes"/>
      <point x="1117" y="1410" type="line" smooth="yes"/>
      <point x="1117" y="1478.67"/>
      <point x="1041.42" y="1552"/>
      <point x="972" y="1552" type="qcurve" smooth="yes"/>
      <point x="292" y="1552" type="line" smooth="yes"/>
      <point x="223.331" y="1552"/>
      <point x="148" y="1478.67"/>
      <point x="148" y="1410" type="qcurve" smooth="yes"/>
    </contour>
    <contour>
      <point x="235" y="1395" type="line" smooth="yes"/>
      <point x="235" y="1434.99"/>
      <point x="272.761" y="1476"/>
      <point x="312" y="1476" type="qcurve" smooth="yes"/>
      <point x="952" y="1476" type="line" smooth="yes"/>
      <point x="991.994" y="1476"/>
      <point x="1030" y="1434.99"/>
      <point x="1030" y="1395" type="qcurve" smooth="yes"/>
      <point x="1030" y="1072" type="line" smooth="yes"/>
      <point x="1030" y="1032.01"/>
      <point x="1005.99" y="990"/>
      <point x="966" y="990" type="qcurve" smooth="yes"/>
      <point x="312" y="990" type="line" smooth="yes"/>
      <point x="272.761" y="990"/>
      <point x="235" y="1032.01"/>
      <point x="235" y="1072" type="qcurve" smooth="yes"/>
    </contour>
    <contour>
      <point x="315" y="1400" type="line"/>
      <point x="315" y="1060" type="line"/>
      <point x="442" y="1060" type="line"/>
      <point x="442" y="1189" type="line"/>
      <point x="568" y="1189" type="line"/>
      <point x="783" y="1060" type="line"/>
      <point x="974" y="1060" type="line"/>
      <point x="738" y="1189" type="line"/>
      <point x="859" y="1189" type="line" smooth="yes"/>
      <point x="903.521" y="1189"/>
      <point x="957" y="1220.71"/>
      <point x="957" y="1269" type="qcurve" smooth="yes"/>
      <point x="957" y="1322" type="line" smooth="yes"/>
      <point x="957" y="1370.29"/>
      <point x="903.521" y="1400"/>
      <point x="859" y="1400" type="qcurve" smooth="yes"/>
    </contour>
    <contour>
      <point x="442" y="1221" type="line"/>
      <point x="442" y="1368" type="line"/>
      <point x="813" y="1368" type="line" smooth="yes"/>
      <point x="822.055" y="1368"/>
      <point x="829" y="1359.55"/>
      <point x="829" y="1352" type="qcurve" smooth="yes"/>
      <point x="829" y="1237" type="line" smooth="yes"/>
      <point x="829" y="1229.45"/>
      <point x="822.055" y="1221"/>
      <point x="813" y="1221" type="qcurve" smooth="yes"/>
    </contour>
  </outline>
</glyph>
<glyph name="macron" format="2">
  <advance width="1080"/>
  <unicode hex="00AF"/>
  <outline>
    <contour>
      <point x="10" y="1258" type="line"/>
      <point x="1070" y="1258" type="line"/>
      <point x="1070" y="1290" type="line"/>
      <point x="10" y="1290" type="line"/>
    </contour>
  </outline>
</glyph>
<glyph name="uni00B5" format="2">
  <advance width="2483"/>
  <unicode hex="00B5"/>
  <outline>
    <contour>
      <point x="320" y="-428" type="line"/>
      <point x="844" y="-368" type="line"/>
      <point x="844" y="55" type="line"/>
      <point x="862.865" y="27.8344"/>
      <point x="926.798" y="0"/>
      <point x="960" y="0" type="qcurve" smooth="yes"/>
      <point x="1523" y="0" type="line" smooth="yes"/>
      <point x="1556.2" y="0"/>
      <point x="1620.13" y="27.8344"/>
      <point x="1639" y="55" type="qcurve"/>
      <point x="1639" y="0" type="line"/>
      <point x="2163" y="0" type="line"/>
      <point x="2163" y="1024" type="line"/>
      <point x="1639" y="1024" type="line"/>
      <point x="1639" y="160" type="line" smooth="yes"/>
      <point x="1639" y="95.1044"/>
      <point x="1569.79" y="32"/>
      <point x="1523" y="32" type="qcurve" smooth="yes"/>
      <point x="960" y="32" type="line" smooth="yes"/>
      <point x="913.215" y="32"/>
      <point x="844" y="95.1044"/>
      <point x="844" y="160" type="qcurve" smooth="yes"/>
      <point x="844" y="1024" type="line"/>
      <point x="320" y="1024" type="line"/>
    </contour>
  </outline>
</glyph>
<glyph name="cedilla" format="2">
  <advance width="513"/>
  <unicode hex="00B8"/>
  <outline>
    <contour>
      <point x="204" y="-438" type="qcurve" smooth="yes"/>
      <point x="237.75" y="-438"/>
      <point x="339.625" y="-425.656"/>
      <point x="434.875" y="-386.094"/>
      <point x="503" y="-311.875"/>
      <point x="503" y="-250" type="qcurve" smooth="yes"/>
      <point x="503" y="-196.75"/>
      <point x="451.375" y="-130.812"/>
      <point x="371.125" y="-93.6875"/>
      <point x="273.75" y="-79.5"/>
      <point x="228" y="-78" type="qcurve"/>
      <point x="263" y="0" type="line"/>
      <point x="141" y="0" type="line"/>
      <point x="90" y="-113" type="line"/>
      <point x="107.356" y="-106.963"/>
      <point x="139.417" y="-102"/>
      <point x="153" y="-102" type="qcurve" smooth="yes"/>
      <point x="205.067" y="-102"/>
      <point x="275" y="-166.976"/>
      <point x="275" y="-253" type="qcurve" smooth="yes"/>
      <point x="275" y="-338.27"/>
      <point x="205.331" y="-405"/>
      <point x="151" y="-405" type="qcurve" smooth="yes"/>
      <point x="115.534" y="-405"/>
      <point x="54.6196" y="-379.62"/>
      <point x="35" y="-360" type="qcurve"/>
      <point x="10" y="-385" type="line"/>
      <point x="44.7116" y="-409.147"/>
      <point x="124.012" y="-438"/>
    </contour>
  </outline>
</glyph>
<glyph name="onesuperior" format="2">
  <advance width="978"/>
  <unicode hex="00B9"/>
  <outline>
    <contour>
      <point x="364" y="950" type="line"/>
      <point x="658" y="950" type="line"/>
      <point x="658" y="1747" type="line"/>
      <point x="96" y="1684" type="line"/>
      <point x="96" y="1654" type="line"/>
      <point x="364" y="1683" type="line"/>
    </contour>
  </outline>
  <guideline angle="90" color="0.4,0.4,0.4,1" name="halfwidth" x="489" y="0"/>
</glyph>
<glyph name="guillemotright" format="2">
  <advance width="1575"/>
  <unicode hex="00BB"/>
  <outline>
    <contour>
      <point x="787" y="894" type="line"/>
      <point x="746" y="894" type="line"/>
      <point x="1106" y="512" type="line"/>
      <point x="746" y="130" type="line"/>
      <point x="787" y="130" type="line"/>
      <point x="1447" y="512" type="line"/>
    </contour>
    <contour>
      <point x="174" y="894" type="line"/>
      <point x="133" y="894" type="line"/>
      <point x="493" y="512" type="line"/>
      <point x="133" y="130" type="line"/>
      <point x="174" y="130" type="line"/>
      <point x="834" y="512" type="line"/>
    </contour>
  </outline>
</glyph>
<glyph name="onequarter" format="2">
  <advance width="2704"/>
  <unicode hex="00BC"/>
  <outline>
    <contour>
      <point x="364" y="614" type="line"/>
      <point x="658" y="614" type="line"/>
      <point x="658" y="1411" type="line"/>
      <point x="96" y="1348" type="line"/>
      <point x="96" y="1318" type="line"/>
      <point x="364" y="1347" type="line"/>
    </contour>
    <contour>
      <point x="1660" y="1400" type="line"/>
      <point x="260" y="0" type="line"/>
      <point x="303" y="0" type="line"/>
      <point x="1703" y="1400" type="line"/>
    </contour>
    <contour>
      <point x="1041" y="216" type="line"/>
      <point x="1956" y="216" type="line"/>
      <point x="1956" y="0" type="line"/>
      <point x="2250" y="0" type="line"/>
      <point x="2250" y="216" type="line"/>
      <point x="2496" y="216" type="line"/>
      <point x="2496" y="246" type="line"/>
      <point x="2250" y="246" type="line"/>
      <point x="2250" y="784" type="line"/>
      <point x="2077" y="784" type="line"/>
      <point x="1041" y="246" type="line"/>
    </contour>
    <contour>
      <point x="1106" y="246" type="line"/>
      <point x="1956" y="687" type="line"/>
      <point x="1956" y="246" type="line"/>
    </contour>
  </outline>
  <guideline angle="90" color="0.4,0.4,0.4,1" name="halfwidth" x="1352" y="0"/>
</glyph>
<glyph name="questiondown" format="2">
  <advance width="2325"/>
  <unicode hex="00BF"/>
  <outline>
    <contour>
      <point x="1280" y="556" type="line"/>
      <point x="1240" y="556" type="line"/>
      <point x="1240" y="458" type="line" smooth="yes"/>
      <point x="1240" y="396.877"/>
      <point x="1168.67" y="330.509"/>
      <point x="1100" y="329" type="qcurve" smooth="yes"/>
      <point x="594" y="320" type="line" smooth="yes"/>
      <point x="444.589" y="316.982"/>
      <point x="320" y="141.472"/>
      <point x="320" y="23" type="qcurve" smooth="yes"/>
      <point x="320" y="-87" type="line" smooth="yes"/>
      <point x="320" y="-246.975"/>
      <point x="493.503" y="-382"/>
      <point x="698" y="-382" type="qcurve" smooth="yes"/>
      <point x="1744" y="-382" type="line" smooth="yes"/>
      <point x="1948.5" y="-382"/>
      <point x="2125" y="-244.221"/>
      <point x="2125" y="-85" type="qcurve" smooth="yes"/>
      <point x="2125" y="30" type="line"/>
      <point x="1590" y="104" type="line"/>
      <point x="1590" y="-346" type="line"/>
      <point x="1590" y="-346"/>
      <point x="1590" y="-346"/>
      <point x="1590" y="-346" type="qcurve"/>
      <point x="845" y="-346" type="line"/>
      <point x="845" y="-346"/>
      <point x="845" y="-346"/>
      <point x="845" y="-346" type="qcurve"/>
      <point x="845" y="289" type="line"/>
      <point x="845" y="289"/>
      <point x="845" y="289"/>
      <point x="845" y="289" type="qcurve"/>
      <point x="1100" y="293" type="line" smooth="yes"/>
      <point x="1195.83" y="294.509"/>
      <point x="1280" y="388.558"/>
      <point x="1280" y="461" type="qcurve" smooth="yes"/>
    </contour>
    <contour>
      <point x="1545" y="883" type="line" smooth="yes"/>
      <point x="1545" y="973.552"/>
      <point x="1494.55" y="1024"/>
      <point x="1404" y="1024" type="qcurve" smooth="yes"/>
      <point x="1116" y="1024" type="line" smooth="yes"/>
      <point x="1026" y="1024"/>
      <point x="975" y="973"/>
      <point x="975" y="883" type="qcurve" smooth="yes"/>
      <point x="975" y="794" type="line" smooth="yes"/>
      <point x="975" y="704.203"/>
      <point x="1026.45" y="654"/>
      <point x="1117" y="654" type="qcurve" smooth="yes"/>
      <point x="1404" y="654" type="line" smooth="yes"/>
      <point x="1494" y="654"/>
      <point x="1545" y="704.25"/>
      <point x="1545" y="792" type="qcurve" smooth="yes"/>
    </contour>
  </outline>
</glyph>
<glyph name="Ccedilla" format="2">
  <advance width="3102"/>
  <unicode hex="00C7"/>
  <anchor x="1572" y="1550" name="top"/>
  <anchor x="1572" y="-150" name="bottom"/>
  <outline>
    <contour>
      <point x="370" y="1066" type="qcurve" smooth="yes"/>
      <point x="370" y="346" type="line" smooth="yes"/>
      <point x="370" y="139.24"/>
      <point x="582.786" y="0"/>
      <point x="782" y="0" type="qcurve" smooth="yes"/>
      <point x="2358" y="0" type="line" smooth="yes"/>
      <point x="2557.21" y="0"/>
      <point x="2772" y="137.73"/>
      <point x="2772" y="346" type="qcurve" smooth="yes"/>
      <point x="2772" y="528" type="line"/>
      <point x="2200" y="640" type="line"/>
      <point x="2200" y="36" type="line"/>
      <point x="2200" y="36"/>
      <point x="2200" y="36"/>
      <point x="2200" y="36" type="qcurve"/>
      <point x="942" y="36" type="line"/>
      <point x="942" y="36"/>
      <point x="942" y="36"/>
      <point x="942" y="36" type="qcurve"/>
      <point x="942" y="1364" type="line"/>
      <point x="942" y="1364"/>
      <point x="942" y="1364"/>
      <point x="942" y="1364" type="qcurve"/>
      <point x="2194" y="1364" type="line"/>
      <point x="2194" y="1364"/>
      <point x="2194" y="1364"/>
      <point x="2194" y="1364" type="qcurve"/>
      <point x="2194" y="786" type="line"/>
      <point x="2766" y="892" type="line"/>
      <point x="2766" y="1066" type="line" smooth="yes"/>
      <point x="2766" y="1267"/>
      <point x="2541" y="1400"/>
      <point x="2352" y="1400" type="qcurve" smooth="yes"/>
      <point x="782" y="1400" type="line" smooth="yes"/>
      <point x="593" y="1400"/>
      <point x="370" y="1267"/>
    </contour>
    <contour>
      <point x="1568" y="-438" type="qcurve" smooth="yes"/>
      <point x="1604" y="-438"/>
      <point x="1712.38" y="-425.656"/>
      <point x="1813.62" y="-386.094"/>
      <point x="1886" y="-311.875"/>
      <point x="1886" y="-250" type="qcurve" smooth="yes"/>
      <point x="1886" y="-196.75"/>
      <point x="1834.31" y="-131.375"/>
      <point x="1750.69" y="-94.625"/>
      <point x="1645" y="-80.25"/>
      <point x="1591" y="-78" type="qcurve"/>
      <point x="1626" y="0" type="line"/>
      <point x="1492" y="0" type="line"/>
      <point x="1441" y="-113" type="line"/>
      <point x="1453.83" y="-107.718"/>
      <point x="1487.13" y="-102"/>
      <point x="1506" y="-102" type="qcurve" smooth="yes"/>
      <point x="1548.26" y="-102"/>
      <point x="1626" y="-166.221"/>
      <point x="1626" y="-253" type="qcurve" smooth="yes"/>
      <point x="1626" y="-339.024"/>
      <point x="1553.56" y="-405"/>
      <point x="1503" y="-405" type="qcurve" smooth="yes"/>
      <point x="1469.04" y="-405"/>
      <point x="1408.62" y="-379.62"/>
      <point x="1389" y="-360" type="qcurve"/>
      <point x="1363" y="-385" type="line"/>
      <point x="1397.71" y="-409.147"/>
      <point x="1488.01" y="-438"/>
    </contour>
  </outline>
</glyph>
<glyph name="Icircumflex" format="2">
  <advance width="1372"/>
  <unicode hex="00CE"/>
  <anchor x="686" y="1880" name="top"/>
  <anchor x="686" y="-150" name="bottom"/>
  <anchor x="440" y="0" name="ogonek"/>
  <anchor x="1599" y="1600" name="topright"/>
  <outline>
    <contour>
      <point x="400" y="0" type="line"/>
      <point x="972" y="0" type="line"/>
      <point x="972" y="1400" type="line"/>
      <point x="400" y="1400" type="line"/>
    </contour>
    <contour>
      <point x="84" y="1500" type="line"/>
      <point x="136" y="1500" type="line"/>
      <point x="531" y="1766" type="line"/>
      <point x="902" y="1500" type="line"/>
      <point x="1599" y="1500" type="line"/>
      <point x="1113" y="1800" type="line"/>
      <point x="528" y="1800" type="line"/>
    </contour>
  </outline>
</glyph>
<glyph name="Odieresis" format="2">
  <advance width="3404"/>
  <unicode hex="00D6"/>
  <anchor x="1712" y="1938" name="top"/>
  <anchor x="1712" y="-150" name="bottom"/>
  <anchor x="3044" y="1066" name="horn"/>
  <anchor x="1731" y="0" name="ogonek"/>
  <outline>
    <contour>
      <point x="370" y="1066" type="qcurve" smooth="yes"/>
      <point x="370" y="346" type="line" smooth="yes"/>
      <point x="370" y="139.24"/>
      <point x="582.786" y="0"/>
      <point x="782" y="0" type="qcurve" smooth="yes"/>
      <point x="2620" y="0" type="line" smooth="yes"/>
      <point x="2819.21" y="0"/>
      <point x="3034" y="137.73"/>
      <point x="3034" y="346" type="qcurve" smooth="yes"/>
      <point x="3034" y="1066" type="line" smooth="yes"/>
      <point x="3034" y="1267"/>
      <point x="2809" y="1400"/>
      <point x="2620" y="1400" type="qcurve" smooth="yes"/>
      <point x="782" y="1400" type="line" smooth="yes"/>
      <point x="593" y="1400"/>
      <point x="370" y="1267"/>
    </contour>
    <contour>
      <point x="942" y="1364" type="line"/>
      <point x="942" y="1364"/>
      <point x="942" y="1364"/>
      <point x="942" y="1364" type="qcurve"/>
      <point x="2462" y="1364" type="line"/>
      <point x="2462" y="1364"/>
      <point x="2462" y="1364"/>
      <point x="2462" y="1364" type="qcurve"/>
      <point x="2462" y="36" type="line"/>
      <point x="2462" y="36"/>
      <point x="2462" y="36"/>
      <point x="2462" y="36" type="qcurve"/>
      <point x="942" y="36" type="line"/>
      <point x="942" y="36"/>
      <point x="942" y="36"/>
      <point x="942" y="36" type="qcurve"/>
    </contour>
    <contour>
      <point x="1306" y="1488" type="qcurve" smooth="yes"/>
      <point x="1488" y="1488" type="line" smooth="yes"/>
      <point x="1569.5" y="1488"/>
      <point x="1598" y="1516.5"/>
      <point x="1598" y="1598" type="qcurve" smooth="yes"/>
      <point x="1598" y="1740" type="line" smooth="yes"/>
      <point x="1598" y="1819.99"/>
      <point x="1569.5" y="1848"/>
      <point x="1488" y="1848" type="qcurve" smooth="yes"/>
      <point x="1306" y="1848" type="line" smooth="yes"/>
      <point x="1224.5" y="1848"/>
      <point x="1196" y="1819.99"/>
      <point x="1196" y="1740" type="qcurve" smooth="yes"/>
      <point x="1196" y="1598" type="line" smooth="yes"/>
      <point x="1196" y="1516.5"/>
      <point x="1224.5" y="1488"/>
    </contour>
    <contour>
      <point x="1936" y="1488" type="qcurve" smooth="yes"/>
      <point x="2118" y="1488" type="line" smooth="yes"/>
      <point x="2199.5" y="1488"/>
      <point x="2228" y="1516.5"/>
      <point x="2228" y="1598" type="qcurve" smooth="yes"/>
      <point x="2228" y="1740" type="line" smooth="yes"/>
      <point x="2228" y="1819.99"/>
      <point x="2199.5" y="1848"/>
      <point x="2118" y="1848" type="qcurve" smooth="yes"/>
      <point x="1936" y="1848" type="line" smooth="yes"/>
      <point x="1854.5" y="1848"/>
      <point x="1826" y="1819.99"/>
      <point x="1826" y="1740" type="qcurve" smooth="yes"/>
      <point x="1826" y="1598" type="line" smooth="yes"/>
      <point x="1826" y="1516.5"/>
      <point x="1854.5" y="1488"/>
    </contour>
  </outline>
</glyph>
<glyph name="eth" format="2">
  <advance width="2584"/>
  <unicode hex="00F0"/>
  <outline>
    <contour>
      <point x="602" y="0" type="qcurve" smooth="yes"/>
      <point x="1926" y="0" type="line" smooth="yes"/>
      <point x="2088.99" y="0"/>
      <point x="2232" y="125.154"/>
      <point x="2232" y="264" type="qcurve" smooth="yes"/>
      <point x="2232" y="526" type="line" smooth="yes"/>
      <point x="2232" y="805.957"/>
      <point x="2029.9" y="1175.83"/>
      <point x="1842" y="1286" type="qcurve"/>
      <point x="2288" y="1351" type="line"/>
      <point x="2283" y="1381" type="line"/>
      <point x="1798" y="1311" type="line"/>
      <point x="1675.75" y="1373.63"/>
      <point x="1376.09" y="1445.17"/>
      <point x="1198" y="1458" type="qcurve"/>
      <point x="791" y="1310" type="line"/>
      <point x="891.362" y="1290.38"/>
      <point x="1070.26" y="1244.92"/>
      <point x="1151" y="1217" type="qcurve"/>
      <point x="670" y="1147" type="line"/>
      <point x="675" y="1117" type="line"/>
      <point x="1211" y="1195" type="line"/>
      <point x="1301.55" y="1159.53"/>
      <point x="1450.14" y="1075.31"/>
      <point x="1509" y="1024" type="qcurve"/>
      <point x="602" y="1024" type="line" smooth="yes"/>
      <point x="442.025" y="1024"/>
      <point x="296" y="901.3"/>
      <point x="296" y="770" type="qcurve" smooth="yes"/>
      <point x="296" y="264" type="line" smooth="yes"/>
      <point x="296" y="125.154"/>
      <point x="440.516" y="0"/>
    </contour>
    <contour>
      <point x="1543" y="992" type="line"/>
      <point x="1624.5" y="910.503"/>
      <point x="1708" y="703.81"/>
      <point x="1708" y="571" type="qcurve" smooth="yes"/>
      <point x="1708" y="32" type="line"/>
      <point x="1708" y="32"/>
      <point x="1708" y="32"/>
      <point x="1708" y="32" type="qcurve"/>
      <point x="820" y="32" type="line"/>
      <point x="820" y="32"/>
      <point x="820" y="32"/>
      <point x="820" y="32" type="qcurve"/>
      <point x="820" y="992" type="line"/>
      <point x="820" y="992"/>
      <point x="820" y="992"/>
      <point x="820" y="992" type="qcurve"/>
    </contour>
  </outline>
</glyph>
<glyph name="Aogonek" format="2">
  <advance width="2910"/>
  <unicode hex="0104"/>
  <anchor x="1448" y="1550" name="top"/>
  <anchor x="1380" y="-150" name="bottom"/>
  <anchor x="2116" y="0" name="ogonek_in"/>
  <outline>
    <contour>
      <point x="6" y="0" type="line"/>
      <point x="56" y="0" type="line"/>
      <point x="372" y="338" type="line"/>
      <point x="1808" y="338" type="line"/>
      <point x="2116" y="0" type="line"/>
      <point x="2904" y="0" type="line"/>
      <point x="1598" y="1400" type="line"/>
      <point x="1312" y="1400" type="line"/>
    </contour>
    <contour>
      <point x="405" y="374" type="line"/>
      <point x="1098" y="1116" type="line"/>
      <point x="1775" y="374" type="line"/>
    </contour>
    <contour>
      <point x="2299.38" y="-438" type="qcurve" smooth="yes"/>
      <point x="2384.04" y="-438"/>
      <point x="2512.63" y="-408.675"/>
      <point x="2573" y="-380" type="qcurve"/>
      <point x="2685" y="-134" type="line"/>
      <point x="2634.44" y="-159.656"/>
      <point x="2470.05" y="-190"/>
      <point x="2384.09" y="-190" type="qcurve" smooth="yes"/>
      <point x="2262.53" y="-190"/>
      <point x="2122" y="-128.267"/>
      <point x="2122" y="-73.7379" type="qcurve" smooth="yes"/>
      <point x="2122" y="-56.5799"/>
      <point x="2137.89" y="-21.1288"/>
      <point x="2156" y="0" type="qcurve"/>
      <point x="2116" y="0" type="line"/>
      <point x="2072.23" y="-51.3128"/>
      <point x="1967.77" y="-174.442"/>
      <point x="1924" y="-225" type="qcurve"/>
      <point x="1924" y="-322.343"/>
      <point x="2131.25" y="-438"/>
    </contour>
  </outline>
</glyph>
<glyph name="Cacute" format="2">
  <advance width="3102"/>
  <unicode hex="0106"/>
  <anchor x="1572" y="1550" name="top"/>
  <anchor x="1572" y="-150" name="bottom"/>
  <anchor x="1340" y="1550" name="topright"/>
  <outline>
    <contour>
      <point x="370" y="1066" type="qcurve" smooth="yes"/>
      <point x="370" y="346" type="line" smooth="yes"/>
      <point x="370" y="139.24"/>
      <point x="582.786" y="0"/>
      <point x="782" y="0" type="qcurve" smooth="yes"/>
      <point x="2358" y="0" type="line" smooth="yes"/>
      <point x="2557.21" y="0"/>
      <point x="2772" y="137.73"/>
      <point x="2772" y="346" type="qcurve" smooth="yes"/>
      <point x="2772" y="528" type="line"/>
      <point x="2200" y="640" type="line"/>
      <point x="2200" y="36" type="line"/>
      <point x="2200" y="36"/>
      <point x="2200" y="36"/>
      <point x="2200" y="36" type="qcurve"/>
      <point x="942" y="36" type="line"/>
      <point x="942" y="36"/>
      <point x="942" y="36"/>
      <point x="942" y="36" type="qcurve"/>
      <point x="942" y="1364" type="line"/>
      <point x="942" y="1364"/>
      <point x="942" y="1364"/>
      <point x="942" y="1364" type="qcurve"/>
      <point x="2194" y="1364" type="line"/>
      <point x="2194" y="1364"/>
      <point x="2194" y="1364"/>
      <point x="2194" y="1364" type="qcurve"/>
      <point x="2194" y="786" type="line"/>
      <point x="2766" y="892" type="line"/>
      <point x="2766" y="1066" type="line" smooth="yes"/>
      <point x="2766" y="1267"/>
      <point x="2541" y="1400"/>
      <point x="2352" y="1400" type="qcurve" smooth="yes"/>
      <point x="782" y="1400" type="line" smooth="yes"/>
      <point x="593" y="1400"/>
      <point x="370" y="1267"/>
    </contour>
    <contour>
      <point x="1290" y="1550" type="line"/>
      <point x="1362" y="1550" type="line"/>
      <point x="2370" y="1850" type="line"/>
      <point x="1569" y="1850" type="line"/>
    </contour>
  </outline>
</glyph>
<glyph name="dcaron" format="2">
  <advance width="2636"/>
  <unicode hex="010F"/>
  <anchor x="1306" y="1598" name="top"/>
  <anchor x="1306" y="-150" name="bottom"/>
  <anchor x="2316" y="1472" name="right"/>
  <outline>
    <contour>
      <point x="296" y="264" type="line" smooth="yes"/>
      <point x="296" y="125.154"/>
      <point x="440.516" y="0"/>
      <point x="602" y="0" type="qcurve" smooth="yes"/>
      <point x="1716" y="0" type="line" smooth="yes"/>
      <point x="1743.17" y="0"/>
      <point x="1781.44" y="14.4172"/>
      <point x="1792" y="28" type="qcurve"/>
      <point x="1792" y="0" type="line"/>
      <point x="2316" y="0" type="line"/>
      <point x="2316" y="1472" type="line"/>
      <point x="1792" y="1472" type="line"/>
      <point x="1792" y="1000" type="line"/>
      <point x="1785.96" y="1012.07"/>
      <point x="1747.69" y="1024"/>
      <point x="1716" y="1024" type="qcurve" smooth="yes"/>
      <point x="602" y="1024" type="line" smooth="yes"/>
      <point x="442.025" y="1024"/>
      <point x="296" y="901.3"/>
      <point x="296" y="770" type="qcurve" smooth="yes"/>
    </contour>
    <contour>
      <point x="1792" y="992" type="line"/>
      <point x="1792" y="32" type="line"/>
      <point x="820" y="32" type="line"/>
      <point x="820" y="32"/>
      <point x="820" y="32"/>
      <point x="820" y="32" type="qcurve"/>
      <point x="820" y="992" type="line"/>
      <point x="820" y="992"/>
      <point x="820" y="992"/>
      <point x="820" y="992" type="qcurve"/>
    </contour>
    <contour>
      <point x="2630" y="1170" type="line"/>
      <point x="2665" y="1177" type="line"/>
      <point x="2926" y="1472" type="line"/>
      <point x="2519" y="1472" type="line"/>
    </contour>
  </outline>
</glyph>
<glyph name="hbar" format="2">
  <advance width="2620"/>
  <unicode hex="0127"/>
  <anchor x="632" y="1622" name="top"/>
  <anchor x="1316" y="-150" name="bottom"/>
  <outline>
    <contour>
      <point x="370" y="0" type="line"/>
      <point x="894" y="0" type="line"/>
      <point x="894" y="992" type="line"/>
      <point x="1788" y="992" type="line"/>
      <point x="1788" y="992"/>
      <point x="1788" y="992"/>
      <point x="1788" y="992" type="qcurve"/>
      <point x="1788" y="0" type="line"/>
      <point x="2312" y="0" type="line"/>
      <point x="2312" y="724" type="line" smooth="yes"/>
      <point x="2312" y="878.5"/>
      <point x="2141" y="1024"/>
      <point x="1946" y="1024" type="qcurve" smooth="yes"/>
      <point x="970" y="1024" type="line" smooth="yes"/>
      <point x="942.834" y="1024"/>
      <point x="904.564" y="1009.58"/>
      <point x="894" y="996" type="qcurve"/>
      <point x="894" y="1235" type="line"/>
      <point x="1312" y="1235" type="line"/>
      <point x="1312" y="1267" type="line"/>
      <point x="894" y="1267" type="line"/>
      <point x="894" y="1472" type="line"/>
      <point x="370" y="1472" type="line"/>
      <point x="370" y="1267" type="line"/>
      <point x="270" y="1267" type="line"/>
      <point x="270" y="1235" type="line"/>
      <point x="370" y="1235" type="line"/>
    </contour>
  </outline>
  <guideline angle="0" color="1,0,0,1" x="0" y="1251"/>
  <guideline angle="90" color="1,0,0,1" x="1316" y="0"/>
</glyph>
<glyph name="itilde" format="2">
  <advance width="1164"/>
  <unicode hex="0129"/>
  <anchor x="582" y="-150" name="bottom"/>
  <anchor x="582" y="1571" name="top"/>
  <anchor x="358" y="0" name="ogonek"/>
  <outline>
    <contour>
      <point x="320" y="0" type="line"/>
      <point x="844" y="0" type="line"/>
      <point x="844" y="1024" type="line"/>
      <point x="320" y="1024" type="line"/>
    </contour>
    <contour>
      <point x="32" y="1149" type="qcurve"/>
      <point x="62" y="1144" type="line"/>
      <point x="67.2822" y="1171.17"/>
      <point x="113.331" y="1248"/>
      <point x="182" y="1248" type="qcurve" smooth="yes"/>
      <point x="233.375" y="1248"/>
      <point x="376.938" y="1202.06"/>
      <point x="535.562" y="1146.94"/>
      <point x="696.375" y="1101"/>
      <point x="765" y="1101" type="qcurve" smooth="yes"/>
      <point x="921" y="1101"/>
      <point x="1105" y="1280.75"/>
      <point x="1132" y="1418" type="qcurve"/>
      <point x="1102" y="1423" type="line"/>
      <point x="1096.72" y="1395.83"/>
      <point x="1050.67" y="1319"/>
      <point x="982" y="1319" type="qcurve" smooth="yes"/>
      <point x="930.625" y="1319"/>
      <point x="787.062" y="1364.94"/>
      <point x="628.438" y="1420.06"/>
      <point x="467.625" y="1466"/>
      <point x="399" y="1466" type="qcurve" smooth="yes"/>
      <point x="243" y="1466"/>
      <point x="59" y="1298.25"/>
    </contour>
  </outline>
  <guideline angle="90" x="162" y="0"/>
  <guideline angle="90" x="1132" y="0"/>
  <guideline angle="90" x="192" y="0"/>
  <guideline angle="90" x="1102" y="0"/>
</glyph>
<glyph name="Imacron" format="2">
  <advance width="1372"/>
  <unicode hex="012A"/>
  <anchor x="686" y="1734" name="top"/>
  <anchor x="686" y="-150" name="bottom"/>
  <anchor x="440" y="0" name="ogonek"/>
  <outline>
    <contour>
      <point x="400" y="0" type="line"/>
      <point x="972" y="0" type="line"/>
      <point x="972" y="1400" type="line"/>
      <point x="400" y="1400" type="line"/>
    </contour>
    <contour>
      <point x="156" y="1598" type="line"/>
      <point x="1216" y="1598" type="line"/>
      <point x="1216" y="1634" type="line"/>
      <point x="156" y="1634" type="line"/>
    </contour>
  </outline>
</glyph>
<glyph name="jcircumflex" format="2">
  <advance width="1164"/>
  <unicode hex="0135"/>
  <anchor x="596" y="1622" name="top"/>
  <anchor x="1392" y="1348" name="topright"/>
  <outline>
    <contour>
      <point x="-644" y="-396" type="line"/>
      <point x="-634" y="-428" type="line"/>
      <point x="612" y="-428" type="line" smooth="yes"/>
      <point x="670.5" y="-428"/>
      <point x="766.375" y="-381.25"/>
      <point x="834.625" y="-295.75"/>
      <point x="872" y="-175.5"/>
      <point x="872" y="-102" type="qcurve" smooth="yes"/>
      <point x="872" y="1024" type="line"/>
      <point x="348" y="1024" type="line"/>
      <point x="348" y="-396" type="line"/>
      <point x="348" y="-396"/>
      <point x="348" y="-396"/>
      <point x="348" y="-396" type="qcurve"/>
    </contour>
    <contour>
      <point x="-93" y="1174" type="line"/>
      <point x="-41" y="1174" type="line"/>
      <point x="377" y="1502" type="line"/>
      <point x="795" y="1174" type="line"/>
      <point x="1392" y="1174" type="line"/>
      <point x="896" y="1522" type="line"/>
      <point x="351" y="1522" type="line"/>
    </contour>
  </outline>
</glyph>
<glyph name="lacute" format="2">
  <advance width="1164"/>
  <unicode hex="013A"/>
  <anchor x="582" y="1598" name="top"/>
  <anchor x="582" y="-150" name="bottom"/>
  <anchor x="844" y="1472" name="right"/>
  <anchor x="1164" y="700" name="eldot"/>
  <outline>
    <contour>
      <point x="320" y="0" type="line"/>
      <point x="844" y="0" type="line"/>
      <point x="844" y="1472" type="line"/>
      <point x="320" y="1472" type="line"/>
    </contour>
    <contour>
      <point x="327" y="1548" type="line"/>
      <point x="376" y="1548" type="line"/>
      <point x="1419" y="1896" type="line"/>
      <point x="658" y="1896" type="line"/>
    </contour>
  </outline>
</glyph>
<glyph name="Lcaron" format="2">
  <advance width="2750"/>
  <unicode hex="013D"/>
  <anchor x="686" y="1550" name="top"/>
  <anchor x="1362" y="-150" name="bottom"/>
  <anchor x="300" y="700" name="left"/>
  <anchor x="1962" y="1400" name="right"/>
  <anchor x="2061" y="700" name="eldot"/>
  <outline>
    <contour>
      <point x="400" y="0" type="line"/>
      <point x="2740" y="0" type="line"/>
      <point x="2740" y="36" type="line"/>
      <point x="972" y="36" type="line"/>
      <point x="972" y="1400" type="line"/>
      <point x="400" y="1400" type="line"/>
    </contour>
    <contour>
      <point x="2276" y="1098" type="line"/>
      <point x="2311" y="1105" type="line"/>
      <point x="2572" y="1400" type="line"/>
      <point x="2165" y="1400" type="line"/>
    </contour>
  </outline>
</glyph>
<glyph name="ncaron" format="2">
  <advance width="2520"/>
  <unicode hex="0148"/>
  <anchor x="1266" y="1572" name="top"/>
  <anchor x="1266" y="-150" name="bottom"/>
  <anchor x="577" y="1298" name="topright"/>
  <outline>
    <contour>
      <point x="320" y="0" type="line"/>
      <point x="844" y="0" type="line"/>
      <point x="844" y="992" type="line"/>
      <point x="1688" y="992" type="line"/>
      <point x="1688" y="992"/>
      <point x="1688" y="992"/>
      <point x="1688" y="992" type="qcurve"/>
      <point x="1688" y="0" type="line"/>
      <point x="2212" y="0" type="line"/>
      <point x="2212" y="724" type="line" smooth="yes"/>
      <point x="2212" y="878.5"/>
      <point x="2041" y="1024"/>
      <point x="1846" y="1024" type="qcurve" smooth="yes"/>
      <point x="920" y="1024" type="line" smooth="yes"/>
      <point x="892.834" y="1024"/>
      <point x="854.564" y="1009.58"/>
      <point x="844" y="996" type="qcurve"/>
      <point x="844" y="1024" type="line"/>
      <point x="320" y="1024" type="line"/>
    </contour>
    <contour>
      <point x="2062" y="1472" type="line"/>
      <point x="2010" y="1472" type="line"/>
      <point x="1592" y="1144" type="line"/>
      <point x="1174" y="1472" type="line"/>
      <point x="577" y="1472" type="line"/>
      <point x="1073" y="1124" type="line"/>
      <point x="1618" y="1124" type="line"/>
    </contour>
  </outline>
  <guideline angle="0" x="0" y="988"/>
  <guideline angle="0" x="0" y="870"/>
</glyph>
<glyph name="Eng" format="2">
  <advance width="3148"/>
  <unicode hex="014A"/>
  <outline>
    <contour>
      <point x="400" y="0" type="line"/>
      <point x="436" y="0" type="line"/>
      <point x="436" y="843" type="line"/>
      <point x="2712" y="-55" type="line"/>
      <point x="2712" y="-260" type="line" smooth="yes"/>
      <point x="2712" y="-326.405"/>
      <point x="2653.16" y="-396"/>
      <point x="2586" y="-396" type="qcurve" smooth="yes"/>
      <point x="1586" y="-396" type="line"/>
      <point x="1596" y="-428" type="line"/>
      <point x="2586" y="-428" type="line" smooth="yes"/>
      <point x="2625.38" y="-428"/>
      <point x="2685.84" y="-406.906"/>
      <point x="2726.91" y="-365.844"/>
      <point x="2748" y="-305.375"/>
      <point x="2748" y="-266" type="qcurve" smooth="yes"/>
      <point x="2748" y="1400" type="line"/>
      <point x="2712" y="1400" type="line"/>
      <point x="2712" y="557" type="line"/>
      <point x="576" y="1400" type="line"/>
      <point x="400" y="1400" type="line"/>
    </contour>
  </outline>
</glyph>
<glyph name="uni0156" format="2">
  <advance width="3418"/>
  <unicode hex="0156"/>
  <anchor x="1709" y="-150" name="bottom"/>
  <anchor x="1709" y="1550" name="top"/>
  <outline>
    <contour>
      <point x="400" y="0" type="line"/>
      <point x="972" y="0" type="line"/>
      <point x="972" y="498" type="line"/>
      <point x="1559" y="498" type="line"/>
      <point x="2304" y="0" type="line"/>
      <point x="3168" y="0" type="line"/>
      <point x="2336" y="498" type="line"/>
      <point x="2702" y="498" type="line" smooth="yes"/>
      <point x="2891" y="498"/>
      <point x="3116" y="631"/>
      <point x="3116" y="832" type="qcurve" smooth="yes"/>
      <point x="3116" y="1066" type="line" smooth="yes"/>
      <point x="3116" y="1267"/>
      <point x="2891" y="1400"/>
      <point x="2702" y="1400" type="qcurve" smooth="yes"/>
      <point x="400" y="1400" type="line"/>
    </contour>
    <contour>
      <point x="972" y="534" type="line"/>
      <point x="972" y="1364" type="line"/>
      <point x="2312" y="1364" type="line" smooth="yes"/>
      <point x="2426.7" y="1364"/>
      <point x="2544" y="1254.55"/>
      <point x="2544" y="1164" type="qcurve" smooth="yes"/>
      <point x="2544" y="734" type="line" smooth="yes"/>
      <point x="2544" y="643.448"/>
      <point x="2426.7" y="534"/>
      <point x="2312" y="534" type="qcurve" smooth="yes"/>
    </contour>
    <contour>
      <point x="1695" y="-698" type="line"/>
      <point x="1890" y="-447" type="line"/>
      <point x="1898.3" y="-435.681"/>
      <point x="1905" y="-399.675"/>
      <point x="1905" y="-371" type="qcurve" smooth="yes"/>
      <point x="1905" y="-209" type="line" smooth="yes"/>
      <point x="1905" y="-149.387"/>
      <point x="1870.63" y="-116"/>
      <point x="1808" y="-116" type="qcurve" smooth="yes"/>
      <point x="1610" y="-116" type="line" smooth="yes"/>
      <point x="1547.37" y="-116"/>
      <point x="1513" y="-149.387"/>
      <point x="1513" y="-209" type="qcurve" smooth="yes"/>
      <point x="1513" y="-371" type="line" smooth="yes"/>
      <point x="1513" y="-432.123"/>
      <point x="1547.37" y="-466"/>
      <point x="1610" y="-466" type="qcurve" smooth="yes"/>
      <point x="1750" y="-466" type="line"/>
      <point x="1676" y="-694" type="line"/>
    </contour>
  </outline>
</glyph>
<glyph name="Scedilla" format="2">
  <advance width="3094"/>
  <unicode hex="015E"/>
  <anchor x="1542" y="1550" name="top"/>
  <anchor x="1542" y="-150" name="bottom"/>
  <outline>
    <contour>
      <point x="310" y="410" type="line"/>
      <point x="310" y="342" type="line" smooth="yes"/>
      <point x="310" y="236.25"/>
      <point x="366.688" y="102.938"/>
      <point x="472.812" y="27.5625"/>
      <point x="624.75" y="0"/>
      <point x="720" y="0" type="qcurve" smooth="yes"/>
      <point x="2362" y="0" type="line" smooth="yes"/>
      <point x="2554" y="0"/>
      <point x="2774" y="131"/>
      <point x="2774" y="344" type="qcurve" smooth="yes"/>
      <point x="2774" y="398" type="line" smooth="yes"/>
      <point x="2774" y="501.5"/>
      <point x="2713.88" y="629.875"/>
      <point x="2605.12" y="701.125"/>
      <point x="2453.5" y="726"/>
      <point x="2362" y="726" type="qcurve" smooth="yes"/>
      <point x="886" y="726" type="line"/>
      <point x="886" y="726"/>
      <point x="886" y="726"/>
      <point x="886" y="726" type="qcurve"/>
      <point x="886" y="1364" type="line"/>
      <point x="886" y="1364"/>
      <point x="886" y="1364"/>
      <point x="886" y="1364" type="qcurve"/>
      <point x="2208" y="1364" type="line"/>
      <point x="2208" y="1364"/>
      <point x="2208" y="1364"/>
      <point x="2208" y="1364" type="qcurve"/>
      <point x="2208" y="958" type="line"/>
      <point x="2754" y="1008" type="line"/>
      <point x="2754" y="1072" type="line" smooth="yes"/>
      <point x="2754" y="1174.75"/>
      <point x="2694.5" y="1302.94"/>
      <point x="2586.5" y="1374.56"/>
      <point x="2435.5" y="1400"/>
      <point x="2344" y="1400" type="qcurve" smooth="yes"/>
      <point x="756" y="1400" type="line" smooth="yes"/>
      <point x="664.5" y="1400"/>
      <point x="511.625" y="1373.88"/>
      <point x="401.375" y="1301.12"/>
      <point x="340" y="1171.5"/>
      <point x="340" y="1068" type="qcurve" smooth="yes"/>
      <point x="340" y="1034" type="line" smooth="yes"/>
      <point x="340" y="928.25"/>
      <point x="396.062" y="794.312"/>
      <point x="501.438" y="718.188"/>
      <point x="652.75" y="690"/>
      <point x="748" y="690" type="qcurve" smooth="yes"/>
      <point x="2228" y="690" type="line"/>
      <point x="2228" y="690"/>
      <point x="2228" y="690"/>
      <point x="2228" y="690" type="qcurve"/>
      <point x="2228" y="36" type="line"/>
      <point x="2228" y="36"/>
      <point x="2228" y="36"/>
      <point x="2228" y="36" type="qcurve"/>
      <point x="856" y="36" type="line"/>
      <point x="856" y="36"/>
      <point x="856" y="36"/>
      <point x="856" y="36" type="qcurve"/>
      <point x="856" y="462" type="line"/>
    </contour>
    <contour>
      <point x="1538" y="-438" type="qcurve" smooth="yes"/>
      <point x="1574" y="-438"/>
      <point x="1682.38" y="-425.656"/>
      <point x="1783.62" y="-386.094"/>
      <point x="1856" y="-311.875"/>
      <point x="1856" y="-250" type="qcurve" smooth="yes"/>
      <point x="1856" y="-196.75"/>
      <point x="1804.31" y="-131.375"/>
      <point x="1720.69" y="-94.625"/>
      <point x="1615" y="-80.25"/>
      <point x="1561" y="-78" type="qcurve"/>
      <point x="1596" y="0" type="line"/>
      <point x="1462" y="0" type="line"/>
      <point x="1411" y="-113" type="line"/>
      <point x="1423.83" y="-107.718"/>
      <point x="1457.13" y="-102"/>
      <point x="1476" y="-102" type="qcurve" smooth="yes"/>
      <point x="1518.26" y="-102"/>
      <point x="1596" y="-166.221"/>
      <point x="1596" y="-253" type="qcurve" smooth="yes"/>
      <point x="1596" y="-339.024"/>
      <point x="1523.56" y="-405"/>
      <point x="1473" y="-405" type="qcurve" smooth="yes"/>
      <point x="1439.04" y="-405"/>
      <point x="1378.62" y="-379.62"/>
      <point x="1359" y="-360" type="qcurve"/>
      <point x="1333" y="-385" type="line"/>
      <point x="1367.71" y="-409.147"/>
      <point x="1458.01" y="-438"/>
    </contour>
  </outline>
</glyph>
<glyph name="uni0162" format="2">
  <advance width="2680"/>
  <unicode hex="0162"/>
  <anchor x="1340" y="1550" name="top"/>
  <anchor x="1340" y="-150" name="bottom"/>
  <outline>
    <contour>
      <point x="1054" y="0" type="line"/>
      <point x="1626" y="0" type="line"/>
      <point x="1626" y="1364" type="line"/>
      <point x="2670" y="1364" type="line"/>
      <point x="2670" y="1400" type="line"/>
      <point x="10" y="1400" type="line"/>
      <point x="10" y="1364" type="line"/>
      <point x="1054" y="1364" type="line"/>
    </contour>
    <contour>
      <point x="1336" y="-438" type="qcurve" smooth="yes"/>
      <point x="1372" y="-438"/>
      <point x="1480.38" y="-425.656"/>
      <point x="1581.62" y="-386.094"/>
      <point x="1654" y="-311.875"/>
      <point x="1654" y="-250" type="qcurve" smooth="yes"/>
      <point x="1654" y="-196.75"/>
      <point x="1602.31" y="-131.375"/>
      <point x="1518.69" y="-94.625"/>
      <point x="1413" y="-80.25"/>
      <point x="1359" y="-78" type="qcurve"/>
      <point x="1394" y="0" type="line"/>
      <point x="1260" y="0" type="line"/>
      <point x="1209" y="-113" type="line"/>
      <point x="1221.83" y="-107.718"/>
      <point x="1255.13" y="-102"/>
      <point x="1274" y="-102" type="qcurve" smooth="yes"/>
      <point x="1316.26" y="-102"/>
      <point x="1394" y="-166.221"/>
      <point x="1394" y="-253" type="qcurve" smooth="yes"/>
      <point x="1394" y="-339.024"/>
      <point x="1321.56" y="-405"/>
      <point x="1271" y="-405" type="qcurve" smooth="yes"/>
      <point x="1237.04" y="-405"/>
      <point x="1176.62" y="-379.62"/>
      <point x="1157" y="-360" type="qcurve"/>
      <point x="1131" y="-385" type="line"/>
      <point x="1165.71" y="-409.147"/>
      <point x="1256.01" y="-438"/>
    </contour>
  </outline>
</glyph>
<glyph name="Ubreve" format="2">
  <advance width="3355"/>
  <unicode hex="016C"/>
  <anchor x="1678" y="1926" name="top"/>
  <anchor x="1678" y="-150" name="bottom"/>
  <anchor x="1698" y="0" name="ogonek"/>
  <anchor x="2970" y="1400" name="horn"/>
  <outline>
    <contour>
      <point x="385" y="1400" type="line"/>
      <point x="385" y="343" type="line" smooth="yes"/>
      <point x="385" y="236.875"/>
      <point x="441.688" y="103.156"/>
      <point x="547.812" y="27.5938"/>
      <point x="699.75" y="0"/>
      <point x="795" y="0" type="qcurve" smooth="yes"/>
      <point x="2558" y="0" type="line" smooth="yes"/>
      <point x="2750.75" y="0"/>
      <point x="2970" y="130.75"/>
      <point x="2970" y="343" type="qcurve" smooth="yes"/>
      <point x="2970" y="1400" type="line"/>
      <point x="2398" y="1400" type="line"/>
      <point x="2398" y="36" type="line"/>
      <point x="2398" y="36"/>
      <point x="2398" y="36"/>
      <point x="2398" y="36" type="qcurve"/>
      <point x="957" y="36" type="line"/>
      <point x="957" y="36"/>
      <point x="957" y="36"/>
      <point x="957" y="36" type="qcurve"/>
      <point x="957" y="1400" type="line"/>
    </contour>
    <contour>
      <point x="1678" y="1465" type="qcurve" smooth="yes"/>
      <point x="1846.38" y="1465"/>
      <point x="2058.78" y="1501.88"/>
      <point x="2178.97" y="1586.62"/>
      <point x="2223" y="1724.75"/>
      <point x="2223" y="1826" type="qcurve"/>
      <point x="1897" y="1826" type="line"/>
      <point x="1897" y="1729.25"/>
      <point x="1868.22" y="1603.5"/>
      <point x="1812.53" y="1530"/>
      <point x="1730.88" y="1501"/>
      <point x="1678" y="1501" type="qcurve" smooth="yes"/>
      <point x="1624" y="1501"/>
      <point x="1541.12" y="1530"/>
      <point x="1484.88" y="1603.5"/>
      <point x="1456" y="1729.25"/>
      <point x="1456" y="1826" type="qcurve"/>
      <point x="1130" y="1826" type="line"/>
      <point x="1130" y="1724.75"/>
      <point x="1174.69" y="1586.62"/>
      <point x="1295.81" y="1501.88"/>
      <point x="1509.25" y="1465"/>
    </contour>
  </outline>
</glyph>
<glyph name="uring" format="2">
  <advance width="2459"/>
  <unicode hex="016F"/>
  <anchor x="1230" y="1618" name="top"/>
  <anchor x="1230" y="-150" name="bottom"/>
  <anchor x="1249" y="0" name="ogonek"/>
  <anchor x="2151" y="1024" name="horn"/>
  <outline>
    <contour>
      <point x="308" y="204" type="line" smooth="yes"/>
      <point x="308" y="77.2272"/>
      <point x="437.301" y="0"/>
      <point x="552" y="0" type="qcurve" smooth="yes"/>
      <point x="1905" y="0" type="line" smooth="yes"/>
      <point x="2019.7" y="0"/>
      <point x="2151" y="77.2272"/>
      <point x="2151" y="204" type="qcurve" smooth="yes"/>
      <point x="2151" y="1024" type="line"/>
      <point x="1627" y="1024" type="line"/>
      <point x="1627" y="32" type="line"/>
      <point x="1627" y="32"/>
      <point x="1627" y="32"/>
      <point x="1627" y="32" type="qcurve"/>
      <point x="832" y="32" type="line"/>
      <point x="832" y="32"/>
      <point x="832" y="32"/>
      <point x="832" y="32" type="qcurve"/>
      <point x="832" y="1024" type="line"/>
      <point x="308" y="1024" type="line"/>
    </contour>
    <contour>
      <point x="1230" y="1122" type="qcurve" smooth="yes"/>
      <point x="1329.75" y="1122"/>
      <point x="1449.69" y="1132.25"/>
      <point x="1513.81" y="1171.25"/>
      <point x="1534" y="1248.25"/>
      <point x="1534" y="1315" type="qcurve" smooth="yes"/>
      <point x="1534" y="1381.75"/>
      <point x="1513.81" y="1458.75"/>
      <point x="1449.69" y="1497.75"/>
      <point x="1329.75" y="1508"/>
      <point x="1230" y="1508" type="qcurve" smooth="yes"/>
      <point x="1130.25" y="1508"/>
      <point x="1010.31" y="1497.75"/>
      <point x="946.188" y="1458.75"/>
      <point x="926" y="1381.75"/>
      <point x="926" y="1315" type="qcurve" smooth="yes"/>
      <point x="926" y="1248.25"/>
      <point x="946.188" y="1171.25"/>
      <point x="1010.31" y="1132.25"/>
      <point x="1130.25" y="1122"/>
    </contour>
    <contour>
      <point x="1230" y="1150" type="qcurve" smooth="yes"/>
      <point x="1165.1" y="1150"/>
      <point x="1140" y="1202.56"/>
      <point x="1140" y="1315" type="qcurve" smooth="yes"/>
      <point x="1140" y="1428.94"/>
      <point x="1165.1" y="1480"/>
      <point x="1230" y="1480" type="qcurve" smooth="yes"/>
      <point x="1294.9" y="1480"/>
      <point x="1320" y="1428.94"/>
      <point x="1320" y="1315" type="qcurve" smooth="yes"/>
      <point x="1320" y="1202.56"/>
      <point x="1294.9" y="1150"/>
    </contour>
  </outline>
</glyph>
<glyph name="Uogonek" format="2">
  <advance width="3355"/>
  <unicode hex="0172"/>
  <anchor x="1678" y="1550" name="top"/>
  <anchor x="1678" y="-150" name="bottom"/>
  <anchor x="1698" y="0" name="ogonek"/>
  <anchor x="2970" y="1400" name="horn"/>
  <outline>
    <contour>
      <point x="385" y="1400" type="line"/>
      <point x="385" y="343" type="line" smooth="yes"/>
      <point x="385" y="236.875"/>
      <point x="441.688" y="103.156"/>
      <point x="547.812" y="27.5938"/>
      <point x="699.75" y="0"/>
      <point x="795" y="0" type="qcurve" smooth="yes"/>
      <point x="2558" y="0" type="line" smooth="yes"/>
      <point x="2750.75" y="0"/>
      <point x="2970" y="130.75"/>
      <point x="2970" y="343" type="qcurve" smooth="yes"/>
      <point x="2970" y="1400" type="line"/>
      <point x="2398" y="1400" type="line"/>
      <point x="2398" y="36" type="line"/>
      <point x="2398" y="36"/>
      <point x="2398" y="36"/>
      <point x="2398" y="36" type="qcurve"/>
      <point x="957" y="36" type="line"/>
      <point x="957" y="36"/>
      <point x="957" y="36"/>
      <point x="957" y="36" type="qcurve"/>
      <point x="957" y="1400" type="line"/>
    </contour>
    <contour>
      <point x="1841.38" y="-438" type="qcurve" smooth="yes"/>
      <point x="1926.04" y="-438"/>
      <point x="2054.63" y="-408.675"/>
      <point x="2115" y="-380" type="qcurve"/>
      <point x="2227" y="-134" type="line"/>
      <point x="2176.44" y="-159.656"/>
      <point x="2012.05" y="-190"/>
      <point x="1926.09" y="-190" type="qcurve" smooth="yes"/>
      <point x="1804.53" y="-190"/>
      <point x="1664" y="-128.267"/>
      <point x="1664" y="-73.7379" type="qcurve" smooth="yes"/>
      <point x="1664" y="-56.5799"/>
      <point x="1679.89" y="-21.1288"/>
      <point x="1698" y="0" type="qcurve"/>
      <point x="1658" y="0" type="line"/>
      <point x="1614.23" y="-51.3128"/>
      <point x="1509.77" y="-174.442"/>
      <point x="1466" y="-225" type="qcurve"/>
      <point x="1466" y="-322.343"/>
      <point x="1673.25" y="-438"/>
    </contour>
  </outline>
</glyph>
<glyph name="wcircumflex" format="2">
  <advance width="2849"/>
  <unicode hex="0175"/>
  <anchor x="1711" y="1622" name="top"/>
  <anchor x="1432" y="-150" name="bottom"/>
  <anchor x="2507" y="1348" name="topright"/>
  <outline>
    <contour>
      <point x="611" y="0" type="line"/>
      <point x="971" y="0" type="line"/>
      <point x="1442" y="819" type="line"/>
      <point x="1892" y="0" type="line"/>
      <point x="2252" y="0" type="line"/>
      <point x="2849" y="1024" type="line"/>
      <point x="2809" y="1024" type="line"/>
      <point x="2342" y="218" type="line"/>
      <point x="1899" y="1024" type="line"/>
      <point x="1525" y="1024" type="line"/>
      <point x="1059" y="217" type="line"/>
      <point x="590" y="1024" type="line"/>
      <point x="0" y="1024" type="line"/>
    </contour>
    <contour>
      <point x="1022" y="1174" type="line"/>
      <point x="1074" y="1174" type="line"/>
      <point x="1492" y="1502" type="line"/>
      <point x="1910" y="1174" type="line"/>
      <point x="2507" y="1174" type="line"/>
      <point x="2011" y="1522" type="line"/>
      <point x="1466" y="1522" type="line"/>
    </contour>
  </outline>
</glyph>
<glyph name="uni018F" format="2">
  <advance width="3232"/>
  <unicode hex="018F"/>
  <anchor x="1610" y="1550" name="top"/>
  <anchor x="1610" y="-150" name="bottom"/>
  <outline>
    <contour>
      <point x="774" y="0" type="qcurve" smooth="yes"/>
      <point x="2450" y="0" type="line" smooth="yes"/>
      <point x="2649.21" y="0"/>
      <point x="2862" y="139.24"/>
      <point x="2862" y="346" type="qcurve" smooth="yes"/>
      <point x="2862" y="1066" type="line" smooth="yes"/>
      <point x="2862" y="1267"/>
      <point x="2639" y="1400"/>
      <point x="2450" y="1400" type="qcurve" smooth="yes"/>
      <point x="780" y="1400" type="line" smooth="yes"/>
      <point x="591" y="1400"/>
      <point x="366" y="1267"/>
      <point x="366" y="1066" type="qcurve" smooth="yes"/>
      <point x="366" y="1012" type="line"/>
      <point x="938" y="906" type="line"/>
      <point x="938" y="1364" type="line"/>
      <point x="938" y="1364"/>
      <point x="938" y="1364"/>
      <point x="938" y="1364" type="qcurve"/>
      <point x="2290" y="1364" type="line"/>
      <point x="2290" y="1364"/>
      <point x="2290" y="1364"/>
      <point x="2290" y="1364" type="qcurve"/>
      <point x="2290" y="700" type="line"/>
      <point x="360" y="700" type="line"/>
      <point x="360" y="346" type="line" smooth="yes"/>
      <point x="360" y="139"/>
      <point x="576" y="0"/>
    </contour>
    <contour>
      <point x="932" y="664" type="line"/>
      <point x="2290" y="664" type="line"/>
      <point x="2290" y="36" type="line"/>
      <point x="2290" y="36"/>
      <point x="2290" y="36"/>
      <point x="2290" y="36" type="qcurve"/>
      <point x="932" y="36" type="line"/>
      <point x="932" y="36"/>
      <point x="932" y="36"/>
      <point x="932" y="36" type="qcurve"/>
    </contour>
  </outline>
</glyph>
<glyph name="uni01C7" format="2">
  <advance width="5716"/>
  <unicode hex="01C7"/>
  <anchor x="5045" y="1550" name="top"/>
  <anchor x="4173" y="-150" name="bottom"/>
  <anchor x="300" y="700" name="left"/>
  <anchor x="1962" y="1400" name="right"/>
  <anchor x="2061" y="700" name="eldot"/>
  <outline>
    <contour>
      <point x="400" y="0" type="line"/>
      <point x="2740" y="0" type="line"/>
      <point x="2740" y="36" type="line"/>
      <point x="972" y="36" type="line"/>
      <point x="972" y="1400" type="line"/>
      <point x="400" y="1400" type="line"/>
    </contour>
    <contour>
      <point x="5331" y="1400" type="line"/>
      <point x="4759" y="1400" type="line"/>
      <point x="4759" y="36" type="line"/>
      <point x="4759" y="36"/>
      <point x="4759" y="36"/>
      <point x="4759" y="36" type="qcurve"/>
      <point x="3507" y="36" type="line"/>
      <point x="3507" y="36"/>
      <point x="3507" y="36"/>
      <point x="3507" y="36" type="qcurve"/>
      <point x="3507" y="740" type="line"/>
      <point x="2935" y="634" type="line"/>
      <point x="2935" y="334" type="line" smooth="yes"/>
      <point x="2935" y="133"/>
      <point x="3160" y="0"/>
      <point x="3349" y="0" type="qcurve" smooth="yes"/>
      <point x="4919" y="0" type="line" smooth="yes"/>
      <point x="5108" y="0"/>
      <point x="5331" y="133"/>
      <point x="5331" y="334" type="qcurve" smooth="yes"/>
    </contour>
  </outline>
</glyph>
<glyph name="Aringacute" format="2">
  <advance width="2910"/>
  <unicode hex="01FA"/>
  <anchor x="1448" y="1550" name="top"/>
  <anchor x="1380" y="-150" name="bottom"/>
  <anchor x="2116" y="0" name="ogonek_in"/>
  <outline>
    <contour>
      <point x="6" y="0" type="line"/>
      <point x="56" y="0" type="line"/>
      <point x="372" y="338" type="line"/>
      <point x="1808" y="338" type="line"/>
      <point x="2116" y="0" type="line"/>
      <point x="2904" y="0" type="line"/>
      <point x="1598" y="1400" type="line"/>
      <point x="1312" y="1400" type="line"/>
    </contour>
    <contour>
      <point x="405" y="374" type="line"/>
      <point x="1098" y="1116" type="line"/>
      <point x="1775" y="374" type="line"/>
    </contour>
    <contour>
      <point x="1144" y="1631" type="qcurve" smooth="yes"/>
      <point x="1144" y="1579.62"/>
      <point x="1164.75" y="1517.41"/>
      <point x="1229.25" y="1483.84"/>
      <point x="1349" y="1473"/>
      <point x="1448" y="1473" type="qcurve" smooth="yes"/>
      <point x="1547" y="1473"/>
      <point x="1666.75" y="1483.84"/>
      <point x="1731.25" y="1517.41"/>
      <point x="1752" y="1579.62"/>
      <point x="1752" y="1631" type="qcurve" smooth="yes"/>
      <point x="1752" y="1682.38"/>
      <point x="1731.25" y="1744.59"/>
      <point x="1666.75" y="1778.16"/>
      <point x="1547" y="1789"/>
      <point x="1448" y="1789" type="qcurve" smooth="yes"/>
      <point x="1349" y="1789"/>
      <point x="1229.25" y="1778.16"/>
      <point x="1164.75" y="1744.59"/>
      <point x="1144" y="1682.38"/>
    </contour>
    <contour>
      <point x="1358" y="1631" type="qcurve" smooth="yes"/>
      <point x="1358" y="1715.52"/>
      <point x="1389.14" y="1761"/>
      <point x="1448" y="1761" type="qcurve" smooth="yes"/>
      <point x="1506.86" y="1761"/>
      <point x="1538" y="1715.52"/>
      <point x="1538" y="1631" type="qcurve" smooth="yes"/>
      <point x="1538" y="1546.48"/>
      <point x="1506.86" y="1501"/>
      <point x="1448" y="1501" type="qcurve" smooth="yes"/>
      <point x="1389.14" y="1501"/>
      <point x="1358" y="1546.48"/>
    </contour>
    <contour>
      <point x="1473" y="1849" type="line"/>
      <point x="2003" y="2075" type="line"/>
      <point x="1503" y="2075" type="line"/>
      <point x="1423" y="1849" type="line"/>
    </contour>
  </outline>
</glyph>
<glyph name="aringacute" format="2">
  <advance width="2494"/>
  <unicode hex="01FB"/>
  <anchor x="1243" y="1174" name="top"/>
  <anchor x="1236" y="-150" name="bottom"/>
  <anchor x="1700" y="0" name="ogonek"/>
  <outline>
    <contour>
      <point x="582" y="0" type="qcurve" smooth="yes"/>
      <point x="1586" y="0" type="line" smooth="yes"/>
      <point x="1613.17" y="0"/>
      <point x="1651.44" y="14.4172"/>
      <point x="1662" y="28" type="qcurve"/>
      <point x="1662" y="0" type="line"/>
      <point x="2186" y="0" type="line"/>
      <point x="2186" y="754" type="line" smooth="yes"/>
      <point x="2186" y="923.03"/>
      <point x="2022.81" y="1030"/>
      <point x="1890" y="1030" type="qcurve" smooth="yes"/>
      <point x="616" y="1030" type="line" smooth="yes"/>
      <point x="483.19" y="1030"/>
      <point x="320" y="922.503"/>
      <point x="320" y="758" type="qcurve" smooth="yes"/>
      <point x="320" y="756" type="line"/>
      <point x="844" y="661" type="line"/>
      <point x="844" y="998" type="line"/>
      <point x="844" y="998"/>
      <point x="844" y="998"/>
      <point x="844" y="998" type="qcurve"/>
      <point x="1662" y="998" type="line"/>
      <point x="1662" y="998"/>
      <point x="1662" y="998"/>
      <point x="1662" y="998" type="qcurve"/>
      <point x="1662" y="566" type="line"/>
      <point x="582" y="566" type="line" smooth="yes"/>
      <point x="459" y="566"/>
      <point x="286" y="467.5"/>
      <point x="286" y="322" type="qcurve" smooth="yes"/>
      <point x="286" y="254" type="line" smooth="yes"/>
      <point x="286" y="104.589"/>
      <point x="458.246" y="0"/>
    </contour>
    <contour>
      <point x="820" y="32" type="qcurve"/>
      <point x="820" y="534" type="line"/>
      <point x="820" y="534"/>
      <point x="820" y="534"/>
      <point x="820" y="534" type="qcurve"/>
      <point x="1662" y="534" type="line"/>
      <point x="1662" y="32" type="line"/>
      <point x="820" y="32" type="line"/>
      <point x="820" y="32"/>
      <point x="820" y="32"/>
    </contour>
    <contour>
      <point x="939" y="1255" type="qcurve" smooth="yes"/>
      <point x="939" y="1203.62"/>
      <point x="959.75" y="1141.41"/>
      <point x="1024.25" y="1107.84"/>
      <point x="1144" y="1097"/>
      <point x="1243" y="1097" type="qcurve" smooth="yes"/>
      <point x="1342" y="1097"/>
      <point x="1461.75" y="1107.84"/>
      <point x="1526.25" y="1141.41"/>
      <point x="1547" y="1203.62"/>
      <point x="1547" y="1255" type="qcurve" smooth="yes"/>
      <point x="1547" y="1306.38"/>
      <point x="1526.25" y="1368.59"/>
      <point x="1461.75" y="1402.16"/>
      <point x="1342" y="1413"/>
      <point x="1243" y="1413" type="qcurve" smooth="yes"/>
      <point x="1144" y="1413"/>
      <point x="1024.25" y="1402.16"/>
      <point x="959.75" y="1368.59"/>
      <point x="939" y="1306.38"/>
    </contour>
    <contour>
      <point x="1153" y="1255" type="qcurve" smooth="yes"/>
      <point x="1153" y="1339.52"/>
      <point x="1184.14" y="1385"/>
      <point x="1243" y="1385" type="qcurve" smooth="yes"/>
      <point x="1301.86" y="1385"/>
      <point x="1333" y="1339.52"/>
      <point x="1333" y="1255" type="qcurve" smooth="yes"/>
      <point x="1333" y="1170.48"/>
      <point x="1301.86" y="1125"/>
      <point x="1243" y="1125" type="qcurve" smooth="yes"/>
      <point x="1184.14" y="1125"/>
      <point x="1153" y="1170.48"/>
    </contour>
    <contour>
      <point x="1268" y="1473" type="line"/>
      <point x="1798" y="1699" type="line"/>
      <point x="1298" y="1699" type="line"/>
      <point x="1218" y="1473" type="line"/>
    </contour>
  </outline>
  <guideline angle="90" color="1,0,0,1" x="1682" y="0"/>
</glyph>
<glyph name="uni0200" format="2">
  <advance width="2910"/>
  <unicode hex="0200"/>
  <anchor x="1448" y="1550" name="top"/>
  <anchor x="1380" y="-150" name="bottom"/>
  <anchor x="2116" y="0" name="ogonek_in"/>
  <anchor x="1148.6" y="1550" name="topright"/>
  <outline>
    <contour>
      <point x="6" y="0" type="line"/>
      <point x="56" y="0" type="line"/>
      <point x="372" y="338" type="line"/>
      <point x="1808" y="338" type="line"/>
      <point x="2116" y="0" type="line"/>
      <point x="2904" y="0" type="line"/>
      <point x="1598" y="1400" type="line"/>
      <point x="1312" y="1400" type="line"/>
    </contour>
    <contour>
      <point x="405" y="374" type="line"/>
      <point x="1098" y="1116" type="line"/>
      <point x="1775" y="374" type="line"/>
    </contour>
    <contour>
      <point x="1983.6" y="1550" type="line"/>
      <point x="1760.4" y="1850" type="line"/>
      <point x="1119.6" y="1850" type="line"/>
      <point x="1926" y="1550" type="line"/>
    </contour>
    <contour>
      <point x="1188.6" y="1550" type="line"/>
      <point x="965.4" y="1850" type="line"/>
      <point x="324.6" y="1850" type="line"/>
      <point x="1131" y="1550" type="line"/>
    </contour>
  </outline>
</glyph>
<glyph name="uni0207" format="2">
  <advance width="2520"/>
  <unicode hex="0207"/>
  <anchor x="1260" y="1174" name="top"/>
  <anchor x="1260" y="-150" name="bottom"/>
  <anchor x="1740" y="0" name="ogonek"/>
  <outline>
    <contour>
      <point x="296" y="310" type="line" smooth="yes"/>
      <point x="296" y="147.006"/>
      <point x="476.675" y="0"/>
      <point x="694" y="0" type="qcurve" smooth="yes"/>
      <point x="1806" y="0" type="line" smooth="yes"/>
      <point x="2023.32" y="0"/>
      <point x="2224" y="125.08"/>
      <point x="2224" y="276" type="qcurve" smooth="yes"/>
      <point x="2224" y="280" type="line"/>
      <point x="1700" y="368" type="line"/>
      <point x="1700" y="32" type="line"/>
      <point x="1700" y="32"/>
      <point x="1700" y="32"/>
      <point x="1700" y="32" type="qcurve"/>
      <point x="820" y="32" type="line"/>
      <point x="820" y="32"/>
      <point x="820" y="32"/>
      <point x="820" y="32" type="qcurve"/>
      <point x="820" y="516" type="line"/>
      <point x="2224" y="516" type="line"/>
      <point x="2224" y="724" type="line" smooth="yes"/>
      <point x="2224" y="882.466"/>
      <point x="2023.32" y="1024"/>
      <point x="1806" y="1024" type="qcurve" smooth="yes"/>
      <point x="694" y="1024" type="line" smooth="yes"/>
      <point x="478.184" y="1024"/>
      <point x="296" y="880.957"/>
      <point x="296" y="724" type="qcurve" smooth="yes"/>
    </contour>
    <contour>
      <point x="820" y="548" type="line"/>
      <point x="820" y="992" type="line"/>
      <point x="820" y="992"/>
      <point x="820" y="992"/>
      <point x="820" y="992" type="qcurve"/>
      <point x="1700" y="992" type="line"/>
      <point x="1700" y="992"/>
      <point x="1700" y="992"/>
      <point x="1700" y="992" type="qcurve"/>
      <point x="1700" y="548" type="line"/>
    </contour>
    <contour>
      <point x="1261" y="1461" type="qcurve" smooth="yes"/>
      <point x="1115.88" y="1461"/>
      <point x="929.594" y="1422.41"/>
      <point x="822.156" y="1336.34"/>
      <point x="781" y="1198.38"/>
      <point x="781" y="1099" type="qcurve"/>
      <point x="1046" y="1099" type="line"/>
      <point x="1046" y="1209.25"/>
      <point x="1077.47" y="1339.94"/>
      <point x="1134.28" y="1408.56"/>
      <point x="1213.38" y="1429"/>
      <point x="1261" y="1429" type="qcurve" smooth="yes"/>
      <point x="1307.5" y="1429"/>
      <point x="1385.69" y="1408.56"/>
      <point x="1442.31" y="1339.94"/>
      <point x="1474" y="1209.25"/>
      <point x="1474" y="1099" type="qcurve"/>
      <point x="1739" y="1099" type="line"/>
      <point x="1739" y="1198.38"/>
      <point x="1698.47" y="1336.34"/>
      <point x="1591.78" y="1422.41"/>
      <point x="1406.12" y="1461"/>
    </contour>
  </outline>
  <guideline angle="0" color="1,0,0,1" x="0" y="-1024"/>
</glyph>
<glyph name="uni0208" format="2">
  <advance width="1372"/>
  <unicode hex="0208"/>
  <anchor x="686" y="1550" name="top"/>
  <anchor x="686" y="-150" name="bottom"/>
  <anchor x="440" y="0" name="ogonek"/>
  <anchor x="386.6" y="1550" name="topright"/>
  <outline>
    <contour>
      <point x="400" y="0" type="line"/>
      <point x="972" y="0" type="line"/>
      <point x="972" y="1400" type="line"/>
      <point x="400" y="1400" type="line"/>
    </contour>
    <contour>
      <point x="1221.6" y="1550" type="line"/>
      <point x="998.4" y="1850" type="line"/>
      <point x="357.6" y="1850" type="line"/>
      <point x="1164" y="1550" type="line"/>
    </contour>
    <contour>
      <point x="426.6" y="1550" type="line"/>
      <point x="203.4" y="1850" type="line"/>
      <point x="-437.4" y="1850" type="line"/>
      <point x="369" y="1550" type="line"/>
    </contour>
  </outline>
</glyph>
<glyph name="uni0210" format="2">
  <advance width="3418"/>
  <unicode hex="0210"/>
  <anchor x="1709" y="-150" name="bottom"/>
  <anchor x="1709" y="1550" name="top"/>
  <anchor x="1409.6" y="1550" name="topright"/>
  <outline>
    <contour>
      <point x="400" y="0" type="line"/>
      <point x="972" y="0" type="line"/>
      <point x="972" y="498" type="line"/>
      <point x="1559" y="498" type="line"/>
      <point x="2304" y="0" type="line"/>
      <point x="3168" y="0" type="line"/>
      <point x="2336" y="498" type="line"/>
      <point x="2702" y="498" type="line" smooth="yes"/>
      <point x="2891" y="498"/>
      <point x="3116" y="631"/>
      <point x="3116" y="832" type="qcurve" smooth="yes"/>
      <point x="3116" y="1066" type="line" smooth="yes"/>
      <point x="3116" y="1267"/>
      <point x="2891" y="1400"/>
      <point x="2702" y="1400" type="qcurve" smooth="yes"/>
      <point x="400" y="1400" type="line"/>
    </contour>
    <contour>
      <point x="972" y="534" type="line"/>
      <point x="972" y="1364" type="line"/>
      <point x="2312" y="1364" type="line" smooth="yes"/>
      <point x="2426.7" y="1364"/>
      <point x="2544" y="1254.55"/>
      <point x="2544" y="1164" type="qcurve" smooth="yes"/>
      <point x="2544" y="734" type="line" smooth="yes"/>
      <point x="2544" y="643.448"/>
      <point x="2426.7" y="534"/>
      <point x="2312" y="534" type="qcurve" smooth="yes"/>
    </contour>
    <contour>
      <point x="2244.6" y="1550" type="line"/>
      <point x="2021.4" y="1850" type="line"/>
      <point x="1380.6" y="1850" type="line"/>
      <point x="2187" y="1550" type="line"/>
    </contour>
    <contour>
      <point x="1449.6" y="1550" type="line"/>
      <point x="1226.4" y="1850" type="line"/>
      <point x="585.6" y="1850" type="line"/>
      <point x="1392" y="1550" type="line"/>
    </contour>
  </outline>
</glyph>
<glyph name="uni022D" format="2">
  <advance width="2528"/>
  <unicode hex="022D"/>
  <anchor x="1264" y="1787" name="top"/>
  <anchor x="1264" y="-150" name="bottom"/>
  <anchor x="2232" y="770" name="horn"/>
  <anchor x="1283" y="0" name="ogonek"/>
  <outline>
    <contour>
      <point x="296" y="264" type="line" smooth="yes"/>
      <point x="296" y="125.154"/>
      <point x="440.516" y="0"/>
      <point x="602" y="0" type="qcurve" smooth="yes"/>
      <point x="1926" y="0" type="line" smooth="yes"/>
      <point x="2088.99" y="0"/>
      <point x="2232" y="125.154"/>
      <point x="2232" y="264" type="qcurve" smooth="yes"/>
      <point x="2232" y="770" type="line" smooth="yes"/>
      <point x="2232" y="901.3"/>
      <point x="2085.98" y="1024"/>
      <point x="1926" y="1024" type="qcurve" smooth="yes"/>
      <point x="602" y="1024" type="line" smooth="yes"/>
      <point x="442.025" y="1024"/>
      <point x="296" y="901.3"/>
      <point x="296" y="770" type="qcurve" smooth="yes"/>
    </contour>
    <contour>
      <point x="820" y="32" type="qcurve"/>
      <point x="820" y="992" type="line"/>
      <point x="820" y="992"/>
      <point x="820" y="992"/>
      <point x="820" y="992" type="qcurve"/>
      <point x="1708" y="992" type="line"/>
      <point x="1708" y="992"/>
      <point x="1708" y="992"/>
      <point x="1708" y="992" type="qcurve"/>
      <point x="1708" y="32" type="line"/>
      <point x="1708" y="32"/>
      <point x="1708" y="32"/>
      <point x="1708" y="32" type="qcurve"/>
      <point x="820" y="32" type="line"/>
      <point x="820" y="32"/>
      <point x="820" y="32"/>
    </contour>
    <contour>
      <point x="714" y="1149" type="qcurve"/>
      <point x="744" y="1144" type="line"/>
      <point x="749.282" y="1171.17"/>
      <point x="795.331" y="1248"/>
      <point x="864" y="1248" type="qcurve" smooth="yes"/>
      <point x="915.375" y="1248"/>
      <point x="1058.94" y="1202.06"/>
      <point x="1217.56" y="1146.94"/>
      <point x="1378.38" y="1101"/>
      <point x="1447" y="1101" type="qcurve" smooth="yes"/>
      <point x="1603" y="1101"/>
      <point x="1787" y="1280.75"/>
      <point x="1814" y="1418" type="qcurve"/>
      <point x="1784" y="1423" type="line"/>
      <point x="1778.72" y="1395.83"/>
      <point x="1732.67" y="1319"/>
      <point x="1664" y="1319" type="qcurve" smooth="yes"/>
      <point x="1612.62" y="1319"/>
      <point x="1469.06" y="1364.94"/>
      <point x="1310.44" y="1420.06"/>
      <point x="1149.62" y="1466"/>
      <point x="1081" y="1466" type="qcurve" smooth="yes"/>
      <point x="925" y="1466"/>
      <point x="741" y="1298.25"/>
    </contour>
    <contour>
      <point x="734" y="1655" type="line"/>
      <point x="1794" y="1655" type="line"/>
      <point x="1794" y="1687" type="line"/>
      <point x="734" y="1687" type="line"/>
    </contour>
  </outline>
  <guideline angle="90" x="844" y="0"/>
  <guideline angle="90" x="1814" y="0"/>
  <guideline angle="90" x="874" y="0"/>
  <guideline angle="90" x="1784" y="0"/>
</glyph>
<glyph name="uni0253" format="2">
  <advance width="2636"/>
  <unicode hex="0253"/>
  <anchor x="1330" y="1598" name="top"/>
  <anchor x="1330" y="-150" name="bottom"/>
  <outline>
    <contour>
      <point x="844" y="32" type="line"/>
      <point x="844" y="992" type="line"/>
      <point x="1816" y="992" type="line"/>
      <point x="1816" y="992"/>
      <point x="1816" y="992"/>
      <point x="1816" y="992" type="qcurve"/>
      <point x="1816" y="32" type="line"/>
      <point x="1816" y="32"/>
      <point x="1816" y="32"/>
      <point x="1816" y="32" type="qcurve"/>
    </contour>
    <contour>
      <point x="320" y="0" type="line"/>
      <point x="844" y="0" type="line"/>
      <point x="844" y="28" type="line"/>
      <point x="855.319" y="13.6626"/>
      <point x="892.834" y="0"/>
      <point x="920" y="0" type="qcurve" smooth="yes"/>
      <point x="2034" y="0" type="line" smooth="yes"/>
      <point x="2186.43" y="0"/>
      <point x="2340" y="118.362"/>
      <point x="2340" y="264" type="qcurve" smooth="yes"/>
      <point x="2340" y="770" type="line" smooth="yes"/>
      <point x="2340" y="911.865"/>
      <point x="2184.92" y="1024"/>
      <point x="2034" y="1024" type="qcurve" smooth="yes"/>
      <point x="920" y="1024" type="line" smooth="yes"/>
      <point x="887.552" y="1024"/>
      <point x="850.037" y="1012.07"/>
      <point x="844" y="1000" type="qcurve"/>
      <point x="844" y="1440" type="line"/>
      <point x="844" y="1440"/>
      <point x="844" y="1440"/>
      <point x="844" y="1440" type="qcurve"/>
      <point x="1290" y="1440" type="line"/>
      <point x="1300" y="1472" type="line"/>
      <point x="634" y="1472" type="line" smooth="yes"/>
      <point x="478.552" y="1472"/>
      <point x="320" y="1332.96"/>
      <point x="320" y="1176" type="qcurve" smooth="yes"/>
    </contour>
  </outline>
  <guideline angle="0" x="0" y="988"/>
  <guideline angle="0" x="0" y="36"/>
  <guideline angle="0" x="0" y="988"/>
  <guideline angle="0" x="0" y="36"/>
</glyph>
<glyph name="uni0257" format="2">
  <advance width="2792"/>
  <unicode hex="0257"/>
  <anchor x="1306" y="1598" name="top"/>
  <anchor x="1306" y="-150" name="bottom"/>
  <anchor x="2316" y="1472" name="right"/>
  <outline>
    <contour>
      <point x="1792" y="992" type="line"/>
      <point x="1792" y="32" type="line"/>
      <point x="820" y="32" type="line"/>
      <point x="820" y="32"/>
      <point x="820" y="32"/>
      <point x="820" y="32" type="qcurve"/>
      <point x="820" y="992" type="line"/>
      <point x="820" y="992"/>
      <point x="820" y="992"/>
      <point x="820" y="992" type="qcurve"/>
    </contour>
    <contour>
      <point x="1792" y="1000" type="line"/>
      <point x="1785.96" y="1012.07"/>
      <point x="1747.69" y="1024"/>
      <point x="1716" y="1024" type="qcurve" smooth="yes"/>
      <point x="602" y="1024" type="line" smooth="yes"/>
      <point x="451.08" y="1024"/>
      <point x="296" y="911.865"/>
      <point x="296" y="770" type="qcurve" smooth="yes"/>
      <point x="296" y="264" type="line" smooth="yes"/>
      <point x="296" y="118.362"/>
      <point x="449.571" y="0"/>
      <point x="602" y="0" type="qcurve" smooth="yes"/>
      <point x="1716" y="0" type="line" smooth="yes"/>
      <point x="1743.17" y="0"/>
      <point x="1781.44" y="14.4172"/>
      <point x="1792" y="28" type="qcurve"/>
      <point x="1792" y="0" type="line"/>
      <point x="2316" y="0" type="line"/>
      <point x="2316" y="1440" type="line"/>
      <point x="2316" y="1440"/>
      <point x="2316" y="1440"/>
      <point x="2316" y="1440" type="qcurve"/>
      <point x="2762" y="1440" type="line"/>
      <point x="2772" y="1472" type="line"/>
      <point x="2106" y="1472" type="line" smooth="yes"/>
      <point x="1950.55" y="1472"/>
      <point x="1792" y="1332.96"/>
      <point x="1792" y="1176" type="qcurve" smooth="yes"/>
    </contour>
  </outline>
</glyph>
<glyph name="uni02BA" format="2">
  <advance width="1623"/>
  <unicode hex="02BA"/>
  <outline>
    <contour>
      <point x="268" y="1333" type="qcurve"/>
      <point x="140" y="785" type="line"/>
      <point x="260" y="785" type="line"/>
      <point x="638" y="1333" type="line"/>
      <point x="675.73" y="1419.78"/>
      <point x="663.196" y="1450"/>
      <point x="590" y="1450" type="qcurve" smooth="yes"/>
      <point x="418" y="1450" type="line" smooth="yes"/>
      <point x="381.625" y="1450"/>
      <point x="339.719" y="1445.78"/>
      <point x="311.031" y="1423.47"/>
      <point x="286.75" y="1376.12"/>
    </contour>
    <contour>
      <point x="1080" y="1333" type="qcurve"/>
      <point x="952" y="785" type="line"/>
      <point x="1072" y="785" type="line"/>
      <point x="1450" y="1333" type="line"/>
      <point x="1487.73" y="1419.78"/>
      <point x="1475.2" y="1450"/>
      <point x="1402" y="1450" type="qcurve" smooth="yes"/>
      <point x="1230" y="1450" type="line" smooth="yes"/>
      <point x="1193.62" y="1450"/>
      <point x="1151.72" y="1445.78"/>
      <point x="1123.03" y="1423.47"/>
      <point x="1098.75" y="1376.12"/>
    </contour>
  </outline>
</glyph>
<glyph name="caron" format="2">
  <advance width="1585"/>
  <unicode hex="02C7"/>
  <outline>
    <contour>
      <point x="546" y="1100" type="line"/>
      <point x="1091" y="1100" type="line"/>
      <point x="1535" y="1448" type="line"/>
      <point x="1483" y="1448" type="line"/>
      <point x="1065" y="1120" type="line"/>
      <point x="647" y="1448" type="line"/>
      <point x="50" y="1448" type="line"/>
    </contour>
  </outline>
</glyph>
<glyph name="ring" format="2">
  <advance width="628"/>
  <unicode hex="02DA"/>
  <outline>
    <contour>
      <point x="314" y="1098" type="qcurve" smooth="yes"/>
      <point x="413.75" y="1098"/>
      <point x="533.688" y="1108.25"/>
      <point x="597.812" y="1147.25"/>
      <point x="618" y="1224.25"/>
      <point x="618" y="1291" type="qcurve" smooth="yes"/>
      <point x="618" y="1357.75"/>
      <point x="597.812" y="1434.75"/>
      <point x="533.688" y="1473.75"/>
      <point x="413.75" y="1484"/>
      <point x="314" y="1484" type="qcurve" smooth="yes"/>
      <point x="214.25" y="1484"/>
      <point x="94.3125" y="1473.75"/>
      <point x="30.1875" y="1434.75"/>
      <point x="10" y="1357.75"/>
      <point x="10" y="1291" type="qcurve" smooth="yes"/>
      <point x="10" y="1224.25"/>
      <point x="30.1875" y="1147.25"/>
      <point x="94.3125" y="1108.25"/>
      <point x="214.25" y="1098"/>
    </contour>
    <contour>
      <point x="314" y="1126" type="qcurve" smooth="yes"/>
      <point x="249.104" y="1126"/>
      <point x="224" y="1178.56"/>
      <point x="224" y="1291" type="qcurve" smooth="yes"/>
      <point x="224" y="1404.94"/>
      <point x="249.104" y="1456"/>
      <point x="314" y="1456" type="qcurve" smooth="yes"/>
      <point x="378.896" y="1456"/>
      <point x="404" y="1404.94"/>
      <point x="404" y="1291" type="qcurve" smooth="yes"/>
      <point x="404" y="1178.56"/>
      <point x="378.896" y="1126"/>
    </contour>
  </outline>
</glyph>
<glyph name="hungarumlaut" format="2">
  <advance width="1742"/>
  <unicode hex="02DD"/>
  <outline>
    <contour>
      <point x="100" y="1100" type="line"/>
      <point x="137" y="1100" type="line"/>
      <point x="919" y="1448" type="line"/>
      <point x="348" y="1448" type="line"/>
    </contour>
    <contour>
      <point x="823" y="1100" type="line"/>
      <point x="860" y="1100" type="line"/>
      <point x="1642" y="1448" type="line"/>
      <point x="1071" y="1448" type="line"/>
    </contour>
  </outline>
</glyph>
<glyph name="uni0304" format="2">
  <unicode hex="0304"/>
  <anchor x="0" y="1174" name="_top"/>
  <anchor x="0" y="1390" name="top"/>
  <outline>
    <contour>
      <point x="-530" y="1258" type="line"/>
      <point x="530" y="1258" type="line"/>
      <point x="530" y="1290" type="line"/>
      <point x="-530" y="1290" type="line"/>
    </contour>
  </outline>
</glyph>
<glyph name="uni0312" format="2">
  <unicode hex="0312"/>
  <anchor x="0" y="1174" name="_top"/>
  <anchor x="-0" y="1135" name="_bottom"/>
  <outline>
    <contour>
      <point x="14" y="1683" type="line"/>
      <point x="-181" y="1432" type="line"/>
      <point x="-189.301" y="1420.68"/>
      <point x="-196" y="1384.67"/>
      <point x="-196" y="1356" type="qcurve" smooth="yes"/>
      <point x="-196" y="1194" type="line" smooth="yes"/>
      <point x="-196" y="1134.39"/>
      <point x="-161.632" y="1101"/>
      <point x="-99" y="1101" type="qcurve" smooth="yes"/>
      <point x="99" y="1101" type="line" smooth="yes"/>
      <point x="161.632" y="1101"/>
      <point x="196" y="1134.39"/>
      <point x="196" y="1194" type="qcurve" smooth="yes"/>
      <point x="196" y="1356" type="line" smooth="yes"/>
      <point x="196" y="1417.12"/>
      <point x="161.632" y="1451"/>
      <point x="99" y="1451" type="qcurve" smooth="yes"/>
      <point x="-41" y="1451" type="line"/>
      <point x="33" y="1679" type="line"/>
    </contour>
  </outline>
</glyph>
<glyph name="uni0335" format="2">
  <unicode hex="0335"/>
  <anchor x="0" y="1174" name="_top"/>
  <outline>
    <contour>
      <point x="280" y="628" type="line"/>
      <point x="280" y="596" type="line"/>
      <point x="1480" y="596" type="line"/>
      <point x="1480" y="628" type="line"/>
    </contour>
  </outline>
  <guideline angle="0" x="0" y="612"/>
</glyph>
<glyph name="uni040B" format="2">
  <advance width="4092"/>
  <unicode hex="040B"/>
  <outline>
    <contour>
      <point x="1054" y="0" type="line"/>
      <point x="1626" y="0" type="line"/>
      <point x="1626" y="836" type="line"/>
      <point x="2968" y="836" type="line" smooth="yes"/>
      <point x="3082.7" y="836"/>
      <point x="3200" y="726.552"/>
      <point x="3200" y="636" type="qcurve" smooth="yes"/>
      <point x="3200" y="0" type="line"/>
      <point x="3772" y="0" type="line"/>
      <point x="3772" y="538" type="line" smooth="yes"/>
      <point x="3772" y="638.5"/>
      <point x="3713.5" y="768"/>
      <point x="3605.5" y="843"/>
      <point x="3452.5" y="872"/>
      <point x="3358" y="872" type="qcurve" smooth="yes"/>
      <point x="1626" y="872" type="line"/>
      <point x="1626" y="1364" type="line"/>
      <point x="2670" y="1364" type="line"/>
      <point x="2670" y="1400" type="line"/>
      <point x="10" y="1400" type="line"/>
      <point x="10" y="1364" type="line"/>
      <point x="1054" y="1364" type="line"/>
    </contour>
  </outline>
</glyph>
<glyph name="uni040E" format="2">
  <advance width="2704"/>
  <unicode hex="040E"/>
  <anchor x="1378" y="1937" name="top"/>
  <outline>
    <contour>
      <point x="452" y="0" type="line"/>
      <point x="904" y="0" type="line" smooth="yes"/>
      <point x="989.27" y="0"/>
      <point x="1143.1" y="66.9142"/>
      <point x="1208" y="122" type="qcurve" smooth="yes"/>
      <point x="2698" y="1400" type="line"/>
      <point x="2640" y="1400" type="line"/>
      <point x="1703" y="595" type="line"/>
      <point x="843" y="1400" type="line"/>
      <point x="6" y="1400" type="line"/>
      <point x="1268" y="219" type="line"/>
      <point x="1175" y="139" type="line" smooth="yes"/>
      <point x="1111.61" y="83.9142"/>
      <point x="987.761" y="32"/>
      <point x="904" y="32" type="qcurve" smooth="yes"/>
      <point x="445" y="32" type="line"/>
    </contour>
    <contour>
      <point x="1379" y="1475" type="qcurve" smooth="yes"/>
      <point x="1524.12" y="1475"/>
      <point x="1709.78" y="1513.59"/>
      <point x="1816.47" y="1599.66"/>
      <point x="1857" y="1737.62"/>
      <point x="1857" y="1837" type="qcurve"/>
      <point x="1592" y="1837" type="line"/>
      <point x="1592" y="1726.75"/>
      <point x="1560.31" y="1596.06"/>
      <point x="1503.69" y="1527.44"/>
      <point x="1425.5" y="1507"/>
      <point x="1379" y="1507" type="qcurve" smooth="yes"/>
      <point x="1331.38" y="1507"/>
      <point x="1252.28" y="1527.44"/>
      <point x="1195.47" y="1596.06"/>
      <point x="1164" y="1726.75"/>
      <point x="1164" y="1837" type="qcurve"/>
      <point x="899" y="1837" type="line"/>
      <point x="899" y="1737.62"/>
      <point x="940.156" y="1599.66"/>
      <point x="1047.59" y="1513.59"/>
      <point x="1233.88" y="1475"/>
    </contour>
  </outline>
  <guideline angle="90" x="400" y="0"/>
</glyph>
<glyph name="uni0416" format="2">
  <advance width="4460"/>
  <unicode hex="0416"/>
  <anchor x="2297" y="1550" name="top"/>
  <anchor x="2297" y="-150" name="bottom"/>
  <outline>
    <contour>
      <point x="6" y="0" type="line"/>
      <point x="952" y="0" type="line"/>
      <point x="1949" y="609" type="line"/>
      <point x="1949" y="0" type="line"/>
      <point x="2521" y="0" type="line"/>
      <point x="2521" y="609" type="line"/>
      <point x="3518" y="0" type="line"/>
      <point x="4454" y="0" type="line"/>
      <point x="2922" y="899" type="line"/>
      <point x="4335" y="1400" type="line"/>
      <point x="4224" y="1400" type="line"/>
      <point x="2521" y="796" type="line"/>
      <point x="2521" y="1400" type="line"/>
      <point x="1949" y="1400" type="line"/>
      <point x="1949" y="796" type="line"/>
      <point x="246" y="1400" type="line"/>
      <point x="135" y="1400" type="line"/>
      <point x="1549" y="900" type="line"/>
    </contour>
  </outline>
</glyph>
<glyph name="uni041C" format="2">
  <advance width="3318"/>
  <unicode hex="041C"/>
  <anchor x="1660" y="1550" name="top"/>
  <anchor x="1660" y="-150" name="bottom"/>
  <outline>
    <contour>
      <point x="400" y="0" type="line"/>
      <point x="438" y="0" type="line"/>
      <point x="438" y="1027" type="line"/>
      <point x="1438" y="176" type="line"/>
      <point x="2346" y="1027" type="line"/>
      <point x="2346" y="0" type="line"/>
      <point x="2918" y="0" type="line"/>
      <point x="2918" y="1400" type="line"/>
      <point x="2691" y="1400" type="line"/>
      <point x="1778" y="545" type="line"/>
      <point x="772" y="1400" type="line"/>
      <point x="400" y="1400" type="line"/>
    </contour>
  </outline>
</glyph>
<glyph name="uni0422" format="2">
  <advance width="2680"/>
  <unicode hex="0422"/>
  <anchor x="1340" y="1550" name="top"/>
  <anchor x="1340" y="-150" name="bottom"/>
  <outline>
    <contour>
      <point x="1054" y="0" type="line"/>
      <point x="1626" y="0" type="line"/>
      <point x="1626" y="1364" type="line"/>
      <point x="2670" y="1364" type="line"/>
      <point x="2670" y="1400" type="line"/>
      <point x="10" y="1400" type="line"/>
      <point x="10" y="1364" type="line"/>
      <point x="1054" y="1364" type="line"/>
    </contour>
  </outline>
</glyph>
<glyph name="uni0423" format="2">
  <advance width="2704"/>
  <unicode hex="0423"/>
  <anchor x="1378" y="1550" name="top"/>
  <outline>
    <contour>
      <point x="452" y="0" type="line"/>
      <point x="904" y="0" type="line" smooth="yes"/>
      <point x="989.27" y="0"/>
      <point x="1143.1" y="66.9142"/>
      <point x="1208" y="122" type="qcurve" smooth="yes"/>
      <point x="2698" y="1400" type="line"/>
      <point x="2640" y="1400" type="line"/>
      <point x="1703" y="595" type="line"/>
      <point x="843" y="1400" type="line"/>
      <point x="6" y="1400" type="line"/>
      <point x="1268" y="219" type="line"/>
      <point x="1175" y="139" type="line" smooth="yes"/>
      <point x="1111.61" y="83.9142"/>
      <point x="987.761" y="32"/>
      <point x="904" y="32" type="qcurve" smooth="yes"/>
      <point x="445" y="32" type="line"/>
    </contour>
  </outline>
  <guideline angle="90" x="400" y="0"/>
</glyph>
<glyph name="uni0425" format="2">
  <advance width="2814"/>
  <unicode hex="0425"/>
  <anchor x="1407" y="1550" name="top"/>
  <anchor x="1407" y="-150" name="bottom"/>
  <outline>
    <contour>
      <point x="92" y="0" type="line"/>
      <point x="163" y="0" type="line"/>
      <point x="1165" y="582" type="line"/>
      <point x="1947" y="0" type="line"/>
      <point x="2808" y="0" type="line"/>
      <point x="1624" y="841" type="line"/>
      <point x="2551" y="1400" type="line"/>
      <point x="2482" y="1400" type="line"/>
      <point x="1591" y="863" type="line"/>
      <point x="862" y="1400" type="line"/>
      <point x="6" y="1400" type="line"/>
      <point x="1132" y="604" type="line"/>
    </contour>
  </outline>
</glyph>
<glyph name="uni0429" format="2">
  <advance width="4352"/>
  <unicode hex="0429"/>
  <outline>
    <contour>
      <point x="400" y="0" type="line"/>
      <point x="3855" y="0" type="line"/>
      <point x="3885" y="-364" type="line"/>
      <point x="4335" y="-364" type="line"/>
      <point x="4335" y="36" type="line"/>
      <point x="3952" y="36" type="line"/>
      <point x="3952" y="1400" type="line"/>
      <point x="3380" y="1400" type="line"/>
      <point x="3380" y="36" type="line"/>
      <point x="2462" y="36" type="line"/>
      <point x="2462" y="1400" type="line"/>
      <point x="1890" y="1400" type="line"/>
      <point x="1890" y="36" type="line"/>
      <point x="972" y="36" type="line"/>
      <point x="972" y="1400" type="line"/>
      <point x="400" y="1400" type="line"/>
    </contour>
  </outline>
</glyph>
<glyph name="uni042E" format="2">
  <advance width="4598"/>
  <unicode hex="042E"/>
  <outline>
    <contour>
      <point x="400" y="0" type="line"/>
      <point x="972" y="0" type="line"/>
      <point x="972" y="710" type="line"/>
      <point x="1702" y="710" type="line"/>
      <point x="1702" y="346" type="line" smooth="yes"/>
      <point x="1702" y="139.24"/>
      <point x="1909.79" y="0"/>
      <point x="2109" y="0" type="qcurve" smooth="yes"/>
      <point x="3814" y="0" type="line" smooth="yes"/>
      <point x="4013.21" y="0"/>
      <point x="4228" y="137.73"/>
      <point x="4228" y="346" type="qcurve" smooth="yes"/>
      <point x="4228" y="1066" type="line" smooth="yes"/>
      <point x="4228" y="1267"/>
      <point x="4003" y="1400"/>
      <point x="3814" y="1400" type="qcurve" smooth="yes"/>
      <point x="2109" y="1400" type="line" smooth="yes"/>
      <point x="1920" y="1400"/>
      <point x="1702" y="1267"/>
      <point x="1702" y="1066" type="qcurve" smooth="yes"/>
      <point x="1702" y="746" type="line"/>
      <point x="972" y="746" type="line"/>
      <point x="972" y="1400" type="line"/>
      <point x="400" y="1400" type="line"/>
    </contour>
    <contour>
      <point x="2269" y="40" type="line"/>
      <point x="2269" y="40"/>
      <point x="2269" y="40"/>
      <point x="2269" y="40" type="qcurve"/>
      <point x="2269" y="1360" type="line"/>
      <point x="2269" y="1360"/>
      <point x="2269" y="1360"/>
      <point x="2269" y="1360" type="qcurve"/>
      <point x="3656" y="1360" type="line"/>
      <point x="3656" y="1360"/>
      <point x="3656" y="1360"/>
      <point x="3656" y="1360" type="qcurve"/>
      <point x="3656" y="40" type="line"/>
      <point x="3656" y="40"/>
      <point x="3656" y="40"/>
      <point x="3656" y="40" type="qcurve"/>
    </contour>
  </outline>
</glyph>
<glyph name="uni0431" format="2">
  <advance width="2566"/>
  <unicode hex="0431"/>
  <outline>
    <contour>
      <point x="2204" y="1400" type="line"/>
      <point x="2204" y="1388" type="line" smooth="yes"/>
      <point x="2204" y="1369.89"/>
      <point x="2177.17" y="1350.75"/>
      <point x="2150" y="1350" type="qcurve" smooth="yes"/>
      <point x="704" y="1312" type="line" smooth="yes"/>
      <point x="491.957" y="1306.72"/>
      <point x="296" y="1113.72"/>
      <point x="296" y="913" type="qcurve" smooth="yes"/>
      <point x="296" y="265" type="line" smooth="yes"/>
      <point x="296" y="117.098"/>
      <point x="442.933" y="-6"/>
      <point x="618" y="-6" type="qcurve" smooth="yes"/>
      <point x="1947" y="-6" type="line" smooth="yes"/>
      <point x="2124.33" y="-6"/>
      <point x="2270" y="117.608"/>
      <point x="2270" y="264" type="qcurve" smooth="yes"/>
      <point x="2270" y="587" type="line" smooth="yes"/>
      <point x="2270" y="727.356"/>
      <point x="2126.84" y="851"/>
      <point x="1948" y="851" type="qcurve" smooth="yes"/>
      <point x="645" y="851" type="line" smooth="yes"/>
      <point x="498.608" y="851"/>
      <point x="350.865" y="767.816"/>
      <point x="332" y="675" type="qcurve"/>
      <point x="332" y="735" type="line" smooth="yes"/>
      <point x="332" y="836.871"/>
      <point x="466.902" y="941.736"/>
      <point x="565" y="944" type="qcurve" smooth="yes"/>
      <point x="1931" y="977" type="line" smooth="yes"/>
      <point x="2015" y="978.875"/>
      <point x="2132.56" y="1013.19"/>
      <point x="2206.44" y="1093.81"/>
      <point x="2240" y="1228.62"/>
      <point x="2240" y="1331" type="qcurve" smooth="yes"/>
      <point x="2240" y="1400" type="line"/>
    </contour>
    <contour>
      <point x="820" y="26" type="line"/>
      <point x="820" y="26"/>
      <point x="820" y="26"/>
      <point x="820" y="26" type="qcurve"/>
      <point x="820" y="819" type="line"/>
      <point x="820" y="819"/>
      <point x="820" y="819"/>
      <point x="820" y="819" type="qcurve"/>
      <point x="1746" y="819" type="line"/>
      <point x="1746" y="819"/>
      <point x="1746" y="819"/>
      <point x="1746" y="819" type="qcurve"/>
      <point x="1746" y="26" type="line"/>
      <point x="1746" y="26"/>
      <point x="1746" y="26"/>
      <point x="1746" y="26" type="qcurve"/>
    </contour>
  </outline>
</glyph>
<glyph name="uni0432" format="2">
  <advance width="2728"/>
  <unicode hex="0432"/>
  <outline>
    <contour>
      <point x="308" y="0" type="line"/>
      <point x="1976" y="0" type="line" smooth="yes"/>
      <point x="2221.24" y="0"/>
      <point x="2432" y="127.436"/>
      <point x="2432" y="261" type="qcurve" smooth="yes"/>
      <point x="2432" y="281" type="line" smooth="yes"/>
      <point x="2432" y="365.515"/>
      <point x="2313.07" y="489.589"/>
      <point x="2178" y="516" type="qcurve"/>
      <point x="2291.94" y="543.92"/>
      <point x="2392" y="656.522"/>
      <point x="2392" y="735" type="qcurve" smooth="yes"/>
      <point x="2392" y="755" type="line" smooth="yes"/>
      <point x="2392" y="889.319"/>
      <point x="2165" y="1024"/>
      <point x="1919" y="1024" type="qcurve" smooth="yes"/>
      <point x="308" y="1024" type="line"/>
    </contour>
    <contour>
      <point x="832" y="32" type="line"/>
      <point x="832" y="509" type="line"/>
      <point x="1728" y="509" type="line" smooth="yes"/>
      <point x="1817.04" y="509"/>
      <point x="1927" y="422.38"/>
      <point x="1927" y="319" type="qcurve" smooth="yes"/>
      <point x="1927" y="222" type="line" smooth="yes"/>
      <point x="1927" y="111.828"/>
      <point x="1802.83" y="32"/>
      <point x="1707" y="32" type="qcurve" smooth="yes"/>
    </contour>
    <contour>
      <point x="832" y="541" type="line"/>
      <point x="832" y="992" type="line"/>
      <point x="1681" y="992" type="line" smooth="yes"/>
      <point x="1779.85" y="992"/>
      <point x="1901" y="910.098"/>
      <point x="1901" y="812" type="qcurve" smooth="yes"/>
      <point x="1901" y="721" type="line" smooth="yes"/>
      <point x="1901" y="622.902"/>
      <point x="1779.85" y="541"/>
      <point x="1681" y="541" type="qcurve" smooth="yes"/>
    </contour>
  </outline>
</glyph>
<glyph name="uni0433" format="2">
  <advance width="2012"/>
  <unicode hex="0433"/>
  <anchor x="1114" y="1150" name="top"/>
  <outline>
    <contour>
      <point x="308" y="0" type="line"/>
      <point x="832" y="0" type="line"/>
      <point x="832" y="992" type="line"/>
      <point x="1921" y="992" type="line"/>
      <point x="1921" y="1024" type="line"/>
      <point x="308" y="1024" type="line"/>
    </contour>
  </outline>
</glyph>
<glyph name="uni0436" format="2">
  <advance width="3686"/>
  <unicode hex="0436"/>
  <anchor x="1843" y="1150" name="top"/>
  <outline>
    <contour>
      <point x="0" y="0" type="line"/>
      <point x="864" y="0" type="line"/>
      <point x="1581" y="429" type="line"/>
      <point x="1581" y="0" type="line"/>
      <point x="2105" y="0" type="line"/>
      <point x="2105" y="429" type="line"/>
      <point x="2822" y="0" type="line"/>
      <point x="3686" y="0" type="line"/>
      <point x="2505" y="674" type="line"/>
      <point x="3458" y="1024" type="line"/>
      <point x="3349" y="1024" type="line"/>
      <point x="2105" y="563" type="line"/>
      <point x="2105" y="1024" type="line"/>
      <point x="1581" y="1024" type="line"/>
      <point x="1581" y="563" type="line"/>
      <point x="337" y="1024" type="line"/>
      <point x="228" y="1024" type="line"/>
      <point x="1181" y="674" type="line"/>
    </contour>
  </outline>
</glyph>
<glyph name="uni043C" format="2">
  <advance width="2472"/>
  <unicode hex="043C"/>
  <outline>
    <contour>
      <point x="308" y="0" type="line"/>
      <point x="344" y="0" type="line"/>
      <point x="344" y="781" type="line"/>
      <point x="994" y="93" type="line"/>
      <point x="1639" y="777" type="line"/>
      <point x="1639" y="0" type="line"/>
      <point x="2164" y="0" type="line"/>
      <point x="2164" y="1024" type="line"/>
      <point x="1819" y="1024" type="line"/>
      <point x="1250" y="423" type="line"/>
      <point x="680" y="1024" type="line"/>
      <point x="308" y="1024" type="line"/>
    </contour>
  </outline>
</glyph>
<glyph name="uni0449" format="2">
  <advance width="3625"/>
  <unicode hex="0449"/>
  <outline>
    <contour>
      <point x="308" y="0" type="line"/>
      <point x="3134" y="0" type="line"/>
      <point x="3163" y="-364" type="line"/>
      <point x="3600" y="-364" type="line"/>
      <point x="3600" y="32" type="line"/>
      <point x="3317" y="32" type="line"/>
      <point x="3317" y="1024" type="line"/>
      <point x="2793" y="1024" type="line"/>
      <point x="2793" y="32" type="line"/>
      <point x="2075" y="32" type="line"/>
      <point x="2075" y="1024" type="line"/>
      <point x="1551" y="1024" type="line"/>
      <point x="1551" y="32" type="line"/>
      <point x="832" y="32" type="line"/>
      <point x="832" y="1024" type="line"/>
      <point x="308" y="1024" type="line"/>
    </contour>
  </outline>
  <guideline angle="90" color="1,0,0,1" name="align" x="3562" y="0"/>
</glyph>
<glyph name="uni044C" format="2">
  <advance width="2623"/>
  <unicode hex="044C"/>
  <outline>
    <contour>
      <point x="308" y="0" type="line"/>
      <point x="2021" y="0" type="line" smooth="yes"/>
      <point x="2180.98" y="0"/>
      <point x="2327" y="131.209"/>
      <point x="2327" y="261" type="qcurve" smooth="yes"/>
      <point x="2327" y="489" type="line" smooth="yes"/>
      <point x="2327" y="618.791"/>
      <point x="2180.98" y="750"/>
      <point x="2021" y="750" type="qcurve" smooth="yes"/>
      <point x="908" y="750" type="line" smooth="yes"/>
      <point x="876.307" y="750"/>
      <point x="838.037" y="742.055"/>
      <point x="832" y="733" type="qcurve"/>
      <point x="832" y="1024" type="line"/>
      <point x="308" y="1024" type="line"/>
    </contour>
    <contour>
      <point x="832" y="29" type="line"/>
      <point x="832" y="718" type="line"/>
      <point x="1803" y="718" type="line"/>
      <point x="1803" y="718"/>
      <point x="1803" y="718"/>
      <point x="1803" y="718" type="qcurve"/>
      <point x="1803" y="29" type="line"/>
      <point x="1803" y="29"/>
      <point x="1803" y="29"/>
      <point x="1803" y="29" type="qcurve"/>
    </contour>
  </outline>
</glyph>
<glyph name="uni0459" format="2">
  <advance width="4013"/>
  <unicode hex="0459"/>
  <outline>
    <contour>
      <point x="0" y="0" type="line"/>
      <point x="51" y="0" type="line"/>
      <point x="1241" y="992" type="line"/>
      <point x="1698" y="992" type="line"/>
      <point x="1698" y="0" type="line"/>
      <point x="3411" y="0" type="line" smooth="yes"/>
      <point x="3572.48" y="0"/>
      <point x="3717" y="129.927"/>
      <point x="3717" y="265" type="qcurve" smooth="yes"/>
      <point x="3717" y="489" type="line" smooth="yes"/>
      <point x="3717" y="618.791"/>
      <point x="3570.98" y="750"/>
      <point x="3411" y="750" type="qcurve" smooth="yes"/>
      <point x="2298" y="750" type="line" smooth="yes"/>
      <point x="2266.31" y="750"/>
      <point x="2228.04" y="742.055"/>
      <point x="2222" y="733" type="qcurve"/>
      <point x="2222" y="1024" type="line"/>
      <point x="1228" y="1024" type="line"/>
    </contour>
    <contour>
      <point x="2222" y="29" type="line"/>
      <point x="2222" y="718" type="line"/>
      <point x="3193" y="718" type="line"/>
      <point x="3193" y="718"/>
      <point x="3193" y="718"/>
      <point x="3193" y="718" type="qcurve"/>
      <point x="3193" y="29" type="line"/>
      <point x="3193" y="29"/>
      <point x="3193" y="29"/>
      <point x="3193" y="29" type="qcurve"/>
    </contour>
  </outline>
  <guideline angle="90" color="1,0,0,1" x="1368" y="0"/>
</glyph>
<glyph name="uni0493" format="2">
  <advance width="2112"/>
  <unicode hex="0493"/>
  <outline>
    <contour>
      <point x="408" y="0" type="line"/>
      <point x="932" y="0" type="line"/>
      <point x="932" y="480" type="line"/>
      <point x="1350" y="480" type="line"/>
      <point x="1350" y="512" type="line"/>
      <point x="932" y="512" type="line"/>
      <point x="932" y="992" type="line"/>
      <point x="2021" y="992" type="line"/>
      <point x="2021" y="1024" type="line"/>
      <point x="408" y="1024" type="line"/>
      <point x="408" y="512" type="line"/>
      <point x="308" y="512" type="line"/>
      <point x="308" y="480" type="line"/>
      <point x="408" y="480" type="line"/>
    </contour>
  </outline>
</glyph>
<glyph name="uni0498" format="2">
  <advance width="3302"/>
  <unicode hex="0498"/>
  <anchor x="1617" y="1550" name="top"/>
  <anchor x="1675" y="0" name="ogonek"/>
  <outline>
    <contour>
      <point x="330" y="418" type="line"/>
      <point x="330" y="320" type="line" smooth="yes"/>
      <point x="330" y="128.332"/>
      <point x="535.387" y="0"/>
      <point x="718" y="0" type="qcurve" smooth="yes"/>
      <point x="2568" y="0" type="line" smooth="yes"/>
      <point x="2662.5" y="0"/>
      <point x="2815.5" y="29"/>
      <point x="2923.5" y="104"/>
      <point x="2982" y="233.5"/>
      <point x="2982" y="334" type="qcurve" smooth="yes"/>
      <point x="2982" y="402" type="line" smooth="yes"/>
      <point x="2982" y="555.184"/>
      <point x="2850.96" y="699.362"/>
      <point x="2734" y="722" type="qcurve"/>
      <point x="2836.63" y="750.675"/>
      <point x="2950" y="895.908"/>
      <point x="2950" y="1034" type="qcurve" smooth="yes"/>
      <point x="2950" y="1074" type="line" smooth="yes"/>
      <point x="2950" y="1171.5"/>
      <point x="2891.5" y="1297.75"/>
      <point x="2783.5" y="1371.25"/>
      <point x="2630.5" y="1400"/>
      <point x="2536" y="1400" type="qcurve" smooth="yes"/>
      <point x="718" y="1400" type="line" smooth="yes"/>
      <point x="619.75" y="1400"/>
      <point x="473.938" y="1361.12"/>
      <point x="377.562" y="1283.88"/>
      <point x="330" y="1168.5"/>
      <point x="330" y="1092" type="qcurve" smooth="yes"/>
      <point x="330" y="964" type="line"/>
      <point x="902" y="880" type="line"/>
      <point x="902" y="1364" type="line"/>
      <point x="902" y="1364"/>
      <point x="902" y="1364"/>
      <point x="902" y="1364" type="qcurve"/>
      <point x="2162" y="1364" type="line" smooth="yes"/>
      <point x="2276.7" y="1364"/>
      <point x="2394" y="1254.55"/>
      <point x="2394" y="1164" type="qcurve" smooth="yes"/>
      <point x="2394" y="936" type="line" smooth="yes"/>
      <point x="2394" y="845.448"/>
      <point x="2276.7" y="736"/>
      <point x="2162" y="736" type="qcurve" smooth="yes"/>
      <point x="1025" y="736" type="line"/>
      <point x="1025" y="700" type="line"/>
      <point x="2194" y="700" type="line" smooth="yes"/>
      <point x="2308.7" y="700"/>
      <point x="2426" y="590.552"/>
      <point x="2426" y="500" type="qcurve" smooth="yes"/>
      <point x="2426" y="236" type="line" smooth="yes"/>
      <point x="2426" y="145.448"/>
      <point x="2308.7" y="36"/>
      <point x="2194" y="36" type="qcurve" smooth="yes"/>
      <point x="902" y="36" type="line"/>
      <point x="902" y="36"/>
      <point x="902" y="36"/>
      <point x="902" y="36" type="qcurve"/>
      <point x="902" y="502" type="line"/>
    </contour>
    <contour>
      <point x="1646.5" y="-428" type="qcurve" smooth="yes"/>
      <point x="1770.82" y="-428"/>
      <point x="1947" y="-324.797"/>
      <point x="1947" y="-235" type="qcurve"/>
      <point x="1907.76" y="-182.178"/>
      <point x="1814.24" y="-53.5766"/>
      <point x="1775" y="0" type="qcurve"/>
      <point x="1737" y="0" type="line"/>
      <point x="1754.36" y="-19.6196"/>
      <point x="1771" y="-55.9474"/>
      <point x="1771" y="-74.2354" type="qcurve" smooth="yes"/>
      <point x="1771" y="-125.371"/>
      <point x="1654.73" y="-190"/>
      <point x="1561.67" y="-190" type="qcurve" smooth="yes"/>
      <point x="1515.13" y="-190"/>
      <point x="1419.58" y="-172.11"/>
      <point x="1366" y="-154" type="qcurve"/>
      <point x="1478" y="-400" type="line"/>
      <point x="1525.54" y="-415.092"/>
      <point x="1602.54" y="-428"/>
    </contour>
  </outline>
</glyph>
<glyph name="uni04B9" format="2">
  <advance width="2440"/>
  <unicode hex="04B9"/>
  <outline>
    <contour>
      <point x="1608" y="0" type="line"/>
      <point x="2132" y="0" type="line"/>
      <point x="2132" y="1024" type="line"/>
      <point x="1608" y="1024" type="line"/>
      <point x="1608" y="400" type="line"/>
      <point x="1235" y="400" type="line"/>
      <point x="1235" y="852" type="line"/>
      <point x="1203" y="852" type="line"/>
      <point x="1203" y="400" type="line"/>
      <point x="824" y="400" type="line"/>
      <point x="824" y="400"/>
      <point x="824" y="400"/>
      <point x="824" y="400" type="qcurve"/>
      <point x="824" y="1024" type="line"/>
      <point x="300" y="1024" type="line"/>
      <point x="300" y="665" type="line" smooth="yes"/>
      <point x="300" y="589.625"/>
      <point x="340.469" y="479.531"/>
      <point x="418.281" y="407.719"/>
      <point x="531.875" y="373"/>
      <point x="605" y="373" type="qcurve" smooth="yes"/>
      <point x="1203" y="373" type="line"/>
      <point x="1203" y="167" type="line"/>
      <point x="1235" y="167" type="line"/>
      <point x="1235" y="373" type="line"/>
      <point x="1608" y="373" type="line"/>
    </contour>
  </outline>
</glyph>
<glyph name="uni04BA" format="2">
  <advance width="3234"/>
  <unicode hex="04BA"/>
  <anchor x="1617" y="-150" name="top"/>
  <outline>
    <contour>
      <point x="972" y="1400" type="line"/>
      <point x="400" y="1400" type="line"/>
      <point x="400" y="0" type="line"/>
      <point x="972" y="0" type="line"/>
      <point x="972" y="886" type="line"/>
      <point x="2262" y="886" type="line"/>
      <point x="2262" y="886"/>
      <point x="2262" y="886"/>
      <point x="2262" y="886" type="qcurve"/>
      <point x="2262" y="0" type="line"/>
      <point x="2834" y="0" type="line"/>
      <point x="2834" y="578" type="line" smooth="yes"/>
      <point x="2834" y="683.75"/>
      <point x="2777.94" y="817.688"/>
      <point x="2672.56" y="893.812"/>
      <point x="2521.25" y="922"/>
      <point x="2426" y="922" type="qcurve" smooth="yes"/>
      <point x="972" y="922" type="line"/>
    </contour>
  </outline>
</glyph>
<glyph name="uni04CC" format="2">
  <advance width="2440"/>
  <unicode hex="04CC"/>
  <outline>
    <contour>
      <point x="1945" y="0" type="line"/>
      <point x="2132" y="0" type="line" name="ATT"/>
      <point x="2132" y="1024" type="line"/>
      <point x="1608" y="1024" type="line"/>
      <point x="1608" y="360" type="line"/>
      <point x="824" y="360" type="line"/>
      <point x="824" y="360"/>
      <point x="824" y="360"/>
      <point x="824" y="360" type="qcurve"/>
      <point x="824" y="1024" type="line"/>
      <point x="300" y="1024" type="line"/>
      <point x="300" y="625" type="line" smooth="yes"/>
      <point x="300" y="549.625"/>
      <point x="340.469" y="439.531"/>
      <point x="418.281" y="367.719"/>
      <point x="531.875" y="333"/>
      <point x="605" y="333" type="qcurve" smooth="yes"/>
      <point x="1608" y="333" type="line"/>
      <point x="1608" y="32" type="line"/>
      <point x="1376" y="32" type="line"/>
      <point x="1376" y="-280" type="line"/>
      <point x="1730" y="-280" type="line"/>
    </contour>
  </outline>
</glyph>
<glyph name="uni04D4" format="2">
  <advance width="4569"/>
  <unicode hex="04D4"/>
  <anchor x="2743" y="1550" name="top"/>
  <anchor x="2102" y="-150" name="bottom"/>
  <outline>
    <contour>
      <point x="6" y="0" type="line"/>
      <point x="60" y="0" type="line"/>
      <point x="453" y="338" type="line"/>
      <point x="2219" y="338" type="line"/>
      <point x="2219" y="0" type="line"/>
      <point x="4559" y="0" type="line"/>
      <point x="4559" y="36" type="line"/>
      <point x="2791" y="36" type="line"/>
      <point x="2791" y="700" type="line"/>
      <point x="3873" y="700" type="line"/>
      <point x="3873" y="736" type="line"/>
      <point x="2791" y="736" type="line"/>
      <point x="2791" y="1364" type="line"/>
      <point x="4525" y="1364" type="line"/>
      <point x="4525" y="1400" type="line"/>
      <point x="1624" y="1400" type="line"/>
    </contour>
    <contour>
      <point x="494" y="374" type="line"/>
      <point x="1644" y="1364" type="line"/>
      <point x="2219" y="1364" type="line"/>
      <point x="2219" y="374" type="line"/>
    </contour>
  </outline>
</glyph>
<glyph name="uni04D8" format="2">
  <advance width="3242"/>
  <unicode hex="04D8"/>
  <anchor x="1620" y="1550" name="top"/>
  <anchor x="1620" y="-150" name="bottom"/>
  <outline>
    <contour>
      <point x="784" y="0" type="qcurve" smooth="yes"/>
      <point x="2460" y="0" type="line" smooth="yes"/>
      <point x="2659.21" y="0"/>
      <point x="2872" y="139.24"/>
      <point x="2872" y="346" type="qcurve" smooth="yes"/>
      <point x="2872" y="1066" type="line" smooth="yes"/>
      <point x="2872" y="1267"/>
      <point x="2649" y="1400"/>
      <point x="2460" y="1400" type="qcurve" smooth="yes"/>
      <point x="790" y="1400" type="line" smooth="yes"/>
      <point x="601" y="1400"/>
      <point x="376" y="1267"/>
      <point x="376" y="1066" type="qcurve" smooth="yes"/>
      <point x="376" y="1012" type="line"/>
      <point x="948" y="906" type="line"/>
      <point x="948" y="1364" type="line"/>
      <point x="948" y="1364"/>
      <point x="948" y="1364"/>
      <point x="948" y="1364" type="qcurve"/>
      <point x="2300" y="1364" type="line"/>
      <point x="2300" y="1364"/>
      <point x="2300" y="1364"/>
      <point x="2300" y="1364" type="qcurve"/>
      <point x="2300" y="700" type="line"/>
      <point x="370" y="700" type="line"/>
      <point x="370" y="346" type="line" smooth="yes"/>
      <point x="370" y="139"/>
      <point x="586" y="0"/>
    </contour>
    <contour>
      <point x="942" y="664" type="line"/>
      <point x="2300" y="664" type="line"/>
      <point x="2300" y="36" type="line"/>
      <point x="2300" y="36"/>
      <point x="2300" y="36"/>
      <point x="2300" y="36" type="qcurve"/>
      <point x="942" y="36" type="line"/>
      <point x="942" y="36"/>
      <point x="942" y="36"/>
      <point x="942" y="36" type="qcurve"/>
    </contour>
  </outline>
</glyph>
<glyph name="uni04DD" format="2">
  <advance width="3686"/>
  <unicode hex="04DD"/>
  <anchor x="1843" y="1548" name="top"/>
  <outline>
    <contour>
      <point x="0" y="0" type="line"/>
      <point x="864" y="0" type="line"/>
      <point x="1581" y="429" type="line"/>
      <point x="1581" y="0" type="line"/>
      <point x="2105" y="0" type="line"/>
      <point x="2105" y="429" type="line"/>
      <point x="2822" y="0" type="line"/>
      <point x="3686" y="0" type="line"/>
      <point x="2505" y="674" type="line"/>
      <point x="3458" y="1024" type="line"/>
      <point x="3349" y="1024" type="line"/>
      <point x="2105" y="563" type="line"/>
      <point x="2105" y="1024" type="line"/>
      <point x="1581" y="1024" type="line"/>
      <point x="1581" y="563" type="line"/>
      <point x="337" y="1024" type="line"/>
      <point x="228" y="1024" type="line"/>
      <point x="1181" y="674" type="line"/>
    </contour>
    <contour>
      <point x="1477" y="1088" type="qcurve" smooth="yes"/>
      <point x="1629" y="1088" type="line" smooth="yes"/>
      <point x="1710.5" y="1088"/>
      <point x="1739" y="1116.5"/>
      <point x="1739" y="1198" type="qcurve" smooth="yes"/>
      <point x="1739" y="1320" type="line" smooth="yes"/>
      <point x="1739" y="1399.99"/>
      <point x="1710.5" y="1428"/>
      <point x="1629" y="1428" type="qcurve" smooth="yes"/>
      <point x="1477" y="1428" type="line" smooth="yes"/>
      <point x="1395.5" y="1428"/>
      <point x="1367" y="1399.99"/>
      <point x="1367" y="1320" type="qcurve" smooth="yes"/>
      <point x="1367" y="1198" type="line" smooth="yes"/>
      <point x="1367" y="1116.5"/>
      <point x="1395.5" y="1088"/>
    </contour>
    <contour>
      <point x="2057" y="1088" type="qcurve" smooth="yes"/>
      <point x="2209" y="1088" type="line" smooth="yes"/>
      <point x="2290.5" y="1088"/>
      <point x="2319" y="1116.5"/>
      <point x="2319" y="1198" type="qcurve" smooth="yes"/>
      <point x="2319" y="1320" type="line" smooth="yes"/>
      <point x="2319" y="1399.99"/>
      <point x="2290.5" y="1428"/>
      <point x="2209" y="1428" type="qcurve" smooth="yes"/>
      <point x="2057" y="1428" type="line" smooth="yes"/>
      <point x="1975.5" y="1428"/>
      <point x="1947" y="1399.99"/>
      <point x="1947" y="1320" type="qcurve" smooth="yes"/>
      <point x="1947" y="1198" type="line" smooth="yes"/>
      <point x="1947" y="1116.5"/>
      <point x="1975.5" y="1088"/>
    </contour>
  </outline>
</glyph>
<glyph name="uni04EE" format="2">
  <advance width="2704"/>
  <unicode hex="04EE"/>
  <anchor x="1378" y="1734" name="top"/>
  <outline>
    <contour>
      <point x="452" y="0" type="line"/>
      <point x="904" y="0" type="line" smooth="yes"/>
      <point x="989.27" y="0"/>
      <point x="1143.1" y="66.9142"/>
      <point x="1208" y="122" type="qcurve" smooth="yes"/>
      <point x="2698" y="1400" type="line"/>
      <point x="2640" y="1400" type="line"/>
      <point x="1703" y="595" type="line"/>
      <point x="843" y="1400" type="line"/>
      <point x="6" y="1400" type="line"/>
      <point x="1268" y="219" type="line"/>
      <point x="1175" y="139" type="line" smooth="yes"/>
      <point x="1111.61" y="83.9142"/>
      <point x="987.761" y="32"/>
      <point x="904" y="32" type="qcurve" smooth="yes"/>
      <point x="445" y="32" type="line"/>
    </contour>
    <contour>
      <point x="848" y="1598" type="line"/>
      <point x="1908" y="1598" type="line"/>
      <point x="1908" y="1634" type="line"/>
      <point x="848" y="1634" type="line"/>
    </contour>
  </outline>
  <guideline angle="90" x="400" y="0"/>
</glyph>
<glyph name="uni04F0" format="2">
  <advance width="2704"/>
  <unicode hex="04F0"/>
  <anchor x="1378" y="1948" name="top"/>
  <outline>
    <contour>
      <point x="452" y="0" type="line"/>
      <point x="904" y="0" type="line" smooth="yes"/>
      <point x="989.27" y="0"/>
      <point x="1143.1" y="66.9142"/>
      <point x="1208" y="122" type="qcurve" smooth="yes"/>
      <point x="2698" y="1400" type="line"/>
      <point x="2640" y="1400" type="line"/>
      <point x="1703" y="595" type="line"/>
      <point x="843" y="1400" type="line"/>
      <point x="6" y="1400" type="line"/>
      <point x="1268" y="219" type="line"/>
      <point x="1175" y="139" type="line" smooth="yes"/>
      <point x="1111.61" y="83.9142"/>
      <point x="987.761" y="32"/>
      <point x="904" y="32" type="qcurve" smooth="yes"/>
      <point x="445" y="32" type="line"/>
    </contour>
    <contour>
      <point x="1012" y="1488" type="qcurve" smooth="yes"/>
      <point x="1164" y="1488" type="line" smooth="yes"/>
      <point x="1245.5" y="1488"/>
      <point x="1274" y="1516.5"/>
      <point x="1274" y="1598" type="qcurve" smooth="yes"/>
      <point x="1274" y="1720" type="line" smooth="yes"/>
      <point x="1274" y="1799.99"/>
      <point x="1245.5" y="1828"/>
      <point x="1164" y="1828" type="qcurve" smooth="yes"/>
      <point x="1012" y="1828" type="line" smooth="yes"/>
      <point x="930.503" y="1828"/>
      <point x="902" y="1799.99"/>
      <point x="902" y="1720" type="qcurve" smooth="yes"/>
      <point x="902" y="1598" type="line" smooth="yes"/>
      <point x="902" y="1516.5"/>
      <point x="930.503" y="1488"/>
    </contour>
    <contour>
      <point x="1592" y="1488" type="qcurve" smooth="yes"/>
      <point x="1744" y="1488" type="line" smooth="yes"/>
      <point x="1825.5" y="1488"/>
      <point x="1854" y="1516.5"/>
      <point x="1854" y="1598" type="qcurve" smooth="yes"/>
      <point x="1854" y="1720" type="line" smooth="yes"/>
      <point x="1854" y="1799.99"/>
      <point x="1825.5" y="1828"/>
      <point x="1744" y="1828" type="qcurve" smooth="yes"/>
      <point x="1592" y="1828" type="line" smooth="yes"/>
      <point x="1510.5" y="1828"/>
      <point x="1482" y="1799.99"/>
      <point x="1482" y="1720" type="qcurve" smooth="yes"/>
      <point x="1482" y="1598" type="line" smooth="yes"/>
      <point x="1482" y="1516.5"/>
      <point x="1510.5" y="1488"/>
    </contour>
  </outline>
  <guideline angle="90" x="400" y="0"/>
</glyph>
<glyph name="uni04F2" format="2">
  <advance width="2704"/>
  <unicode hex="04F2"/>
  <anchor x="1378" y="1550" name="top"/>
  <anchor x="1777.4" y="1550" name="topright"/>
  <outline>
    <contour>
      <point x="452" y="0" type="line"/>
      <point x="904" y="0" type="line" smooth="yes"/>
      <point x="989.27" y="0"/>
      <point x="1143.1" y="66.9142"/>
      <point x="1208" y="122" type="qcurve" smooth="yes"/>
      <point x="2698" y="1400" type="line"/>
      <point x="2640" y="1400" type="line"/>
      <point x="1703" y="595" type="line"/>
      <point x="843" y="1400" type="line"/>
      <point x="6" y="1400" type="line"/>
      <point x="1268" y="219" type="line"/>
      <point x="1175" y="139" type="line" smooth="yes"/>
      <point x="1111.61" y="83.9142"/>
      <point x="987.761" y="32"/>
      <point x="904" y="32" type="qcurve" smooth="yes"/>
      <point x="445" y="32" type="line"/>
    </contour>
    <contour>
      <point x="942.4" y="1550" type="line"/>
      <point x="1000" y="1550" type="line"/>
      <point x="1806.4" y="1850" type="line"/>
      <point x="1165.6" y="1850" type="line"/>
    </contour>
    <contour>
      <point x="1737.4" y="1550" type="line"/>
      <point x="1795" y="1550" type="line"/>
      <point x="2601.4" y="1850" type="line"/>
      <point x="1960.6" y="1850" type="line"/>
    </contour>
  </outline>
  <guideline angle="90" x="400" y="0"/>
</glyph>
<glyph name="uni04F5" format="2">
  <advance width="2480"/>
  <unicode hex="04F5"/>
  <anchor x="1256" y="1548" name="top"/>
  <outline>
    <contour>
      <point x="1648" y="0" type="line"/>
      <point x="2172" y="0" type="line"/>
      <point x="2172" y="1024" type="line"/>
      <point x="1648" y="1024" type="line"/>
      <point x="1648" y="360" type="line"/>
      <point x="824" y="360" type="line"/>
      <point x="824" y="360"/>
      <point x="824" y="360"/>
      <point x="824" y="360" type="qcurve"/>
      <point x="824" y="1024" type="line"/>
      <point x="300" y="1024" type="line"/>
      <point x="300" y="625" type="line" smooth="yes"/>
      <point x="300" y="479.362"/>
      <point x="457.853" y="333"/>
      <point x="605" y="333" type="qcurve" smooth="yes"/>
      <point x="1648" y="333" type="line"/>
    </contour>
    <contour>
      <point x="890" y="1088" type="qcurve" smooth="yes"/>
      <point x="1042" y="1088" type="line" smooth="yes"/>
      <point x="1123.5" y="1088"/>
      <point x="1152" y="1116.5"/>
      <point x="1152" y="1198" type="qcurve" smooth="yes"/>
      <point x="1152" y="1320" type="line" smooth="yes"/>
      <point x="1152" y="1399.99"/>
      <point x="1123.5" y="1428"/>
      <point x="1042" y="1428" type="qcurve" smooth="yes"/>
      <point x="890" y="1428" type="line" smooth="yes"/>
      <point x="808.503" y="1428"/>
      <point x="780" y="1399.99"/>
      <point x="780" y="1320" type="qcurve" smooth="yes"/>
      <point x="780" y="1198" type="line" smooth="yes"/>
      <point x="780" y="1116.5"/>
      <point x="808.503" y="1088"/>
    </contour>
    <contour>
      <point x="1470" y="1088" type="qcurve" smooth="yes"/>
      <point x="1622" y="1088" type="line" smooth="yes"/>
      <point x="1703.5" y="1088"/>
      <point x="1732" y="1116.5"/>
      <point x="1732" y="1198" type="qcurve" smooth="yes"/>
      <point x="1732" y="1320" type="line" smooth="yes"/>
      <point x="1732" y="1399.99"/>
      <point x="1703.5" y="1428"/>
      <point x="1622" y="1428" type="qcurve" smooth="yes"/>
      <point x="1470" y="1428" type="line" smooth="yes"/>
      <point x="1388.5" y="1428"/>
      <point x="1360" y="1399.99"/>
      <point x="1360" y="1320" type="qcurve" smooth="yes"/>
      <point x="1360" y="1198" type="line" smooth="yes"/>
      <point x="1360" y="1116.5"/>
      <point x="1388.5" y="1088"/>
    </contour>
  </outline>
</glyph>
<glyph name="uni04F7" format="2">
  <advance width="2012"/>
  <unicode hex="04F7"/>
  <outline>
    <contour>
      <point x="308" y="0" type="line" name="ATT"/>
      <point x="495" y="0" type="line"/>
      <point x="710" y="-280" type="line"/>
      <point x="1064" y="-280" type="line"/>
      <point x="1064" y="32" type="line"/>
      <point x="832" y="32" type="line"/>
      <point x="832" y="992" type="line"/>
      <point x="1921" y="992" type="line"/>
      <point x="1921" y="1024" type="line"/>
      <point x="308" y="1024" type="line"/>
    </contour>
  </outline>
</glyph>
<glyph name="Wdieresis" format="2">
  <advance width="3414"/>
  <unicode hex="1E84"/>
  <anchor x="1707" y="-150" name="bottom"/>
  <anchor x="1733" y="1550" name="top"/>
  <outline>
    <contour>
      <point x="765" y="0" type="line"/>
      <point x="1095" y="0" type="line"/>
      <point x="1706" y="1114" type="line"/>
      <point x="2304" y="0" type="line"/>
      <point x="2615" y="0" type="line"/>
      <point x="3408" y="1400" type="line"/>
      <point x="3367" y="1400" type="line"/>
      <point x="2769" y="345" type="line"/>
      <point x="2202" y="1400" type="line"/>
      <point x="1822" y="1400" type="line"/>
      <point x="1236" y="332" type="line"/>
      <point x="659" y="1400" type="line"/>
      <point x="6" y="1400" type="line"/>
    </contour>
    <contour>
      <point x="1327" y="1488" type="qcurve" smooth="yes"/>
      <point x="1509" y="1488" type="line" smooth="yes"/>
      <point x="1590.5" y="1488"/>
      <point x="1619" y="1516.5"/>
      <point x="1619" y="1598" type="qcurve" smooth="yes"/>
      <point x="1619" y="1740" type="line" smooth="yes"/>
      <point x="1619" y="1819.99"/>
      <point x="1590.5" y="1848"/>
      <point x="1509" y="1848" type="qcurve" smooth="yes"/>
      <point x="1327" y="1848" type="line" smooth="yes"/>
      <point x="1245.5" y="1848"/>
      <point x="1217" y="1819.99"/>
      <point x="1217" y="1740" type="qcurve" smooth="yes"/>
      <point x="1217" y="1598" type="line" smooth="yes"/>
      <point x="1217" y="1516.5"/>
      <point x="1245.5" y="1488"/>
    </contour>
    <contour>
      <point x="1957" y="1488" type="qcurve" smooth="yes"/>
      <point x="2139" y="1488" type="line" smooth="yes"/>
      <point x="2220.5" y="1488"/>
      <point x="2249" y="1516.5"/>
      <point x="2249" y="1598" type="qcurve" smooth="yes"/>
      <point x="2249" y="1740" type="line" smooth="yes"/>
      <point x="2249" y="1819.99"/>
      <point x="2220.5" y="1848"/>
      <point x="2139" y="1848" type="qcurve" smooth="yes"/>
      <point x="1957" y="1848" type="line" smooth="yes"/>
      <point x="1875.5" y="1848"/>
      <point x="1847" y="1819.99"/>
      <point x="1847" y="1740" type="qcurve" smooth="yes"/>
      <point x="1847" y="1598" type="line" smooth="yes"/>
      <point x="1847" y="1516.5"/>
      <point x="1875.5" y="1488"/>
    </contour>
  </outline>
</glyph>
<glyph name="uni1EA4" format="2">
  <advance width="2910"/>
  <unicode hex="1EA4"/>
  <anchor x="1448" y="1550" name="top"/>
  <anchor x="1380" y="-150" name="bottom"/>
  <anchor x="2116" y="0" name="ogonek_in"/>
  <outline>
    <contour>
      <point x="6" y="0" type="line"/>
      <point x="56" y="0" type="line"/>
      <point x="372" y="338" type="line"/>
      <point x="1808" y="338" type="line"/>
      <point x="2116" y="0" type="line"/>
      <point x="2904" y="0" type="line"/>
      <point x="1598" y="1400" type="line"/>
      <point x="1312" y="1400" type="line"/>
    </contour>
    <contour>
      <point x="405" y="374" type="line"/>
      <point x="1098" y="1116" type="line"/>
      <point x="1775" y="374" type="line"/>
    </contour>
    <contour>
      <point x="759" y="1500" type="line"/>
      <point x="811" y="1500" type="line"/>
      <point x="1159" y="1768" type="line"/>
      <point x="1497" y="1500" type="line"/>
      <point x="2087" y="1500" type="line"/>
      <point x="1653" y="1800" type="line"/>
      <point x="1143" y="1800" type="line"/>
    </contour>
    <contour>
      <point x="2096" y="1674" type="line"/>
      <point x="2145" y="1674" type="line"/>
      <point x="2745" y="1900" type="line"/>
      <point x="2145" y="1900" type="line"/>
    </contour>
  </outline>
</glyph>
<glyph name="uni1EAA" format="2">
  <advance width="2910"/>
  <unicode hex="1EAA"/>
  <anchor x="1448" y="1550" name="top"/>
  <anchor x="1380" y="-150" name="bottom"/>
  <anchor x="2116" y="0" name="ogonek_in"/>
  <outline>
    <contour>
      <point x="6" y="0" type="line"/>
      <point x="56" y="0" type="line"/>
      <point x="372" y="338" type="line"/>
      <point x="1808" y="338" type="line"/>
      <point x="2116" y="0" type="line"/>
      <point x="2904" y="0" type="line"/>
      <point x="1598" y="1400" type="line"/>
      <point x="1312" y="1400" type="line"/>
    </contour>
    <contour>
      <point x="405" y="374" type="line"/>
      <point x="1098" y="1116" type="line"/>
      <point x="1775" y="374" type="line"/>
    </contour>
    <contour>
      <point x="759" y="1500" type="line"/>
      <point x="811" y="1500" type="line"/>
      <point x="1230" y="1782" type="line"/>
      <point x="1647" y="1500" type="line"/>
      <point x="2244" y="1500" type="line"/>
      <point x="1748" y="1800" type="line"/>
      <point x="1203" y="1800" type="line"/>
    </contour>
    <contour>
      <point x="928" y="1930" type="qcurve"/>
      <point x="958" y="1925" type="line"/>
      <point x="968.564" y="1980.84"/>
      <point x="1014.23" y="2029"/>
      <point x="1058" y="2029" type="qcurve" smooth="yes"/>
      <point x="1104.5" y="2029"/>
      <point x="1256.22" y="1986.19"/>
      <point x="1430.03" y="1934.81"/>
      <point x="1607.62" y="1892"/>
      <point x="1680" y="1892" type="qcurve" smooth="yes"/>
      <point x="1803.75" y="1892"/>
      <point x="1946.12" y="2042.04"/>
      <point x="1968" y="2199" type="qcurve"/>
      <point x="1938" y="2204" type="line"/>
      <point x="1926.68" y="2143.63"/>
      <point x="1888.99" y="2100"/>
      <point x="1849" y="2100" type="qcurve" smooth="yes"/>
      <point x="1801.75" y="2100"/>
      <point x="1649" y="2142.81"/>
      <point x="1473.5" y="2194.19"/>
      <point x="1293" y="2237"/>
      <point x="1218" y="2237" type="qcurve" smooth="yes"/>
      <point x="1090.47" y="2237"/>
      <point x="947.62" y="2087.71"/>
    </contour>
  </outline>
  <guideline angle="90" x="1038" y="0"/>
  <guideline angle="90" x="2138" y="0"/>
  <guideline angle="90" x="1068" y="0"/>
  <guideline angle="90" x="2108" y="0"/>
</glyph>
<glyph name="uni1EAC" format="2">
  <advance width="2910"/>
  <unicode hex="1EAC"/>
  <anchor x="1448" y="1880" name="top"/>
  <anchor x="1380" y="-150" name="bottom"/>
  <anchor x="2116" y="0" name="ogonek_in"/>
  <anchor x="2361" y="1600" name="topright"/>
  <outline>
    <contour>
      <point x="6" y="0" type="line"/>
      <point x="56" y="0" type="line"/>
      <point x="372" y="338" type="line"/>
      <point x="1808" y="338" type="line"/>
      <point x="2116" y="0" type="line"/>
      <point x="2904" y="0" type="line"/>
      <point x="1598" y="1400" type="line"/>
      <point x="1312" y="1400" type="line"/>
    </contour>
    <contour>
      <point x="405" y="374" type="line"/>
      <point x="1098" y="1116" type="line"/>
      <point x="1775" y="374" type="line"/>
    </contour>
    <contour>
      <point x="846" y="1500" type="line"/>
      <point x="898" y="1500" type="line"/>
      <point x="1293" y="1766" type="line"/>
      <point x="1664" y="1500" type="line"/>
      <point x="2361" y="1500" type="line"/>
      <point x="1875" y="1800" type="line"/>
      <point x="1290" y="1800" type="line"/>
    </contour>
    <contour>
      <point x="1294" y="-451" type="qcurve" smooth="yes"/>
      <point x="1466" y="-451" type="line" smooth="yes"/>
      <point x="1547.5" y="-451"/>
      <point x="1576" y="-422.497"/>
      <point x="1576" y="-341" type="qcurve" smooth="yes"/>
      <point x="1576" y="-209" type="line" smooth="yes"/>
      <point x="1576" y="-129.012"/>
      <point x="1547.5" y="-101"/>
      <point x="1466" y="-101" type="qcurve" smooth="yes"/>
      <point x="1294" y="-101" type="line" smooth="yes"/>
      <point x="1212.5" y="-101"/>
      <point x="1184" y="-129.012"/>
      <point x="1184" y="-209" type="qcurve" smooth="yes"/>
      <point x="1184" y="-341" type="line" smooth="yes"/>
      <point x="1184" y="-422.497"/>
      <point x="1212.5" y="-451"/>
    </contour>
  </outline>
  <guideline angle="0" x="0" y="-100"/>
</glyph>
<glyph name="uni1EB9" format="2">
  <advance width="2520"/>
  <unicode hex="1EB9"/>
  <anchor x="1260" y="1174" name="top"/>
  <anchor x="1260" y="-150" name="bottom"/>
  <anchor x="1740" y="0" name="ogonek"/>
  <outline>
    <contour>
      <point x="296" y="310" type="line" smooth="yes"/>
      <point x="296" y="147.006"/>
      <point x="476.675" y="0"/>
      <point x="694" y="0" type="qcurve" smooth="yes"/>
      <point x="1806" y="0" type="line" smooth="yes"/>
      <point x="2023.32" y="0"/>
      <point x="2224" y="125.08"/>
      <point x="2224" y="276" type="qcurve" smooth="yes"/>
      <point x="2224" y="280" type="line"/>
      <point x="1700" y="368" type="line"/>
      <point x="1700" y="32" type="line"/>
      <point x="1700" y="32"/>
      <point x="1700" y="32"/>
      <point x="1700" y="32" type="qcurve"/>
      <point x="820" y="32" type="line"/>
      <point x="820" y="32"/>
      <point x="820" y="32"/>
      <point x="820" y="32" type="qcurve"/>
      <point x="820" y="516" type="line"/>
      <point x="2224" y="516" type="line"/>
      <point x="2224" y="724" type="line" smooth="yes"/>
      <point x="2224" y="882.466"/>
      <point x="2023.32" y="1024"/>
      <point x="1806" y="1024" type="qcurve" smooth="yes"/>
      <point x="694" y="1024" type="line" smooth="yes"/>
      <point x="478.184" y="1024"/>
      <point x="296" y="880.957"/>
      <point x="296" y="724" type="qcurve" smooth="yes"/>
    </contour>
    <contour>
      <point x="820" y="548" type="line"/>
      <point x="820" y="992" type="line"/>
      <point x="820" y="992"/>
      <point x="820" y="992"/>
      <point x="820" y="992" type="qcurve"/>
      <point x="1700" y="992" type="line"/>
      <point x="1700" y="992"/>
      <point x="1700" y="992"/>
      <point x="1700" y="992" type="qcurve"/>
      <point x="1700" y="548" type="line"/>
    </contour>
    <contour>
      <point x="1174" y="-449" type="qcurve" smooth="yes"/>
      <point x="1346" y="-449" type="line" smooth="yes"/>
      <point x="1427.5" y="-449"/>
      <point x="1456" y="-420.988"/>
      <point x="1456" y="-341" type="qcurve" smooth="yes"/>
      <point x="1456" y="-209" type="line" smooth="yes"/>
      <point x="1456" y="-129.012"/>
      <point x="1427.5" y="-101"/>
      <point x="1346" y="-101" type="qcurve" smooth="yes"/>
      <point x="1174" y="-101" type="line" smooth="yes"/>
      <point x="1092.5" y="-101"/>
      <point x="1064" y="-129.012"/>
      <point x="1064" y="-209" type="qcurve" smooth="yes"/>
      <point x="1064" y="-341" type="line" smooth="yes"/>
      <point x="1064" y="-420.988"/>
      <point x="1092.5" y="-449"/>
    </contour>
  </outline>
  <guideline angle="0" color="1,0,0,1" x="0" y="-1024"/>
</glyph>
<glyph name="uni1EBD" format="2">
  <advance width="2520"/>
  <unicode hex="1EBD"/>
  <anchor x="1260" y="1571" name="top"/>
  <anchor x="1260" y="-150" name="bottom"/>
  <anchor x="1740" y="0" name="ogonek"/>
  <outline>
    <contour>
      <point x="296" y="310" type="line" smooth="yes"/>
      <point x="296" y="147.006"/>
      <point x="476.675" y="0"/>
      <point x="694" y="0" type="qcurve" smooth="yes"/>
      <point x="1806" y="0" type="line" smooth="yes"/>
      <point x="2023.32" y="0"/>
      <point x="2224" y="125.08"/>
      <point x="2224" y="276" type="qcurve" smooth="yes"/>
      <point x="2224" y="280" type="line"/>
      <point x="1700" y="368" type="line"/>
      <point x="1700" y="32" type="line"/>
      <point x="1700" y="32"/>
      <point x="1700" y="32"/>
      <point x="1700" y="32" type="qcurve"/>
      <point x="820" y="32" type="line"/>
      <point x="820" y="32"/>
      <point x="820" y="32"/>
      <point x="820" y="32" type="qcurve"/>
      <point x="820" y="516" type="line"/>
      <point x="2224" y="516" type="line"/>
      <point x="2224" y="724" type="line" smooth="yes"/>
      <point x="2224" y="882.466"/>
      <point x="2023.32" y="1024"/>
      <point x="1806" y="1024" type="qcurve" smooth="yes"/>
      <point x="694" y="1024" type="line" smooth="yes"/>
      <point x="478.184" y="1024"/>
      <point x="296" y="880.957"/>
      <point x="296" y="724" type="qcurve" smooth="yes"/>
    </contour>
    <contour>
      <point x="820" y="548" type="line"/>
      <point x="820" y="992" type="line"/>
      <point x="820" y="992"/>
      <point x="820" y="992"/>
      <point x="820" y="992" type="qcurve"/>
      <point x="1700" y="992" type="line"/>
      <point x="1700" y="992"/>
      <point x="1700" y="992"/>
      <point x="1700" y="992" type="qcurve"/>
      <point x="1700" y="548" type="line"/>
    </contour>
    <contour>
      <point x="710" y="1149" type="qcurve"/>
      <point x="740" y="1144" type="line"/>
      <point x="745.282" y="1171.17"/>
      <point x="791.331" y="1248"/>
      <point x="860" y="1248" type="qcurve" smooth="yes"/>
      <point x="911.375" y="1248"/>
      <point x="1054.94" y="1202.06"/>
      <point x="1213.56" y="1146.94"/>
      <point x="1374.38" y="1101"/>
      <point x="1443" y="1101" type="qcurve" smooth="yes"/>
      <point x="1599" y="1101"/>
      <point x="1783" y="1280.75"/>
      <point x="1810" y="1418" type="qcurve"/>
      <point x="1780" y="1423" type="line"/>
      <point x="1774.72" y="1395.83"/>
      <point x="1728.67" y="1319"/>
      <point x="1660" y="1319" type="qcurve" smooth="yes"/>
      <point x="1608.62" y="1319"/>
      <point x="1465.06" y="1364.94"/>
      <point x="1306.44" y="1420.06"/>
      <point x="1145.62" y="1466"/>
      <point x="1077" y="1466" type="qcurve" smooth="yes"/>
      <point x="921" y="1466"/>
      <point x="737" y="1298.25"/>
    </contour>
  </outline>
  <guideline angle="0" color="1,0,0,1" x="0" y="-1024"/>
  <guideline angle="90" x="840" y="0"/>
  <guideline angle="90" x="1810" y="0"/>
  <guideline angle="90" x="870" y="0"/>
  <guideline angle="90" x="1780" y="0"/>
</glyph>
<glyph name="uni1EC1" format="2">
  <advance width="2520"/>
  <unicode hex="1EC1"/>
  <anchor x="1260" y="1174" name="top"/>
  <anchor x="1260" y="-150" name="bottom"/>
  <anchor x="1740" y="0" name="ogonek"/>
  <outline>
    <contour>
      <point x="296" y="310" type="line" smooth="yes"/>
      <point x="296" y="147.006"/>
      <point x="476.675" y="0"/>
      <point x="694" y="0" type="qcurve" smooth="yes"/>
      <point x="1806" y="0" type="line" smooth="yes"/>
      <point x="2023.32" y="0"/>
      <point x="2224" y="125.08"/>
      <point x="2224" y="276" type="qcurve" smooth="yes"/>
      <point x="2224" y="280" type="line"/>
      <point x="1700" y="368" type="line"/>
      <point x="1700" y="32" type="line"/>
      <point x="1700" y="32"/>
      <point x="1700" y="32"/>
      <point x="1700" y="32" type="qcurve"/>
      <point x="820" y="32" type="line"/>
      <point x="820" y="32"/>
      <point x="820" y="32"/>
      <point x="820" y="32" type="qcurve"/>
      <point x="820" y="516" type="line"/>
      <point x="2224" y="516" type="line"/>
      <point x="2224" y="724" type="line" smooth="yes"/>
      <point x="2224" y="882.466"/>
      <point x="2023.32" y="1024"/>
      <point x="1806" y="1024" type="qcurve" smooth="yes"/>
      <point x="694" y="1024" type="line" smooth="yes"/>
      <point x="478.184" y="1024"/>
      <point x="296" y="880.957"/>
      <point x="296" y="724" type="qcurve" smooth="yes"/>
    </contour>
    <contour>
      <point x="820" y="548" type="line"/>
      <point x="820" y="992" type="line"/>
      <point x="820" y="992"/>
      <point x="820" y="992"/>
      <point x="820" y="992" type="qcurve"/>
      <point x="1700" y="992" type="line"/>
      <point x="1700" y="992"/>
      <point x="1700" y="992"/>
      <point x="1700" y="992" type="qcurve"/>
      <point x="1700" y="548" type="line"/>
    </contour>
    <contour>
      <point x="591" y="1174" type="line"/>
      <point x="643" y="1174" type="line"/>
      <point x="991" y="1490" type="line"/>
      <point x="1329" y="1174" type="line"/>
      <point x="1919" y="1174" type="line"/>
      <point x="1485" y="1522" type="line"/>
      <point x="975" y="1522" type="line"/>
    </contour>
    <contour>
      <point x="2218" y="1348" type="line"/>
      <point x="2267" y="1348" type="line"/>
      <point x="2218" y="1696" type="line"/>
      <point x="1618" y="1696" type="line"/>
    </contour>
  </outline>
  <guideline angle="0" color="1,0,0,1" x="0" y="-1024"/>
</glyph>
<glyph name="uni1ECF" format="2">
  <advance width="2528"/>
  <unicode hex="1ECF"/>
  <anchor x="1264" y="1174" name="top"/>
  <anchor x="1264" y="-150" name="bottom"/>
  <anchor x="2232" y="770" name="horn"/>
  <anchor x="1283" y="0" name="ogonek"/>
  <outline>
    <contour>
      <point x="296" y="264" type="line" smooth="yes"/>
      <point x="296" y="125.154"/>
      <point x="440.516" y="0"/>
      <point x="602" y="0" type="qcurve" smooth="yes"/>
      <point x="1926" y="0" type="line" smooth="yes"/>
      <point x="2088.99" y="0"/>
      <point x="2232" y="125.154"/>
      <point x="2232" y="264" type="qcurve" smooth="yes"/>
      <point x="2232" y="770" type="line" smooth="yes"/>
      <point x="2232" y="901.3"/>
      <point x="2085.98" y="1024"/>
      <point x="1926" y="1024" type="qcurve" smooth="yes"/>
      <point x="602" y="1024" type="line" smooth="yes"/>
      <point x="442.025" y="1024"/>
      <point x="296" y="901.3"/>
      <point x="296" y="770" type="qcurve" smooth="yes"/>
    </contour>
    <contour>
      <point x="820" y="32" type="qcurve"/>
      <point x="820" y="992" type="line"/>
      <point x="820" y="992"/>
      <point x="820" y="992"/>
      <point x="820" y="992" type="qcurve"/>
      <point x="1708" y="992" type="line"/>
      <point x="1708" y="992"/>
      <point x="1708" y="992"/>
      <point x="1708" y="992" type="qcurve"/>
      <point x="1708" y="32" type="line"/>
      <point x="1708" y="32"/>
      <point x="1708" y="32"/>
      <point x="1708" y="32" type="qcurve"/>
      <point x="820" y="32" type="line"/>
      <point x="820" y="32"/>
      <point x="820" y="32"/>
    </contour>
    <contour>
      <point x="1170" y="1100" type="qcurve"/>
      <point x="1332" y="1100" type="line"/>
      <point x="1396.14" y="1116.6"/>
      <point x="1521" y="1213.75"/>
      <point x="1521" y="1296" type="qcurve" smooth="yes"/>
      <point x="1521" y="1375.23"/>
      <point x="1390.42" y="1480"/>
      <point x="1281" y="1480" type="qcurve" smooth="yes"/>
      <point x="1215.35" y="1480"/>
      <point x="1106.17" y="1446.13"/>
      <point x="1079" y="1425" type="qcurve"/>
      <point x="1095" y="1401" type="line"/>
      <point x="1116.13" y="1413.83"/>
      <point x="1158.63" y="1432"/>
      <point x="1179" y="1432" type="qcurve" smooth="yes"/>
      <point x="1218.99" y="1432"/>
      <point x="1255" y="1357.84"/>
      <point x="1255" y="1302" type="qcurve" smooth="yes"/>
      <point x="1255" y="1246.91"/>
      <point x="1209.99" y="1143.01"/>
    </contour>
  </outline>
</glyph>
<glyph name="uni1EF8" format="2">
  <advance width="2706"/>
  <unicode hex="1EF8"/>
  <anchor x="1473" y="1992" name="top"/>
  <anchor x="1460" y="-150" name="bottom"/>
  <outline>
    <contour>
      <point x="1174" y="0" type="line"/>
      <point x="1746" y="0" type="line"/>
      <point x="1746" y="641" type="line"/>
      <point x="2700" y="1400" type="line"/>
      <point x="2642" y="1400" type="line"/>
      <point x="1730" y="674" type="line"/>
      <point x="835" y="1400" type="line"/>
      <point x="6" y="1400" type="line"/>
      <point x="1174" y="472" type="line"/>
    </contour>
    <contour>
      <point x="923" y="1520" type="qcurve"/>
      <point x="953" y="1515" type="line"/>
      <point x="958.282" y="1542.17"/>
      <point x="1004.33" y="1619"/>
      <point x="1073" y="1619" type="qcurve" smooth="yes"/>
      <point x="1116.88" y="1619"/>
      <point x="1255.75" y="1574.62"/>
      <point x="1416.25" y="1521.38"/>
      <point x="1583.62" y="1477"/>
      <point x="1656" y="1477" type="qcurve" smooth="yes"/>
      <point x="1734" y="1477"/>
      <point x="1858.06" y="1541.78"/>
      <point x="1949.94" y="1646.97"/>
      <point x="2009.5" y="1780.38"/>
      <point x="2023" y="1849" type="qcurve"/>
      <point x="1993" y="1854" type="line"/>
      <point x="1987.72" y="1826.83"/>
      <point x="1941.67" y="1750"/>
      <point x="1873" y="1750" type="qcurve" smooth="yes"/>
      <point x="1829.12" y="1750"/>
      <point x="1690.25" y="1794.38"/>
      <point x="1529.75" y="1847.62"/>
      <point x="1362.38" y="1892"/>
      <point x="1290" y="1892" type="qcurve" smooth="yes"/>
      <point x="1212" y="1892"/>
      <point x="1087.94" y="1831.72"/>
      <point x="996.062" y="1729.53"/>
      <point x="936.5" y="1594.62"/>
    </contour>
  </outline>
  <guideline angle="90" color="1,0,0,1" x="1356" y="0"/>
  <guideline angle="90" x="923" y="0"/>
  <guideline angle="90" x="2023" y="0"/>
  <guideline angle="90" x="953" y="0"/>
  <guideline angle="90" x="1993" y="0"/>
</glyph>
<glyph name="daggerdbl" format="2">
  <advance width="1440"/>
  <unicode hex="2021"/>
  <outline>
    <contour>
      <point x="540" y="-214" type="line"/>
      <point x="900" y="-214" type="line"/>
      <point x="900" y="228" type="line"/>
      <point x="1430" y="228" type="line"/>
      <point x="1430" y="264" type="line"/>
      <point x="900" y="264" type="line"/>
      <point x="900" y="822" type="line"/>
      <point x="1430" y="822" type="line"/>
      <point x="1430" y="858" type="line"/>
      <point x="900" y="858" type="line"/>
      <point x="900" y="1300" type="line"/>
      <point x="540" y="1300" type="line"/>
      <point x="540" y="858" type="line"/>
      <point x="10" y="858" type="line"/>
      <point x="10" y="822" type="line"/>
      <point x="540" y="822" type="line"/>
      <point x="540" y="264" type="line"/>
      <point x="10" y="264" type="line"/>
      <point x="10" y="228" type="line"/>
      <point x="540" y="228" type="line"/>
    </contour>
  </outline>
</glyph>
<glyph name="bullet" format="2">
  <advance width="1440"/>
  <unicode hex="2022"/>
  <outline>
    <contour>
      <point x="400" y="431" type="line" smooth="yes"/>
      <point x="400" y="340.448"/>
      <point x="450.448" y="290"/>
      <point x="541" y="290" type="qcurve" smooth="yes"/>
      <point x="899" y="290" type="line" smooth="yes"/>
      <point x="989" y="290"/>
      <point x="1040" y="341"/>
      <point x="1040" y="431" type="qcurve" smooth="yes"/>
      <point x="1040" y="780" type="line" smooth="yes"/>
      <point x="1040" y="869.797"/>
      <point x="988.552" y="920"/>
      <point x="898" y="920" type="qcurve" smooth="yes"/>
      <point x="541" y="920" type="line" smooth="yes"/>
      <point x="451" y="920"/>
      <point x="400" y="869.75"/>
      <point x="400" y="782" type="qcurve" smooth="yes"/>
    </contour>
  </outline>
</glyph>
<glyph name="guilsinglleft" format="2">
  <advance width="962"/>
  <unicode hex="2039"/>
  <outline>
    <contour>
      <point x="788" y="130" type="line"/>
      <point x="829" y="130" type="line"/>
      <point x="469" y="512" type="line"/>
      <point x="829" y="894" type="line"/>
      <point x="788" y="894" type="line"/>
      <point x="128" y="512" type="line"/>
    </contour>
  </outline>
</glyph>
<glyph name="dong" format="2">
  <advance width="2903"/>
  <unicode hex="20AB"/>
  <outline>
    <contour>
      <point x="1882" y="0" type="line"/>
      <point x="2406" y="0" type="line"/>
      <point x="2406" y="1124" type="line"/>
      <point x="2716" y="1124" type="line"/>
      <point x="2716" y="1156" type="line"/>
      <point x="2406" y="1156" type="line"/>
      <point x="2406" y="1400" type="line"/>
      <point x="1882" y="1400" type="line"/>
      <point x="1882" y="1156" type="line"/>
      <point x="1059" y="1156" type="line"/>
      <point x="1059" y="1124" type="line"/>
      <point x="1882" y="1124" type="line"/>
      <point x="1882" y="900" type="line"/>
      <point x="1875.96" y="912.074"/>
      <point x="1837.69" y="924"/>
      <point x="1806" y="924" type="qcurve" smooth="yes"/>
      <point x="592" y="924" type="line" smooth="yes"/>
      <point x="432.025" y="924"/>
      <point x="286" y="801.3"/>
      <point x="286" y="670" type="qcurve" smooth="yes"/>
      <point x="286" y="264" type="line" smooth="yes"/>
      <point x="286" y="125.154"/>
      <point x="430.516" y="0"/>
      <point x="592" y="0" type="qcurve" smooth="yes"/>
      <point x="1806" y="0" type="line" smooth="yes"/>
      <point x="1833.17" y="0"/>
      <point x="1871.44" y="14.4172"/>
      <point x="1882" y="28" type="qcurve"/>
    </contour>
    <contour>
      <point x="1882" y="892" type="line"/>
      <point x="1882" y="32" type="line"/>
      <point x="810" y="32" type="line"/>
      <point x="810" y="32"/>
      <point x="810" y="32"/>
      <point x="810" y="32" type="qcurve"/>
      <point x="810" y="892" type="line"/>
      <point x="810" y="892"/>
      <point x="810" y="892"/>
      <point x="810" y="892" type="qcurve"/>
    </contour>
    <contour>
      <point x="2406" y="-150" type="line"/>
      <point x="336" y="-150" type="line"/>
      <point x="336" y="-182" type="line"/>
      <point x="2406" y="-182" type="line"/>
    </contour>
  </outline>
</glyph>
<glyph name="Euro" format="2">
  <advance width="3082"/>
  <unicode hex="20AC"/>
  <outline>
    <contour>
      <point x="962" y="0" type="qcurve" smooth="yes"/>
      <point x="2338" y="0" type="line" smooth="yes"/>
      <point x="2537.21" y="0"/>
      <point x="2752" y="137.73"/>
      <point x="2752" y="346" type="qcurve" smooth="yes"/>
      <point x="2752" y="368" type="line"/>
      <point x="2180" y="480" type="line"/>
      <point x="2180" y="36" type="line"/>
      <point x="2180" y="36"/>
      <point x="2180" y="36"/>
      <point x="2180" y="36" type="qcurve"/>
      <point x="1122" y="36" type="line"/>
      <point x="1122" y="36"/>
      <point x="1122" y="36"/>
      <point x="1122" y="36" type="qcurve"/>
      <point x="1122" y="550" type="line"/>
      <point x="1756" y="550" type="line"/>
      <point x="1766" y="586" type="line"/>
      <point x="1122" y="586" type="line"/>
      <point x="1122" y="816" type="line"/>
      <point x="1832" y="816" type="line"/>
      <point x="1842" y="852" type="line"/>
      <point x="1122" y="852" type="line"/>
      <point x="1122" y="1364" type="line"/>
      <point x="1122" y="1364"/>
      <point x="1122" y="1364"/>
      <point x="1122" y="1364" type="qcurve"/>
      <point x="2174" y="1364" type="line"/>
      <point x="2174" y="1364"/>
      <point x="2174" y="1364"/>
      <point x="2174" y="1364" type="qcurve"/>
      <point x="2174" y="946" type="line"/>
      <point x="2746" y="1052" type="line"/>
      <point x="2746" y="1066" type="line" smooth="yes"/>
      <point x="2746" y="1267"/>
      <point x="2521" y="1400"/>
      <point x="2332" y="1400" type="qcurve" smooth="yes"/>
      <point x="962" y="1400" type="line" smooth="yes"/>
      <point x="773" y="1400"/>
      <point x="550" y="1267"/>
      <point x="550" y="1066" type="qcurve" smooth="yes"/>
      <point x="550" y="852" type="line"/>
      <point x="370" y="852" type="line"/>
      <point x="370" y="816" type="line"/>
      <point x="550" y="816" type="line"/>
      <point x="550" y="586" type="line"/>
      <point x="370" y="586" type="line"/>
      <point x="370" y="550" type="line"/>
      <point x="550" y="550" type="line"/>
      <point x="550" y="346" type="line" smooth="yes"/>
      <point x="550" y="139.24"/>
      <point x="762.786" y="0"/>
    </contour>
  </outline>
</glyph>
<glyph name="uni20B2" format="2">
  <advance width="3232"/>
  <unicode hex="20B2"/>
  <outline>
    <contour>
      <point x="1451" y="0" type="line"/>
      <point x="1451" y="-150" type="line"/>
      <point x="1793" y="-150" type="line"/>
      <point x="1793" y="0" type="line"/>
      <point x="2458" y="0" type="line" smooth="yes"/>
      <point x="2657.21" y="0"/>
      <point x="2872" y="137.73"/>
      <point x="2872" y="346" type="qcurve" smooth="yes"/>
      <point x="2872" y="700" type="line"/>
      <point x="2020" y="700" type="line"/>
      <point x="2020" y="664" type="line"/>
      <point x="2300" y="664" type="line"/>
      <point x="2300" y="36" type="line"/>
      <point x="2300" y="36"/>
      <point x="2300" y="36"/>
      <point x="2300" y="36" type="qcurve"/>
      <point x="1793" y="36" type="line"/>
      <point x="1793" y="1364" type="line"/>
      <point x="2294" y="1364" type="line"/>
      <point x="2294" y="1364"/>
      <point x="2294" y="1364"/>
      <point x="2294" y="1364" type="qcurve"/>
      <point x="2294" y="906" type="line"/>
      <point x="2866" y="1012" type="line"/>
      <point x="2866" y="1066" type="line" smooth="yes"/>
      <point x="2866" y="1267"/>
      <point x="2641" y="1400"/>
      <point x="2452" y="1400" type="qcurve" smooth="yes"/>
      <point x="1793" y="1400" type="line"/>
      <point x="1793" y="1550" type="line"/>
      <point x="1451" y="1550" type="line"/>
      <point x="1451" y="1400" type="line"/>
      <point x="782" y="1400" type="line" smooth="yes"/>
      <point x="593" y="1400"/>
      <point x="370" y="1267"/>
      <point x="370" y="1066" type="qcurve" smooth="yes"/>
      <point x="370" y="346" type="line" smooth="yes"/>
      <point x="370" y="139.24"/>
      <point x="582.786" y="0"/>
      <point x="782" y="0" type="qcurve" smooth="yes"/>
    </contour>
    <contour>
      <point x="1451" y="36" type="line"/>
      <point x="942" y="36" type="line"/>
      <point x="942" y="36"/>
      <point x="942" y="36"/>
      <point x="942" y="36" type="qcurve"/>
      <point x="942" y="1364" type="line"/>
      <point x="942" y="1364"/>
      <point x="942" y="1364"/>
      <point x="942" y="1364" type="qcurve"/>
      <point x="1451" y="1364" type="line"/>
    </contour>
  </outline>
</glyph>
<glyph name="approxequal" format="2">
  <advance width="2086"/>
  <unicode hex="2248"/>
  <outline>
    <contour>
      <point x="1827" y="790" type="line"/>
      <point x="1750.79" y="740.951"/>
      <point x="1557.62" y="676"/>
      <point x="1415" y="676" type="qcurve" smooth="yes"/>
      <point x="1311.5" y="676"/>
      <point x="1132.78" y="719.75"/>
      <point x="958.969" y="772.25"/>
      <point x="778.375" y="816"/>
      <point x="673" y="816" type="qcurve" smooth="yes"/>
      <point x="513.779" y="816"/>
      <point x="308.442" y="741.54"/>
      <point x="236" y="694" type="qcurve"/>
      <point x="259" y="666" type="line"/>
      <point x="335.215" y="715.049"/>
      <point x="528.381" y="780"/>
      <point x="671" y="780" type="qcurve" smooth="yes"/>
      <point x="774.5" y="780"/>
      <point x="953.219" y="736.25"/>
      <point x="1127.03" y="683.75"/>
      <point x="1307.62" y="640"/>
      <point x="1413" y="640" type="qcurve" smooth="yes"/>
      <point x="1572.22" y="640"/>
      <point x="1777.56" y="714.46"/>
      <point x="1850" y="762" type="qcurve"/>
    </contour>
    <contour>
      <point x="1827" y="310" type="line"/>
      <point x="1750.79" y="260.951"/>
      <point x="1557.62" y="196"/>
      <point x="1415" y="196" type="qcurve" smooth="yes"/>
      <point x="1311.5" y="196"/>
      <point x="1132.78" y="239.75"/>
      <point x="958.969" y="292.25"/>
      <point x="778.375" y="336"/>
      <point x="673" y="336" type="qcurve" smooth="yes"/>
      <point x="513.779" y="336"/>
      <point x="308.442" y="261.54"/>
      <point x="236" y="214" type="qcurve"/>
      <point x="259" y="186" type="line"/>
      <point x="335.215" y="235.049"/>
      <point x="528.381" y="300"/>
      <point x="671" y="300" type="qcurve" smooth="yes"/>
      <point x="774.5" y="300"/>
      <point x="953.219" y="256.25"/>
      <point x="1127.03" y="203.75"/>
      <point x="1307.62" y="160"/>
      <point x="1413" y="160" type="qcurve" smooth="yes"/>
      <point x="1572.22" y="160"/>
      <point x="1777.56" y="234.46"/>
      <point x="1850" y="282" type="qcurve"/>
    </contour>
  </outline>
</glyph>
<glyph name="a.sc" format="2">
  <advance width="2391"/>
  <anchor x="1196" y="1210" name="top"/>
  <anchor x="1116" y="-150" name="bottom"/>
  <anchor x="1684" y="0" name="ogonek"/>
  <outline>
    <contour>
      <point x="6" y="0" type="line"/>
      <point x="51" y="0" type="line"/>
      <point x="881" y="845" type="line"/>
      <point x="1646" y="0" type="line"/>
      <point x="2385" y="0" type="line"/>
      <point x="1324" y="1086" type="line"/>
      <point x="1073" y="1086" type="line"/>
    </contour>
    <contour>
      <point x="274" y="262" type="line"/>
      <point x="1450" y="262" type="line"/>
      <point x="1414" y="290" type="line"/>
      <point x="308" y="290" type="line"/>
    </contour>
  </outline>
</glyph>
<glyph name="braceleft.case" format="2">
  <advance width="1250"/>
  <outline>
    <contour>
      <point x="409" y="96" type="line" smooth="yes"/>
      <point x="409" y="-32.282"/>
      <point x="571.172" y="-178"/>
      <point x="707" y="-178" type="qcurve" smooth="yes"/>
      <point x="1240" y="-178" type="line"/>
      <point x="1240" y="-146" type="line"/>
      <point x="971" y="-146" type="line" smooth="yes"/>
      <point x="905.35" y="-146"/>
      <point x="849" y="-92.1042"/>
      <point x="849" y="-34" type="qcurve" smooth="yes"/>
      <point x="849" y="395" type="line" smooth="yes"/>
      <point x="849" y="506.681"/>
      <point x="745.589" y="647.834"/>
      <point x="649" y="675" type="qcurve"/>
      <point x="745.589" y="702.166"/>
      <point x="849" y="843.319"/>
      <point x="849" y="955" type="qcurve" smooth="yes"/>
      <point x="849" y="1382" type="line" smooth="yes"/>
      <point x="849" y="1440.1"/>
      <point x="905.35" y="1494"/>
      <point x="971" y="1494" type="qcurve" smooth="yes"/>
      <point x="1240" y="1494" type="line"/>
      <point x="1240" y="1526" type="line"/>
      <point x="707" y="1526" type="line" smooth="yes"/>
      <point x="571.172" y="1526"/>
      <point x="409" y="1377.83"/>
      <point x="409" y="1242" type="qcurve" smooth="yes"/>
      <point x="409" y="869" type="line" smooth="yes"/>
      <point x="409" y="787.503"/>
      <point x="308.791" y="691"/>
      <point x="179" y="691" type="qcurve"/>
      <point x="179" y="659" type="line"/>
      <point x="308.791" y="659"/>
      <point x="409" y="563.251"/>
      <point x="409" y="481" type="qcurve" smooth="yes"/>
    </contour>
  </outline>
</glyph>
<glyph name="cent.alt" format="2">
  <advance width="2428"/>
  <outline>
    <contour>
      <point x="1079" y="-100" type="line"/>
      <point x="1421" y="-100" type="line"/>
      <point x="1421" y="150" type="line"/>
      <point x="1882" y="150" type="line" smooth="yes"/>
      <point x="2060.09" y="150"/>
      <point x="2206" y="273.608"/>
      <point x="2206" y="420" type="qcurve" smooth="yes"/>
      <point x="2206" y="516" type="line"/>
      <point x="1682" y="624" type="line"/>
      <point x="1682" y="182" type="line"/>
      <point x="1682" y="182"/>
      <point x="1682" y="182"/>
      <point x="1682" y="182" type="qcurve"/>
      <point x="820" y="182" type="line"/>
      <point x="820" y="182"/>
      <point x="820" y="182"/>
      <point x="820" y="182" type="qcurve"/>
      <point x="820" y="1142" type="line"/>
      <point x="820" y="1142"/>
      <point x="820" y="1142"/>
      <point x="820" y="1142" type="qcurve"/>
      <point x="1678" y="1142" type="line"/>
      <point x="1678" y="1142"/>
      <point x="1678" y="1142"/>
      <point x="1678" y="1142" type="qcurve"/>
      <point x="1678" y="702" type="line"/>
      <point x="2202" y="800" type="line"/>
      <point x="2202" y="918" type="line" smooth="yes"/>
      <point x="2202" y="1056.85"/>
      <point x="2055.07" y="1174"/>
      <point x="1880" y="1174" type="qcurve" smooth="yes"/>
      <point x="1421" y="1174" type="line"/>
      <point x="1421" y="1400" type="line"/>
      <point x="1079" y="1400" type="line"/>
      <point x="1079" y="1174" type="line"/>
      <point x="622" y="1174" type="line" smooth="yes"/>
      <point x="446.933" y="1174"/>
      <point x="296" y="1054.36"/>
      <point x="296" y="914" type="qcurve" smooth="yes"/>
      <point x="296" y="420" type="line" smooth="yes"/>
      <point x="296" y="273.608"/>
      <point x="441.914" y="150"/>
      <point x="620" y="150" type="qcurve" smooth="yes"/>
      <point x="1079" y="150" type="line"/>
    </contour>
  </outline>
</glyph>
<glyph name="ecaron.sc" format="2">
  <advance width="2344"/>
  <anchor x="1367" y="1634" name="top"/>
  <anchor x="1367" y="-150" name="bottom"/>
  <anchor x="1963" y="0" name="ogonek"/>
  <anchor x="678" y="1360" name="topright"/>
  <outline>
    <contour>
      <point x="400" y="0" type="line"/>
      <point x="2334" y="0" type="line"/>
      <point x="2334" y="33" type="line"/>
      <point x="931" y="33" type="line"/>
      <point x="931" y="540" type="line"/>
      <point x="1792" y="540" type="line"/>
      <point x="1792" y="573" type="line"/>
      <point x="931" y="573" type="line"/>
      <point x="931" y="1053" type="line"/>
      <point x="2312" y="1053" type="line"/>
      <point x="2312" y="1086" type="line"/>
      <point x="400" y="1086" type="line"/>
    </contour>
    <contour>
      <point x="2163" y="1534" type="line"/>
      <point x="2111" y="1534" type="line"/>
      <point x="1693" y="1206" type="line"/>
      <point x="1275" y="1534" type="line"/>
      <point x="678" y="1534" type="line"/>
      <point x="1174" y="1186" type="line"/>
      <point x="1719" y="1186" type="line"/>
    </contour>
  </outline>
  <guideline angle="90" color="1,0,0,1" x="1963" y="0"/>
</glyph>
<glyph name="eight.sinf" format="2">
  <advance width="1360"/>
  <outline>
    <contour>
      <point x="271" y="-175" type="qcurve" smooth="yes"/>
      <point x="271" y="-19" type="line" smooth="yes"/>
      <point x="271" y="25.5214"/>
      <point x="321.742" y="86"/>
      <point x="364" y="86" type="qcurve" smooth="yes"/>
      <point x="995" y="86" type="line" smooth="yes"/>
      <point x="1016.38" y="86"/>
      <point x="1051.09" y="69.7812"/>
      <point x="1075.66" y="41.4688"/>
      <point x="1089" y="3.125"/>
      <point x="1089" y="-19" type="qcurve" smooth="yes"/>
      <point x="1089" y="-175" type="line" smooth="yes"/>
      <point x="1089" y="-219.521"/>
      <point x="1037.01" y="-280"/>
      <point x="994" y="-280" type="qcurve" smooth="yes"/>
      <point x="366" y="-280" type="line" smooth="yes"/>
      <point x="322.988" y="-280"/>
      <point x="271" y="-219.521"/>
    </contour>
    <contour>
      <point x="1080" y="360" type="qcurve" smooth="yes"/>
      <point x="1080" y="210" type="line" smooth="yes"/>
      <point x="1080" y="165.479"/>
      <point x="1028.26" y="106"/>
      <point x="986" y="106" type="qcurve" smooth="yes"/>
      <point x="374" y="106" type="line" smooth="yes"/>
      <point x="331.742" y="106"/>
      <point x="280" y="165.479"/>
      <point x="280" y="210" type="qcurve" smooth="yes"/>
      <point x="280" y="360" type="line" smooth="yes"/>
      <point x="280" y="404.521"/>
      <point x="331.988" y="464"/>
      <point x="375" y="464" type="qcurve" smooth="yes"/>
      <point x="985" y="464" type="line" smooth="yes"/>
      <point x="1028.01" y="464"/>
      <point x="1080" y="404.521"/>
    </contour>
    <contour>
      <point x="0" y="-102" type="line" smooth="yes"/>
      <point x="0" y="-216.699"/>
      <point x="134.884" y="-300"/>
      <point x="236" y="-300" type="qcurve" smooth="yes"/>
      <point x="1124" y="-300" type="line" smooth="yes"/>
      <point x="1225.87" y="-300"/>
      <point x="1360" y="-215.945"/>
      <point x="1360" y="-102" type="qcurve" smooth="yes"/>
      <point x="1360" y="-78" type="line" smooth="yes"/>
      <point x="1360" y="17.8342"/>
      <point x="1287.29" y="89.1902"/>
      <point x="1239" y="99" type="qcurve"/>
      <point x="1284.28" y="108.81"/>
      <point x="1352" y="185.877"/>
      <point x="1352" y="247" type="qcurve" smooth="yes"/>
      <point x="1352" y="295" type="line" smooth="yes"/>
      <point x="1352" y="382.534"/>
      <point x="1241.44" y="484"/>
      <point x="1129" y="484" type="qcurve" smooth="yes"/>
      <point x="231" y="484" type="line" smooth="yes"/>
      <point x="119.319" y="484"/>
      <point x="8" y="382.288"/>
      <point x="8" y="294" type="qcurve" smooth="yes"/>
      <point x="8" y="247" type="line" smooth="yes"/>
      <point x="8" y="185.877"/>
      <point x="74.4602" y="108.81"/>
      <point x="122" y="99" type="qcurve"/>
      <point x="72.951" y="89.1902"/>
      <point x="0" y="15.8342"/>
      <point x="0" y="-80" type="qcurve" smooth="yes"/>
    </contour>
  </outline>
</glyph>
<glyph name="five.dnom" format="2">
  <advance width="1733"/>
  <outline>
    <contour>
      <point x="840" y="-7" type="qcurve" smooth="yes"/>
      <point x="1003.88" y="-7"/>
      <point x="1241.41" y="18.9688"/>
      <point x="1395.34" y="75.7812"/>
      <point x="1469" y="165.875"/>
      <point x="1469" y="230" type="qcurve" smooth="yes"/>
      <point x="1469" y="291.875"/>
      <point x="1404.06" y="373.594"/>
      <point x="1254.44" y="422.156"/>
      <point x="1010.25" y="442"/>
      <point x="831" y="442" type="qcurve" smooth="yes"/>
      <point x="664.233" y="442"/>
      <point x="398.362" y="408.693"/>
      <point x="298" y="377" type="qcurve"/>
      <point x="316" y="578" type="line"/>
      <point x="1319" y="578" type="line"/>
      <point x="1367" y="784" type="line"/>
      <point x="304" y="784" type="line"/>
      <point x="264" y="336" type="line"/>
      <point x="393.791" y="379.012"/>
      <point x="676.871" y="412"/>
      <point x="821" y="412" type="qcurve" smooth="yes"/>
      <point x="919.625" y="412"/>
      <point x="1054.28" y="399"/>
      <point x="1136.97" y="360"/>
      <point x="1173" y="288.5"/>
      <point x="1173" y="230" type="qcurve" smooth="yes"/>
      <point x="1173" y="108.509"/>
      <point x="1008.24" y="23"/>
      <point x="806.047" y="23" type="qcurve" smooth="yes"/>
      <point x="669.429" y="23"/>
      <point x="358.534" y="48.908"/>
      <point x="271" y="64" type="qcurve"/>
      <point x="282" y="31" type="line"/>
      <point x="363.497" y="18.9264"/>
      <point x="683.798" y="-7"/>
    </contour>
  </outline>
</glyph>
<glyph name="four.sinf" format="2">
  <advance width="1671"/>
  <outline>
    <contour>
      <point x="8" y="-84" type="line"/>
      <point x="923" y="-84" type="line"/>
      <point x="923" y="-300" type="line"/>
      <point x="1217" y="-300" type="line"/>
      <point x="1217" y="-84" type="line"/>
      <point x="1463" y="-84" type="line"/>
      <point x="1463" y="-54" type="line"/>
      <point x="1217" y="-54" type="line"/>
      <point x="1217" y="484" type="line"/>
      <point x="1044" y="484" type="line"/>
      <point x="8" y="-54" type="line"/>
    </contour>
    <contour>
      <point x="73" y="-54" type="line"/>
      <point x="923" y="387" type="line"/>
      <point x="923" y="-54" type="line"/>
    </contour>
  </outline>
</glyph>
<glyph name="four.sups" format="2">
  <advance width="1671"/>
  <outline>
    <contour>
      <point x="8" y="1166" type="line"/>
      <point x="923" y="1166" type="line"/>
      <point x="923" y="950" type="line"/>
      <point x="1217" y="950" type="line"/>
      <point x="1217" y="1166" type="line"/>
      <point x="1463" y="1166" type="line"/>
      <point x="1463" y="1196" type="line"/>
      <point x="1217" y="1196" type="line"/>
      <point x="1217" y="1734" type="line"/>
      <point x="1044" y="1734" type="line"/>
      <point x="8" y="1196" type="line"/>
    </contour>
    <contour>
      <point x="73" y="1196" type="line"/>
      <point x="923" y="1637" type="line"/>
      <point x="923" y="1196" type="line"/>
    </contour>
  </outline>
</glyph>
<glyph name="four.tnum" format="2">
  <advance width="2910"/>
  <outline>
    <contour>
      <point x="10" y="404" type="line"/>
      <point x="1581" y="404" type="line"/>
      <point x="1581" y="0" type="line"/>
      <point x="2153" y="0" type="line"/>
      <point x="2153" y="404" type="line"/>
      <point x="2560" y="404" type="line"/>
      <point x="2560" y="440" type="line"/>
      <point x="2153" y="440" type="line"/>
      <point x="2153" y="1400" type="line"/>
      <point x="1803" y="1400" type="line"/>
      <point x="10" y="440" type="line"/>
    </contour>
    <contour>
      <point x="87" y="440" type="line"/>
      <point x="1581" y="1240" type="line"/>
      <point x="1581" y="440" type="line"/>
    </contour>
  </outline>
</glyph>
<glyph name="guilsinglleft.case" format="2">
  <advance width="962"/>
  <outline>
    <contour>
      <point x="788" y="218" type="line"/>
      <point x="829" y="218" type="line"/>
      <point x="469" y="600" type="line"/>
      <point x="829" y="982" type="line"/>
      <point x="788" y="982" type="line"/>
      <point x="128" y="600" type="line"/>
    </contour>
  </outline>
</glyph>
<glyph name="iacute.sc" format="2">
  <advance width="1331"/>
  <anchor x="666" y="1236" name="top"/>
  <anchor x="666" y="-150" name="bottom"/>
  <anchor x="438" y="0" name="ogonek"/>
  <outline>
    <contour>
      <point x="400" y="0" type="line"/>
      <point x="931" y="0" type="line"/>
      <point x="931" y="1086" type="line"/>
      <point x="400" y="1086" type="line"/>
    </contour>
    <contour>
      <point x="411" y="1186" type="line"/>
      <point x="460" y="1186" type="line"/>
      <point x="1503" y="1534" type="line"/>
      <point x="742" y="1534" type="line"/>
    </contour>
  </outline>
</glyph>
<glyph name="ijdot" format="2">
  <advance width="1176"/>
  <outline>
    <contour>
      <point x="430" y="1122" type="qcurve" smooth="yes"/>
      <point x="762" y="1122" type="line" smooth="yes"/>
      <point x="843.497" y="1122"/>
      <point x="872" y="1150.5"/>
      <point x="872" y="1232" type="qcurve" smooth="yes"/>
      <point x="872" y="1364" type="line" smooth="yes"/>
      <point x="872" y="1443.99"/>
      <point x="843.497" y="1472"/>
      <point x="762" y="1472" type="qcurve" smooth="yes"/>
      <point x="430" y="1472" type="line" smooth="yes"/>
      <point x="348.503" y="1472"/>
      <point x="320" y="1443.99"/>
      <point x="320" y="1364" type="qcurve" smooth="yes"/>
      <point x="320" y="1232" type="line" smooth="yes"/>
      <point x="320" y="1150.5"/>
      <point x="348.503" y="1122"/>
    </contour>
  </outline>
</glyph>
<glyph name="k.sc" format="2">
  <advance width="3003"/>
  <anchor x="1749" y="1210" name="top"/>
  <anchor x="1539" y="-150" name="bottom"/>
  <outline>
    <contour>
      <point x="400" y="0" type="line"/>
      <point x="931" y="0" type="line"/>
      <point x="931" y="505" type="line"/>
      <point x="886" y="505" type="line"/>
      <point x="2031" y="0" type="line"/>
      <point x="2997" y="0" type="line"/>
      <point x="1319" y="702" type="line"/>
      <point x="966" y="597" type="line"/>
      <point x="2841" y="1086" type="line"/>
      <point x="2732" y="1086" type="line"/>
      <point x="854" y="597" type="line"/>
      <point x="931" y="597" type="line"/>
      <point x="931" y="1086" type="line"/>
      <point x="400" y="1086" type="line"/>
    </contour>
  </outline>
  <guideline angle="90" x="685768" y="0"/>
  <guideline angle="90" x="685852" y="0"/>
</glyph>
<glyph name="l.sc" format="2">
  <advance width="2369"/>
  <anchor x="666" y="1210" name="top"/>
  <anchor x="1387" y="-150" name="bottom"/>
  <anchor x="380" y="700" name="left"/>
  <anchor x="1780" y="1086" name="right"/>
  <anchor x="1850" y="560" name="eldot"/>
  <outline>
    <contour>
      <point x="400" y="0" type="line"/>
      <point x="2359" y="0" type="line"/>
      <point x="2359" y="33" type="line"/>
      <point x="931" y="33" type="line"/>
      <point x="931" y="1086" type="line"/>
      <point x="400" y="1086" type="line"/>
    </contour>
  </outline>
</glyph>
<glyph name="lacute.sc" format="2">
  <advance width="2369"/>
  <anchor x="666" y="1210" name="top"/>
  <anchor x="1387" y="-150" name="bottom"/>
  <anchor x="380" y="700" name="left"/>
  <anchor x="1780" y="1086" name="right"/>
  <anchor x="1850" y="560" name="eldot"/>
  <outline>
    <contour>
      <point x="400" y="0" type="line"/>
      <point x="2359" y="0" type="line"/>
      <point x="2359" y="33" type="line"/>
      <point x="931" y="33" type="line"/>
      <point x="931" y="1086" type="line"/>
      <point x="400" y="1086" type="line"/>
    </contour>
    <contour>
      <point x="411" y="1160" type="line"/>
      <point x="460" y="1160" type="line"/>
      <point x="1503" y="1508" type="line"/>
      <point x="742" y="1508" type="line"/>
    </contour>
  </outline>
</glyph>
<glyph name="n.sc" format="2">
  <advance width="2685"/>
  <anchor x="1342" y="1236" name="top"/>
  <anchor x="1342" y="-150" name="bottom"/>
  <outline>
    <contour>
      <point x="400" y="0" type="line"/>
      <point x="433" y="0" type="line"/>
      <point x="433" y="654" type="line"/>
      <point x="2125" y="0" type="line"/>
      <point x="2285" y="0" type="line"/>
      <point x="2285" y="1086" type="line"/>
      <point x="2252" y="1086" type="line"/>
      <point x="2252" y="432" type="line"/>
      <point x="564" y="1086" type="line"/>
      <point x="400" y="1086" type="line"/>
    </contour>
  </outline>
</glyph>
<glyph name="nacute.sc" format="2">
  <advance width="2685"/>
  <anchor x="1342" y="1236" name="top"/>
  <anchor x="1342" y="-150" name="bottom"/>
  <outline>
    <contour>
      <point x="400" y="0" type="line"/>
      <point x="433" y="0" type="line"/>
      <point x="433" y="654" type="line"/>
      <point x="2125" y="0" type="line"/>
      <point x="2285" y="0" type="line"/>
      <point x="2285" y="1086" type="line"/>
      <point x="2252" y="1086" type="line"/>
      <point x="2252" y="432" type="line"/>
      <point x="564" y="1086" type="line"/>
      <point x="400" y="1086" type="line"/>
    </contour>
    <contour>
      <point x="1087" y="1186" type="line"/>
      <point x="1136" y="1186" type="line"/>
      <point x="2179" y="1534" type="line"/>
      <point x="1418" y="1534" type="line"/>
    </contour>
  </outline>
</glyph>
<glyph name="ncaron.sc" format="2">
  <advance width="2685"/>
  <anchor x="1342" y="1634" name="top"/>
  <anchor x="1342" y="-150" name="bottom"/>
  <anchor x="653" y="1360" name="topright"/>
  <outline>
    <contour>
      <point x="400" y="0" type="line"/>
      <point x="433" y="0" type="line"/>
      <point x="433" y="654" type="line"/>
      <point x="2125" y="0" type="line"/>
      <point x="2285" y="0" type="line"/>
      <point x="2285" y="1086" type="line"/>
      <point x="2252" y="1086" type="line"/>
      <point x="2252" y="432" type="line"/>
      <point x="564" y="1086" type="line"/>
      <point x="400" y="1086" type="line"/>
    </contour>
    <contour>
      <point x="2138" y="1534" type="line"/>
      <point x="2086" y="1534" type="line"/>
      <point x="1668" y="1206" type="line"/>
      <point x="1250" y="1534" type="line"/>
      <point x="653" y="1534" type="line"/>
      <point x="1149" y="1186" type="line"/>
      <point x="1694" y="1186" type="line"/>
    </contour>
  </outline>
</glyph>
<glyph name="nine.dnom" format="2">
  <advance width="1842"/>
  <outline>
    <contour>
      <point x="905" y="790" type="qcurve" smooth="yes"/>
      <point x="691.25" y="790"/>
      <point x="435" y="772.969"/>
      <point x="298.5" y="724.781"/>
      <point x="256" y="638.375"/>
      <point x="256" y="569" type="qcurve" smooth="yes"/>
      <point x="256" y="493.25"/>
      <point x="310.25" y="404.938"/>
      <point x="451.25" y="359.562"/>
      <point x="695.25" y="347"/>
      <point x="885" y="347" type="qcurve" smooth="yes"/>
      <point x="1062.33" y="347"/>
      <point x="1338.5" y="366.172"/>
      <point x="1420" y="379" type="qcurve"/>
      <point x="1420" y="409" type="line"/>
      <point x="1380.25" y="402.25"/>
      <point x="1263.97" y="390.562"/>
      <point x="1125.78" y="381.938"/>
      <point x="973.125" y="377"/>
      <point x="897" y="377" type="qcurve" smooth="yes"/>
      <point x="783.75" y="377"/>
      <point x="647" y="384.969"/>
      <point x="573.5" y="422.281"/>
      <point x="550" y="499.625"/>
      <point x="550" y="569" type="qcurve" smooth="yes"/>
      <point x="550" y="638"/>
      <point x="568.312" y="714.938"/>
      <point x="640.688" y="752.062"/>
      <point x="785" y="760"/>
      <point x="911" y="760" type="qcurve" smooth="yes"/>
      <point x="1026.88" y="760"/>
      <point x="1164.59" y="750.719"/>
      <point x="1237.16" y="698.031"/>
      <point x="1259" y="584.875"/>
      <point x="1259" y="481" type="qcurve" smooth="yes"/>
      <point x="1259" y="308.5"/>
      <point x="1193.78" y="120.375"/>
      <point x="1072.47" y="32.625"/>
      <point x="899.625" y="17"/>
      <point x="792" y="17" type="qcurve" smooth="yes"/>
      <point x="740.625" y="17"/>
      <point x="652.656" y="21.2188"/>
      <point x="580.094" y="28.5312"/>
      <point x="523.25" y="38.375"/>
      <point x="503" y="44" type="qcurve"/>
      <point x="519" y="20" type="line"/>
      <point x="549.184" y="12.454"/>
      <point x="690.147" y="-3"/>
      <point x="789" y="-3" type="qcurve" smooth="yes"/>
      <point x="976.875" y="-3"/>
      <point x="1262.91" y="48.9688"/>
      <point x="1455.84" y="168.781"/>
      <point x="1554" y="364.375"/>
      <point x="1554" y="508" type="qcurve" smooth="yes"/>
      <point x="1554" y="605.5"/>
      <point x="1505.88" y="718"/>
      <point x="1365.62" y="775"/>
      <point x="1111.25" y="790"/>
    </contour>
  </outline>
</glyph>
